<svg width="293" height="215" viewBox="0 0 293 215" fill="none" xmlns="http://www.w3.org/2000/svg">
<path d="M64.4 132.5V105.5H0V80.5C1.6 77.5667 3.66667 74.0333 6.2 69.9C8.86667 65.7667 12 60.9667 15.6 55.5L52.4 0.5H100V78.5H118.8V105.5H100V132.5H64.4ZM31.2 78.5H65V41.7C65 39.4333 65 37.0333 65 34.5C65.1333 31.8333 65.2667 29.1 65.4 26.3H65C63.6667 28.8333 62.2667 31.4333 60.8 34.1C59.3333 36.6333 57.8667 38.9667 56.4 41.1L36.8 70.3C36 71.6333 35.1333 72.9667 34.2 74.3C33.2667 75.6333 32.2667 77.0333 31.2 78.5Z" fill="#F0642F"/>
<path d="M150 186.5C130.933 186.5 116.667 180.833 107.2 169.5C97.7333 158.033 93 141.033 93 118.5C93 95.9667 97.7333 79.0333 107.2 67.7C116.667 56.2333 130.933 50.5 150 50.5C169.067 50.5 183.267 56.2333 192.6 67.7C202.067 79.0333 206.8 95.9667 206.8 118.5C206.8 141.033 202.067 158.033 192.6 169.5C183.267 180.833 169.067 186.5 150 186.5ZM150 155.3C154.133 155.3 157.4 154.167 159.8 151.9C162.2 149.633 163.933 145.833 165 140.5C166.067 135.033 166.6 127.7 166.6 118.5C166.6 109.3 166.067 102.033 165 96.7C163.933 91.2333 162.2 87.3667 159.8 85.1C157.4 82.8333 154.133 81.7 150 81.7C145.867 81.7 142.533 82.8333 140 85.1C137.6 87.3667 135.867 91.2333 134.8 96.7C133.733 102.033 133.2 109.3 133.2 118.5C133.2 127.7 133.733 135.033 134.8 140.5C135.867 145.833 137.6 149.633 140 151.9C142.533 154.167 145.867 155.3 150 155.3Z" fill="black"/>
<path d="M238.4 214.5V187.5H174V162.5C175.6 159.567 177.667 156.033 180.2 151.9C182.867 147.767 186 142.967 189.6 137.5L226.4 82.5H274V160.5H292.8V187.5H274V214.5H238.4ZM205.2 160.5H239V123.7C239 121.433 239 119.033 239 116.5C239.133 113.833 239.267 111.1 239.4 108.3H239C237.667 110.833 236.267 113.433 234.8 116.1C233.333 118.633 231.867 120.967 230.4 123.1L210.8 152.3C210 153.633 209.133 154.967 208.2 156.3C207.267 157.633 206.267 159.033 205.2 160.5Z" fill="#F0642F"/>
</svg>
