<svg width="48" height="48" viewBox="0 0 48 48" fill="none" xmlns="http://www.w3.org/2000/svg">
<path d="M16 24L15.6464 23.6464L15.2929 24L15.6464 24.3536L16 24ZM31 24.5C31.2761 24.5 31.5 24.2761 31.5 24C31.5 23.7239 31.2761 23.5 31 23.5V24.5ZM21.6464 17.6464L15.6464 23.6464L16.3536 24.3536L22.3536 18.3536L21.6464 17.6464ZM15.6464 24.3536L21.6464 30.3536L22.3536 29.6464L16.3536 23.6464L15.6464 24.3536ZM16 24.5H31V23.5H16V24.5Z" fill="#F0642F"/>
<rect x="-0.5" y="0.5" width="47" height="47" rx="23.5" transform="matrix(-1 0 0 1 47 0)" stroke="#B8B8B8"/>
</svg>
