<svg width="128" height="256" viewBox="0 0 128 256" fill="none" xmlns="http://www.w3.org/2000/svg">
<g opacity="0.03">
<path d="M64 8.95C56.8 11.25 50.55 16.3 47.35 22.4C43.85 29.1 44 27 44 69.95V108.75L42.3 109.85C41.35 110.45 40.05 111.7 39.35 112.6C38.15 114.25 19.7 153.9 18.2 158.05C16.05 164.2 16 165.15 16 207.55V248H19.95H23.95L24.1 207.9C24.3 169.2 24.35 167.6 25.35 164.2C25.9 162.25 30.25 152.1 35.05 141.7L43.75 122.8L44 154.75C44.2 177.25 44.4 187.1 44.8 188C45.3 189.1 45.15 189.7 43.4 192.9C42.3 194.9 41.5 196.65 41.55 196.7C42.95 197.85 48.7 200.5 49 200.2C49.25 199.95 54.75 190.5 61.25 179.25C67.75 167.95 73.7 158.15 74.4 157.35C78.3 153.2 85.45 155.25 87 160.95C87.4 162.45 87.4 163.5 87.05 164.65C86.75 165.55 82.35 173.45 77.25 182.25C70.1 194.6 68 198.65 68 200C68 201.3 69.2 203.75 72.95 210C75.65 214.55 78.3 219.35 78.75 220.75C79.5 222.8 79.7 225.45 79.9 235.6L80.1 248H84.05H88V235.1C88 220.25 87.75 218.6 84.2 212.15L82 208H93.85H105.75L105.6 211.35C105.5 213.2 105.65 215.6 106 216.75C106.7 219.15 124.45 250 125.1 250C125.95 250 132 246.45 132 245.95C132 245.7 127.95 238.45 123 229.9C113.3 213.05 113.05 212.4 114.8 208.7C117 204.1 123.75 203.1 127.1 206.8C127.55 207.35 129.85 211.1 132.25 215.25C134.6 219.35 136.95 223.05 137.35 223.4C138.45 224.2 141.6 224.15 142.8 223.3C143.7 222.6 143.75 221.45 144 182.4C144.25 143.05 144.25 142.2 145.3 140.5C148.45 135.15 155.55 135.15 158.7 140.5C159.7 142.2 159.75 143.1 160 176.4C160.25 209.5 160.3 210.6 161.2 211.3C162.45 212.2 165.55 212.2 166.8 211.3C167.65 210.65 167.75 209.75 168 200.4C168.2 191.35 168.35 190.05 169.3 188.5C172.45 183.15 179.55 183.15 182.7 188.5C183.65 190.05 183.8 191.35 184 200.4C184.3 211.8 184.35 212 188 212C191.55 212 191.7 211.6 192 202.4C192.25 195.4 192.4 194 193.3 192.5C196.4 187.15 203.6 187.15 206.7 192.5C207.6 194 207.75 195.4 208 202.4C208.3 211.6 208.45 212 212 212C215.35 212 215.7 211.35 216.05 204.35C216.3 199.45 216.55 197.75 217.3 196.45C220.4 191.15 227.6 191.15 230.7 196.5C231.7 198.2 231.75 199.05 231.9 223.1L232.05 248H236H240V222.25C240 197.4 239.95 196.45 238.95 193.75C237.55 190 234 186.45 230.15 185C226 183.45 219.75 183.7 216.3 185.65L213.9 187L211.7 184.8C208.1 181.2 205.65 180.25 199.75 180.25C195.25 180.25 194.5 180.4 192.35 181.6L189.9 182.95L187.45 180.5C185.9 178.95 184.1 177.7 182.5 177.15L180 176.25V103.7C180 23.3 180.25 29.25 176.7 22.45C173.5 16.35 167.75 11.6 160.85 9.25L157.05 8L111.9 8.05C70.15 8.05 66.55 8.09999 64 8.95ZM154.25 16.5C163.55 17.85 170.15 24.5 171.5 33.75C171.8 35.9 172 63.6 172 106.8V176.4L170.8 176.7C170.15 176.85 169.25 177.15 168.8 177.3C168.1 177.6 168 175.8 168 159.05C168 141.5 167.95 140.4 166.95 137.75C162.1 124.75 141.9 124.75 137.05 137.75C136.05 140.45 136 141.35 136 170.25V200H134.05C132.95 200 131.9 199.75 131.75 199.5C131.05 198.35 126.15 196.35 123.45 196.15C119.25 195.75 116.45 196.35 113.25 198.3L110.35 200L93.75 199.9L77.15 199.75L86.05 184.3C92.75 172.75 95.1 168.2 95.55 166.1C97 158.95 93.25 151.4 86.6 148.15C84.2 147 83.1 146.75 79.75 146.75C76.2 146.75 75.35 146.95 72.4 148.4C70.55 149.3 68.4 150.85 67.6 151.8C66.8 152.75 63.05 158.95 59.2 165.55L52.25 177.6L52.1 107.9C52 62 52.15 36.9 52.5 34.3C52.75 32.1 53.55 29.15 54.2 27.7C56.85 21.95 62.9 17.5 69.25 16.55C73.55 15.95 149.95 15.9 154.25 16.5Z" fill="#151515"/>
<path d="M80 28V32H84H88V28V24H84H80V28Z" fill="#151515"/>
<path d="M96 28V32H112H128V28V24H112H96V28Z" fill="#151515"/>
<path d="M102 57.0002C87.9001 60.6502 76.6001 72.0002 73.0001 86.2002C71.6501 91.6502 71.6001 100.35 73.0001 105.8C76.6001 120.05 87.9501 131.4 102.2 135C107.65 136.35 116.35 136.35 121.8 135C136 131.4 147.45 119.95 151 105.8C152.35 100.35 152.35 91.6502 151 86.2002C147.4 71.9502 136.05 60.6002 121.8 57.0002C116.45 55.6502 107.3 55.6502 102 57.0002ZM122 66.0002C131.2 69.1002 139.05 76.9502 142.05 86.0502C143.05 89.2002 143.25 90.7002 143.25 96.2502C143.25 102 143.1 103.15 141.95 106.35C132.7 131.7 98.7501 135.15 84.8001 112.1C81.6001 106.8 80.7501 103.55 80.7501 96.2502C80.7501 90.7002 80.9501 89.2002 81.9501 86.1002C87.3501 69.6502 105.6 60.5002 122 66.0002Z" fill="#151515"/>
<path d="M108 74C108 75.9 107.9 76 106.5 76C102.95 76 98.7 79.05 96.95 82.75C95.7 85.45 95.7 90.55 96.95 93.25C97.45 94.35 98.65 95.95 99.55 96.85C102.25 99.4 104.3 100 110.25 100C116.4 100 118.8 100.7 119.3 102.7C120.2 106.35 117.9 108 112 108C107.7 108 105.15 107.05 104.7 105.3C104.4 104.05 104.3 104 100.2 104H96V105.5C96 110.4 101.5 115.95 106.4 116C107.95 116 108 116.1 108 118V120H112H116V118C116 116.1 116.05 116 117.65 116C121.2 115.95 125.65 112.7 127.2 108.9C127.65 107.85 128 105.65 128 104C128 100.4 127.05 97.9 124.85 95.55C122.15 92.7 120 92 113.85 92C107.6 92 105.2 91.3 104.7 89.3C103.8 85.65 106.1 84 112 84C116.3 84 118.85 84.95 119.3 86.7C119.6 87.95 119.7 88 123.8 88H128V86.5C128 81.6 122.5 76.05 117.65 76C116.05 76 116 75.9 116 74V72H112H108V74Z" fill="#151515"/>
<path d="M98.75 168.95C94.4 170.95 92 174.95 92 180.1C92.05 185.2 94.7 189.4 99.1 191.2C101.8 192.35 122.2 192.35 124.9 191.2C129.3 189.4 131.95 185.2 132 180.1C132 176.45 131.05 173.9 128.85 171.55C125.7 168.25 124.55 168 112 168C102.1 168 100.5 168.15 98.75 168.95ZM121.25 176.7C123.1 177.5 123.85 179.1 123.3 181.3C122.75 183.45 120.5 184 112 184C103.5 184 101.25 183.45 100.7 181.3C100.2 179.15 100.9 177.5 102.65 176.75C104.95 175.75 118.85 175.75 121.25 176.7Z" fill="#151515"/>
<path d="M11.3 58.5L4.75 65L7.85 68.1L11 71.25L13.5 68.75L16 66.3V89.15V112H20H24V89.15V66.3L26.5 68.75L29 71.25L32.15 68.1L35.25 65L28.7 58.5C22.35 52.15 22.1 52 20 52C17.9 52 17.65 52.15 11.3 58.5Z" fill="#151515"/>
<path d="M16 124V128H20H24V124V120H20H16V124Z" fill="#151515"/>
</g>
</svg>
