<svg width="164" height="256" viewBox="0 0 164 256" fill="none" xmlns="http://www.w3.org/2000/svg">
<g opacity="0.03">
<path d="M44 1.2C42.7 1.84999 41.1 3.25 40.25 4.45L38.75 6.59999L38.6 16.75C38.45 26.75 38.45 26.9 39.55 27.95C41.15 29.4 43.7 29.35 45.25 27.75C46.5 26.55 46.5 26.4 46.5 18.05C46.5 9.95 46.55 9.5 47.6 8.5C49.05 7.14999 50.8 7.25 52.25 8.75L53.5 9.95V90V170H50H46.5V107V43.95L45.25 42.75C43.75 41.2 41.6 41.15 39.8 42.55L38.5 43.55V106.8V170H36.65C33.25 170 28.45 171 26.05 172.2C22.95 173.8 19.75 177.15 18.1 180.5L16.75 183.25V197V210.75L18.15 213.6C19.25 215.85 21.3 218.1 27.8 224.3C32.35 228.65 36.5 233.05 37.05 234.1C37.9 235.7 38 237.05 38 244.65C38 252.7 38.1 253.45 39.05 254.7L40.05 256H63.7C85.95 256 87.4 255.95 88.15 255.1C89.65 253.45 89.1 250.9 85.4 241.45L81.75 232.25L81.5 201.25L81.25 170.25L79.9 167.4C77.2 161.6 71.5 157.7 64.95 157.15L61.5 156.85V142.25V127.65L65.55 128.8C76.45 132 87.05 131.5 99.9 127.2C110.55 123.7 121.8 117.55 138.75 106.1C144.25 102.35 152.85 96.55 157.8 93.15C162.8 89.8 167 86.65 167.2 86.2C168.3 83.35 166.5 80.5 163.55 80.5C162.3 80.5 159.95 81.85 153.35 86.35C115.45 112.05 109.7 115.45 96.7 119.8C84.8 123.8 75 123.8 64.4 119.95L61.5 118.9V74.4V29.95L65.45 33.2C81.1 45.9 96.95 51.45 117.75 51.5C125.95 51.5 131.1 51.05 148.75 48.9C160.15 47.45 163.25 47.25 174 47.25C183.8 47.25 187.15 47.45 190.6 48.15C199.4 49.95 207.45 53.2 215.05 58.05L219.25 60.75L212.25 61.05C208.4 61.25 203.5 61.75 201.35 62.2C193.2 63.95 178.65 69.9 177.55 71.9C176.15 74.5 178 78 180.75 78C181.45 78 184.45 76.9 187.4 75.55C197.2 71.1 205.5 69 213.35 69C219.4 69 223.7 69.9 229.4 72.3C235.35 74.8 236.6 74.95 238.2 73.3C240.95 70.55 239.6 68.1 230.9 60.15C219.55 49.8 207.65 43.6 193 40.4C188.25 39.4 186.45 39.25 174.5 39.25C162.05 39.25 160.25 39.4 145.5 41.25C131.7 42.95 128.4 43.2 119 43.25C110.55 43.25 107.2 43.05 103.25 42.3C89.4 39.7 77.35 33.4 66.2 22.85L61.5 18.4V13.85C61.5 8.2 60.9 6 58.85 3.64999C56.6 1.05 53.95 0 49.75 0.0500031C47.1 0.0500031 45.7 0.300003 44 1.2ZM66.6 165.6C69.35 166.4 72.2 169.3 72.9 172.05C73.35 173.6 73.55 182.9 73.65 204.4L73.75 234.5H59.7H45.6L45.3 232.75C44.75 229.85 41.55 226 33.7 218.6C28.2 213.5 25.9 210.95 25.3 209.5C24.65 207.85 24.5 205.45 24.5 196.7C24.5 184.9 24.6 184.3 27.65 181.1C30.3 178.35 32.5 178 46.8 178H59.45L60.45 176.7C61.35 175.55 61.5 174.65 61.5 170.2V165H63.05C63.95 165 65.5 165.25 66.6 165.6ZM77.2 242.9C77.3 243.1 77.9 244.45 78.45 245.9L79.5 248.5H62.75H46V245.5V242.5H61.45C70 242.5 77.05 242.7 77.2 242.9Z" fill="#151515"/>
</g>
</svg>
