<svg width="154" height="256" viewBox="0 0 154 256" fill="none" xmlns="http://www.w3.org/2000/svg">
<g opacity="0.03" clip-path="url(#clip0_69_260)">
<path d="M124.249 2.04982C120.299 5.09982 109.649 11.8998 103.649 15.1498C82.0492 27.0998 59.0492 34.5998 33.3492 37.9998C27.1992 38.8498 26.9492 39.0998 26.3992 45.7998C25.7992 52.6998 26.2492 82.0998 26.9992 84.5998C27.2992 85.6498 27.9492 86.6998 28.4992 86.9998C29.9992 87.7998 32.3992 87.5998 33.4992 86.4998C34.4492 85.5498 34.4492 84.9998 34.1492 68.1498C33.9992 58.5498 33.9992 49.6998 34.1992 48.3998C34.5492 46.2498 34.6992 45.9998 36.1492 45.7998C47.3992 43.9498 51.0992 43.2498 57.3992 41.7498C80.5492 36.1998 106.899 24.4498 124.899 11.6498L127.999 9.44983L131.149 11.6498C149.099 24.4498 175.449 36.1998 198.599 41.7498C204.899 43.2498 208.849 43.9998 219.799 45.7498C221.899 46.0998 221.999 46.8998 221.999 60.9998C221.999 114.65 207.899 161.8 181.999 194.5C170.249 209.35 154.499 222 136.649 230.85L127.999 235.1L119.899 231.1C98.8492 220.7 81.5492 205.85 68.1992 186.75C52.7492 164.55 42.9492 138.75 37.5492 105.95C36.2492 98.2498 35.8492 96.5998 34.9492 95.8498C33.4992 94.6998 30.9492 94.7498 29.5992 95.9998C28.1492 97.3498 28.1992 98.7998 29.7992 108.45C32.5992 125.5 37.7992 144.15 43.6992 158.45L46.3992 165L41.9492 167.55C32.8992 172.7 23.8992 179.95 22.9492 182.85C22.4492 184.45 22.5492 184.9 24.6992 188.95L26.9492 193.35L13.5992 202.3C0.449211 211.15 0.249212 211.25 0.0992116 213.1C-0.000788383 214.1 0.149212 215.4 0.449212 215.9C0.749212 216.45 5.79921 219.5 11.6992 222.75L22.4492 228.65L22.5992 241C22.7492 252.35 22.8492 253.5 23.6992 254.45C25.7992 256.8 26.7492 256.35 49.4992 242.95C61.1992 236.05 70.9992 230.2 71.3492 229.9C72.8992 228.65 72.5492 226.75 69.7992 220.85L67.0492 215L69.0992 213.95C70.2492 213.35 72.5492 212.35 74.1992 211.75L77.1992 210.6L81.7492 214.8C92.1992 224.4 102.749 231.65 115.999 238.2C128.349 244.3 127.649 244.3 139.999 238.2C153.249 231.65 163.799 224.4 174.249 214.8L178.799 210.6L181.799 211.75C183.449 212.35 185.749 213.35 186.849 213.95L188.899 215L186.199 220.85C183.449 226.8 183.199 228.4 184.649 229.85C184.999 230.15 194.799 236.05 206.499 242.95C229.249 256.35 230.199 256.8 232.299 254.45C233.149 253.5 233.249 252.35 233.399 241L233.549 228.65L244.299 222.75C250.199 219.5 255.249 216.45 255.549 215.9C255.849 215.4 255.999 214.1 255.899 213.1C255.749 211.25 255.549 211.15 242.399 202.3L229.049 193.35L231.299 188.95C233.449 184.9 233.549 184.45 233.049 182.85C232.099 179.95 223.099 172.7 214.049 167.55L209.599 165L212.499 157.85C220.899 137.2 226.099 115.15 228.799 88.9998C229.749 79.8998 230.249 51.8998 229.599 45.2998C228.999 39.1498 228.699 38.8498 222.649 37.9998C189.699 33.5998 158.949 21.6498 133.649 3.44983C128.799 -0.0501709 127.299 -0.300171 124.249 2.04982ZM51.6492 175.25C53.9492 179.95 60.4492 190 65.8492 197.2C68.6992 201 70.9992 204.2 70.8992 204.25C70.7992 204.35 69.3992 204.95 67.7492 205.65C63.1992 207.6 55.6492 211.8 51.8992 214.5L48.5492 216.95L45.7992 211.85C44.3492 209.05 40.4992 201.8 37.3492 195.8L31.5992 184.85L34.4492 182.5C38.6492 179 48.7492 172.55 49.9992 172.5C50.1492 172.5 50.8992 173.75 51.6492 175.25ZM210.099 174.7C214.199 177 218.999 180.3 222.349 183.1L224.399 184.85L218.649 195.8C215.499 201.8 211.649 209.05 210.199 211.85L207.449 216.95L204.099 214.5C200.349 211.8 192.799 207.6 188.249 205.65C186.599 204.95 185.199 204.35 185.099 204.25C184.999 204.15 187.099 201.25 189.749 197.8C195.149 190.75 200.899 181.95 203.799 176.3C204.849 174.2 205.849 172.5 205.999 172.5C206.149 172.5 207.999 173.5 210.099 174.7ZM37.2492 213C40.7492 219.75 44.0492 225.75 44.5992 226.3C45.3492 227.15 46.7992 227.6 51.0492 228.25C54.0992 228.75 56.3492 229.3 56.1492 229.5C55.6492 229.95 30.9492 244.5 30.6992 244.5C30.5992 244.5 30.4992 240 30.4992 234.5C30.4992 225.55 30.3992 224.4 29.5992 223.6C29.0992 223.15 24.9492 220.7 20.3492 218.25C15.7992 215.75 11.9992 213.6 11.9992 213.4C11.9992 213.05 30.5992 200.4 30.7492 200.65C30.7992 200.7 33.6992 206.25 37.2492 213ZM235.149 207.1C239.999 210.4 243.999 213.2 243.999 213.4C243.999 213.6 240.199 215.75 235.649 218.25C231.049 220.7 226.899 223.15 226.399 223.6C225.599 224.4 225.499 225.55 225.499 234.5C225.499 240 225.399 244.5 225.299 244.5C225.049 244.5 200.349 229.95 199.849 229.5C199.649 229.3 201.949 228.75 204.999 228.25C209.849 227.45 210.649 227.2 211.649 226C212.249 225.25 215.549 219.25 218.999 212.6C222.449 206 225.499 200.75 225.749 200.9C226.049 201.05 230.249 203.85 235.149 207.1ZM60.9992 221.25C60.9992 221.9 57.6492 221.65 57.2492 220.95C57.0992 220.75 57.5992 220.2 58.3492 219.8C59.5992 219.15 59.7992 219.15 60.3992 219.85C60.6992 220.3 60.9992 220.95 60.9992 221.25ZM198.749 221.05C198.399 221.55 194.999 221.85 194.999 221.35C194.999 221.15 195.249 220.5 195.499 219.95C196.049 219 196.099 219 197.499 219.85C198.299 220.3 198.849 220.85 198.749 221.05Z" fill="#151515"/>
<path d="M121.999 31.55C111.049 39.4 96.5991 46.5 82.1991 51.15C75.1991 53.4 63.3491 56.1 57.7491 56.75C53.1491 57.25 51.0991 57.9 50.3991 59.15C49.4991 60.7 49.2491 83.55 49.9991 93C52.0991 119.6 58.4991 142.95 69.0991 163C72.3991 169.25 76.9491 176.35 78.5491 177.8C79.9991 179.1 82.8991 179 84.0491 177.55C85.6991 175.55 85.2491 173.8 81.7991 168.6C65.9491 144.55 57.4991 112.35 57.4991 76.15V65L58.6491 64.8C59.2491 64.65 61.9991 64.2 64.7491 63.75C84.5991 60.55 107.099 51.55 124.349 39.95L127.999 37.45L131.649 39.95C148.899 51.55 171.399 60.55 191.249 63.75C193.999 64.2 196.749 64.65 197.399 64.8L198.499 65V77.15C198.499 87.05 198.649 89.45 199.249 90.35C200.849 92.65 204.899 92.15 205.999 89.5C206.849 87.5 206.499 60.7 205.599 59.15C204.899 57.9 202.849 57.25 198.249 56.75C192.649 56.1 180.799 53.4 173.799 51.15C160.499 46.85 147.549 40.65 136.349 33.15C131.199 29.7 128.999 28.5 127.849 28.5C126.699 28.5 125.049 29.35 121.999 31.55Z" fill="#151515"/>
<path d="M158.15 86.5499C157 86.7499 155.35 87.2999 154.4 87.7499C153.5 88.1999 144.95 96.3999 135.4 105.9L118.05 123.2L111.15 116.45C107.35 112.75 103.4 109.3 102.3 108.8C97 106.35 90.75 107.65 86.8 112.05C84.2 114.9 83.5 116.95 83.5 121.25C83.55 126.4 84.35 127.55 97.4 140.65C103.9 147.2 110.25 153.2 111.5 153.9C114.55 155.75 120.55 155.85 124 154.15C127 152.65 171.4 108.15 172.8 105.25C174.2 102.35 174.1 96.4499 172.65 93.6999C169.75 88.2499 164 85.3999 158.15 86.5499ZM164.25 95.8499C165.75 97.3499 166.3 99.9499 165.5 101.55C164.65 103.2 122.1 145.9 120.4 146.8C119.65 147.2 118.3 147.5 117.4 147.5C115.95 147.5 114.55 146.25 103.65 135.35C91.7 123.4 91.5 123.15 91.5 121.15C91.5 117.35 94.95 114.75 98.3 116C99.1 116.3 103.5 120.25 108.05 124.8C116.5 133.2 117.25 133.65 119.65 132.45C120.25 132.15 129.1 123.6 139.25 113.45C151.9 100.8 158.25 94.8499 159.25 94.5999C161.3 94.0499 162.75 94.3999 164.25 95.8499Z" fill="#151515"/>
<path d="M199.15 99.5999C197.65 100.35 197.15 101.8 196 109C193.25 126.25 189.1 140.05 182.55 153.75C171.5 176.75 155.7 193.15 134.1 204L128.05 207.05L122.25 204.25C113.05 199.75 104 193.45 97 186.75C92.25 182.15 90.75 181.6 88.3 183.55C87.3 184.35 87 185 87 186.5C87 188.25 87.35 188.75 91.65 192.8C99.65 200.5 108.1 206.3 119 211.65C127.65 215.9 128.4 215.9 137.65 211.3C167.2 196.6 188.1 170.3 198.5 134.75C201.5 124.45 205 107.25 205 102.8C205 100.2 201.65 98.3499 199.15 99.5999Z" fill="#151515"/>
</g>
<defs>
<clipPath id="clip0_69_260">
<rect width="256" height="256" fill="white"/>
</clipPath>
</defs>
</svg>
