<svg width="155" height="237" viewBox="0 0 155 237" fill="none" xmlns="http://www.w3.org/2000/svg">
<g opacity="0.03">
<path d="M220.5 -18.5499C216.6 -17.3499 213 -14.0999 211.1 -10.0499C208.95 -5.44991 209.45 0.750092 212.3 4.95009C213.45 6.65009 213.45 6.7501 212.6 8.05009C212.15 8.80009 205 19.5001 196.75 31.8501L181.8 54.3001L177.95 54.1001C173.35 53.8501 170.1 54.7501 166.9 57.2001L164.75 58.8501L154.15 53.5501L143.5 48.2501V45.1501C143.5 39.0001 140.2 33.6501 134.75 31.0001C132.7 29.9501 131.5 29.7501 128 29.7501C122.95 29.7501 120.2 30.8001 117.15 33.8501C112.9 38.1001 111.35 45.0001 113.4 50.3001L114.35 52.9001L100.8 66.4501L87.2 80.0501L85 79.2001C83.7 78.7001 81.25 78.3501 79.25 78.3501C74.9 78.3501 72 79.5501 68.55 82.7501C65.3 85.8001 63.9 89.0501 63.9 93.6001V97.0501L53.3 102.35L42.7 107.65L40.3 105.85C32.45 99.8001 21 102.5 16.65 111.4C15.55 113.7 15.25 114.9 15.25 118C15.25 121.25 15.45 122.2 16.9 125.1C18.7 128.75 20.9 130.85 24.8 132.55C27.9 133.95 34.7 133.75 37.75 132.15C42.9 129.45 46.1 124.15 46.2 118.35V114.9L56.75 109.6L67.3 104.35L69.95 106.2C73.5 108.6 77.35 109.7 80.95 109.3C90.95 108.15 97.3 98.2001 94.1 88.7501L93.05 85.7501L106.6 72.1501L120.2 58.5501L121.7 59.4001C122.85 60.0501 124.5 60.2501 128 60.2501C133.05 60.2501 135 59.6001 138.3 56.8001L139.8 55.6001L150.4 60.9501L161.05 66.3001L161.2 69.7501C161.4 75.8001 164.4 80.6001 169.75 83.4001C171.9 84.5501 172.85 84.7501 176.5 84.7501C183.25 84.7501 187.6 82.1501 190.5 76.4001C191.75 73.8501 192 72.7501 192 69.7501C192 65.9001 191.15 62.8501 189.5 60.5001L188.45 59.0501L204.25 35.4001L220 11.7501H224.65C228.65 11.7501 229.6 11.6001 232.1 10.3501C237.65 7.6001 240.7 2.75009 240.7 -3.49991C240.7 -9.8999 237.8 -14.7499 232.4 -17.4499C229.75 -18.7999 228.85 -18.9999 225.55 -18.9499C223.45 -18.9499 221.2 -18.7499 220.5 -18.5499ZM229.65 -9.79991C231.05 -8.8499 233 -5.29991 233 -3.69991C232.95 -1.94991 231.15 1.3501 229.55 2.45009C227.25 4.1001 225.05 4.30009 222.35 3.1001C217.3 0.850098 216.2 -5.0999 220.2 -8.94991C222.85 -11.4999 226.5 -11.8499 229.65 -9.79991ZM131.5 38.5501C135.1 40.6001 136.45 45.0001 134.55 48.5001C133.2 51.0501 130.85 52.5001 128 52.5001C122.3 52.5001 118.75 46.5001 121.55 41.5001C123.65 37.8001 127.9 36.5501 131.5 38.5501ZM180.4 63.0001C183.95 65.2001 185.15 70.2001 182.9 73.5001C179.8 78.0501 173.8 78.0001 170.4 73.4501C165.9 67.4501 173.95 59.0501 180.4 63.0001ZM83.1 87.3001C85.6 88.6001 87.3 92.3501 86.8 95.3001C86.3 97.8001 83.2 100.8 80.55 101.25C76.25 101.95 72 98.4001 72 94.0501C72 88.0001 77.7 84.5501 83.1 87.3001ZM33.85 111.45C38.9 113.75 39.75 119.85 35.5 123.7C31.7 127.1 26.25 125.95 24 121.2C22.25 117.6 23.7 113.45 27.5 111.45C29.7 110.25 31.2 110.25 33.85 111.45Z" fill="#151515"/>
<path d="M208.95 36.15C208 36.75 206.85 38.05 206.4 39C205.55 40.65 205.5 46.25 205.5 135.1V229.5H201H196.5L196.4 171.35C196.25 116.3 196.2 113.15 195.35 111.85C193.75 109.4 191.65 108.5 187.45 108.5C184.15 108.5 183.55 108.65 182.6 109.65C181.25 111.1 181.15 113.5 182.4 115C183.05 115.8 184 116.2 185.9 116.4L188.5 116.65V173.05V229.5H176.75H165V173V116.5H166.75C171.25 116.5 173.6 112.55 170.75 109.75C169.7 108.65 169.1 108.5 165.7 108.5C162.75 108.5 161.5 108.75 160.25 109.5C156.8 111.65 157 107.65 157 171.7V229.5H152.25H147.5V159.1C147.5 90.2 147.5 88.7 146.5 87.15C144.65 84.1 144.1 84 128 84C111.9 84 111.35 84.1 109.5 87.15C108.5 88.7 108.5 90.2 108.5 159.1V229.5H103.75H98.9996V183.85C98.9996 132.9 99.1996 135.9 95.4996 133.75C93.8496 132.8 92.8996 132.75 79.2496 132.75C63.1496 132.75 62.7496 132.85 60.6996 136.2C59.7996 137.7 59.7496 139.7 59.5996 183.6L59.4996 229.5H54.9996H50.4996V196.1C50.4996 159.25 50.5996 160.7 47.3496 158.3C45.9996 157.3 45.2996 157.25 30.7496 157.25C16.1996 157.25 15.4996 157.3 14.1496 158.3C10.8996 160.7 10.9996 159.25 10.9996 196.1V229.5H7.79961C4.89961 229.5 4.44961 229.65 3.54961 230.8C2.19961 232.5 2.19961 234 3.54961 235.7L4.54961 237H128H251.45L252.45 235.7C253.8 234 253.8 232.5 252.45 230.8C251.55 229.65 251.1 229.5 248.2 229.5H245V187.55C245 147.15 244.95 145.55 244.05 144.45C242.7 142.8 239.3 142.8 237.95 144.45C237.05 145.55 237 147.15 237 187.55V229.5H225.25H213.5V136.25V43H225.25H237V86.95C237 130.6 237 130.85 238.05 132.2C239.45 133.95 242.05 134 243.75 132.25L245 131.05V85.65C245 41.25 244.95 40.2 244 38.6C243.45 37.7 242.3 36.55 241.4 36C239.85 35.05 238.85 35 225.2 35C210.9 35 210.6 35 208.95 36.15ZM139.5 160.75V229.5H128H116.5V160.75V92H128H139.5V160.75ZM90.9996 185V229.5H79.2496H67.4996V185V140.5H79.2496H90.9996V185ZM42.4996 197.25V229.5H30.7496H18.9996V197.25V165H30.7496H42.4996V197.25Z" fill="#151515"/>
</g>
</svg>
