<svg width="180" height="256" viewBox="0 0 180 256" fill="none" xmlns="http://www.w3.org/2000/svg">
<g opacity="0.03" clip-path="url(#clip0_69_197)">
<path d="M124.3 18.2998C123 19.6498 123 19.6998 123 27.2498C123 34.7998 123 34.8498 124.3 36.1998C125.35 37.2498 126.1 37.4998 128 37.4998C129.9 37.4998 130.65 37.2498 131.7 36.1998C133 34.8498 133 34.7998 133 27.2498C133 19.6998 133 19.6498 131.7 18.2998C130.65 17.2498 129.9 16.9998 128 16.9998C126.1 16.9998 125.35 17.2498 124.3 18.2998Z" fill="#151515"/>
<path d="M43.1507 51.5998C40.7007 52.2498 39.3507 54.2998 39.6507 56.9498C39.9007 58.9998 40.3507 59.5998 44.8507 64.0998C49.5507 68.7498 49.9507 68.9998 51.9507 68.9998C54.4507 68.9998 56.2007 67.9498 57.0007 65.9998C58.1507 63.1998 57.3507 61.5498 52.3507 56.5998C47.5007 51.7498 45.8507 50.8498 43.1507 51.5998Z" fill="#151515"/>
<path d="M125.75 56.6998C124.55 57.1998 122.05 60.7998 113.5 74.3498L102.75 91.3498L95.5 86.5998C74.85 73.0998 75.9 73.6998 72.7 73.8998C70.75 74.0498 69.4 76.1998 64.45 87.2998C61.8 93.2998 59.45 98.2498 59.3 98.2498C59.2 98.2498 51.95 93.1998 43.25 86.9998C34.5 80.7998 26.7 75.4498 25.85 75.0998C24.6 74.5498 23.85 74.5498 22.4 74.9498C20.05 75.6998 19 77.1498 19 79.7998C19 80.9498 23.7 106.55 29.5 136.7L40 191.6L41.25 209.9C41.95 220 42.5 228.75 42.5 229.35C42.5 230 43.15 231.2 43.9 232.05C45.25 233.6 45.4 233.6 54.75 234.75C64.45 235.95 76.35 237.1 88.75 238.05C99.85 238.9 143.1 239.2 156.55 238.55C171.2 237.8 188.3 236.35 201 234.8C210.6 233.6 210.75 233.6 212.1 232.05C212.85 231.2 213.5 230 213.5 229.35C213.5 228.75 214.05 220 214.75 209.9L216 191.6L226.5 136.75C232.3 106.55 237 80.9498 237 79.7998C237 77.1498 235.95 75.6998 233.6 74.9498C232.15 74.5498 231.4 74.5498 230.15 75.0998C229.3 75.4498 221.5 80.7998 212.85 86.9498C204.2 93.0998 196.95 98.1498 196.75 98.1998C196.6 98.2498 194.25 93.2998 191.55 87.2998C188.85 81.2498 186.15 75.8498 185.55 75.1998C184.4 73.9998 182.65 73.4998 180.85 73.8498C180.2 73.9998 173.75 77.9498 166.45 82.6998C155.1 90.1498 153.2 91.2498 152.7 90.5498C152.4 90.0998 147.6 82.4498 142 73.5498C133.4 59.9498 131.5 57.2498 130.15 56.6998C128.2 55.8498 127.65 55.8498 125.75 56.6998ZM146.25 100.1C156.1 115.8 164.75 129 165.45 129.4C168.55 131.45 168.4 131.55 196.8 111.4C211.35 101.1 223.5 92.5498 223.8 92.3498C224.1 92.1998 223.4 96.7998 222.25 102.9C221.1 108.85 217.05 130.05 213.25 150C209.4 169.95 206.3 186.3 206.25 186.35C206.15 186.6 182.7 189.05 174 189.7C156.95 191 154.15 191.1 135.1 191.45L116.4 191.75L115.2 193.15C113.55 195.1 113.55 198.4 115.2 200.35L116.4 201.75L127.6 201.9C146.3 202.2 172.8 200.75 194.75 198.3C200.25 197.65 204.8 197.2 204.9 197.3C205.05 197.4 203.45 223.6 203.3 223.85C203.05 224.15 179.25 226.6 169.75 227.25C144.95 229.05 110.7 229.05 86.2 227.25C76.65 226.55 52.9 224.15 52.7 223.85C52.55 223.6 50.95 197.4 51.1 197.3C51.2 197.2 55.65 197.7 61 198.3C74.45 199.85 75.25 199.85 77.05 198.05C79.85 195.25 78.6 190.05 74.9 189.3C74.3 189.15 68.35 188.45 61.75 187.75C55.15 187.05 49.75 186.4 49.75 186.35C49.7 186.3 46.6 169.95 42.75 150C38.95 130.05 34.9 108.85 33.75 102.9C32.6 96.7998 31.9 92.1998 32.2 92.3498C32.5 92.5498 44.65 101.1 59.2 111.4C87.6 131.55 87.45 131.45 90.55 129.4C91.25 128.95 99.8 115.9 109.8 100.1C119.65 84.3998 127.85 71.5498 128 71.5498C128.15 71.5498 136.35 84.3998 146.25 100.1ZM87 93.7498C92.35 97.2498 96.8 100.2 96.9 100.25C97 100.35 86.85 116.7 86.3 117.35C86.2 117.5 69.55 105.75 68.85 105.05C68.3 104.5 76.05 86.8998 76.75 87.1498C77 87.2998 81.65 90.2498 87 93.7498ZM183.65 95.6498C185.75 100.4 187.5 104.45 187.5 104.6C187.5 104.95 169.9 117.6 169.7 117.35C169.65 117.3 167.2 113.45 164.25 108.8C160.3 102.5 159.1 100.25 159.6 99.9498C159.95 99.7498 164.55 96.7498 169.75 93.2998C175 89.8498 179.35 86.9998 179.5 86.9998C179.65 86.9998 181.5 90.8998 183.65 95.6498Z" fill="#151515"/>
<path d="M126.15 104.05C124.4 104.55 124.8 103.95 109.15 128.95C100.45 142.85 100.2 143.5 103.15 146.85C110.15 155.05 125.1 171.45 125.75 171.7C126.8 172.1 129.2 172.1 130.25 171.7C130.9 171.45 145.85 155.05 152.9 146.85C155.7 143.55 155.4 142.6 148.45 131.45C133.7 107.95 131.45 104.55 130.35 104.25C128.2 103.65 127.75 103.6 126.15 104.05ZM135.45 130.75C139.3 136.95 142.5 142.15 142.5 142.3C142.5 142.7 128.35 158.5 128 158.5C127.65 158.5 113.5 142.7 113.5 142.3C113.5 141.75 127.65 119.5 128 119.5C128.2 119.5 131.55 124.55 135.45 130.75Z" fill="#151515"/>
<path d="M92.75 192.2C90.5 194.45 90.5 197.55 92.75 199.8C93.7 200.7 94.5 201 96.25 201C100.95 201 103.2 196.1 100.2 192.55C99.1 191.2 98.6 191 96.45 191C94.5 191 93.7 191.25 92.75 192.2Z" fill="#151515"/>
<path d="M2.69942 135C-0.150578 136.15 -0.950578 140.8 1.19942 143.35L2.39942 144.75H10.2494H18.0994L19.2994 143.35C20.9494 141.4 20.9494 138.1 19.2994 136.15L18.0994 134.75L10.8994 134.65C6.99942 134.6 3.24942 134.75 2.69942 135Z" fill="#151515"/>
</g>
<defs>
<clipPath id="clip0_69_197">
<rect width="256" height="256" fill="white"/>
</clipPath>
</defs>
</svg>
