<svg width="170" height="256" viewBox="0 0 170 256" fill="none" xmlns="http://www.w3.org/2000/svg">
<g opacity="0.03">
<path d="M125 29C124.15 29.85 124 30.65 124 34.95V39.9L121.8 40.45C118.9 41.15 115.65 43.7 113.8 46.65C112.65 48.55 112.3 49.75 112.1 52.7C111.8 57.25 112.8 60.5 115.3 63.45C118.4 67.05 120.2 67.65 128.5 68C134.1 68.25 136.05 68.5 137.05 69.15C140.45 71.4 140.3 77 136.8 78.9C135.55 79.6 133.25 79.8 124.35 80C112.05 80.3 112 80.3 112 84.1C112 87.35 113.15 88 119 88H124V93C124 98.9 124.6 100 128 100C131.35 100 132 98.9 132 93.1V88.25L134.8 88.1C143.05 87.7 148.45 81.4 147.9 72.8C147.65 68.9 146.7 66.6 144.3 64.1C141.4 60.95 139.5 60.35 131.75 60C127.9 59.85 124.25 59.45 123.65 59.1C119 56.55 119.75 49.95 124.9 48.5C125.9 48.25 131.1 48 136.4 48C145.35 48 146.05 47.95 147 47C147.65 46.35 148 45.35 148 44C148 42.65 147.65 41.65 147 41C146.1 40.1 145.35 40 139 40H132V35C132 29.1 131.4 28 128 28C126.65 28 125.65 28.35 125 29Z" fill="#151515"/>
<path d="M86.6003 37.1499C85.1003 38.7499 85.1503 41.4999 86.6503 42.8499C87.2503 43.4499 90.1003 45.2999 93.0003 46.9499C98.8003 50.3499 101.2 50.7999 103 48.9999C104.3 47.6999 104.35 44.3499 103.1 43.0999C102.6 42.5999 99.7003 40.7999 96.7003 39.0999C90.4503 35.5999 88.4003 35.1999 86.6003 37.1499Z" fill="#151515"/>
<path d="M167 39.2999C163.85 41.0499 160.95 42.8999 160.65 43.3499C159.65 44.6499 159.85 47.8499 161 48.9999C162.8 50.7999 165.2 50.3499 171 46.9499C173.9 45.2999 176.75 43.4499 177.4 42.8499C178.9 41.4499 178.9 38.5499 177.35 37.0999C175.35 35.2499 173.4 35.6499 167 39.2999Z" fill="#151515"/>
<path d="M44.4 44.95C37.15 47.3 30.95 53.65 28.8 60.95C28.1 63.4 28 70.4 28 124.1C28 183.75 28 184.55 29.05 187.6C29.6 189.25 30.8 191.8 31.75 193.25L33.45 195.9L26.1 196.1C19.65 196.25 18.5 196.4 16.65 197.4C13.35 199.15 11.15 201.3 9.65 204.4C8.4 206.9 8.25 207.8 8.25 212C8.25 216.2 8.4 217.1 9.65 219.6C11.15 222.65 13.35 224.85 16.65 226.6L18.75 227.75H128H237.25L239.35 226.6C242.65 224.85 244.85 222.65 246.35 219.6C247.6 217.1 247.75 216.2 247.75 212C247.75 207.8 247.6 206.9 246.35 204.4C244.85 201.3 242.65 199.15 239.35 197.4C237.5 196.4 236.35 196.25 229.9 196.1L222.55 195.9L224.25 193.25C225.2 191.8 226.4 189.25 226.95 187.6C228 184.55 228 183.75 228 124.05C228 66.1 227.95 63.45 227.05 60.55C224.75 53.2 218.45 46.95 211.05 44.8C208.85 44.15 205.65 44 194.7 44H181.05L180.05 45.3C178.75 47 178.7 49 180 50.65L181 51.9L193.85 52.15C201.65 52.25 207.5 52.6 208.6 52.95C213.1 54.4 217.7 59.1 219.1 63.65C220.05 66.7 220.05 181.3 219.1 184.35C217.7 189.05 213.05 193.7 208.35 195.1C205.3 196.05 50.7 196.05 47.65 195.1C42.95 193.7 38.3 189.05 36.9 184.35C35.95 181.3 35.95 66.7 36.9 63.65C38.3 58.95 42.75 54.45 47.4 52.95C48.6 52.55 55 52.25 66.1 52.15L83 51.9L84 50.65C85.3 49 85.25 47 83.95 45.3L82.95 44L65.1 44.05C49.2 44.05 46.95 44.15 44.4 44.95ZM235.5 205.3C240.85 208.45 240.85 215.55 235.5 218.7C233.8 219.75 233.05 219.75 196.15 219.9L158.55 220.05L155.5 215.5C153.1 211.9 151.95 210.7 149.85 209.5L147.25 208H128H108.75L106.15 209.5C104.05 210.7 102.9 211.9 100.5 215.5L97.45 220.05L59.85 219.9C22.95 219.75 22.2 219.75 20.5 218.7C14.2 215.05 15.55 206.2 22.65 204.5C23.5 204.25 71.4 204.15 129 204.15C233.7 204.25 233.75 204.25 235.5 205.3ZM146.65 218L148.2 219.75L138.1 219.9C132.55 219.95 123.5 219.95 117.95 219.9L107.9 219.75L109 218.35C109.65 217.55 110.6 216.7 111.2 216.5C111.75 216.25 119.65 216.1 128.65 216.15L145.1 216.25L146.65 218Z" fill="#151515"/>
<path d="M50.7503 60.9499C49.6503 61.4499 48.0503 62.6499 47.1503 63.5499C43.8003 67.0999 44.0003 63.2499 44.0003 124.1C44.0003 176.75 44.0503 179.35 44.9503 181.25C45.4503 182.35 46.6503 183.95 47.5503 184.85C51.0503 188.15 49.1003 188 90.5003 188C127.35 188 128 188 129 187C129.65 186.35 130 185.35 130 184C130 182.65 129.65 181.65 129 181C128 180 127.35 180 92.2503 180C52.7503 180 53.6503 180.05 52.5503 177C52.1503 175.8 52.0003 161 52.0003 123.9C52.0003 67.2499 51.8503 69.6499 55.0003 68.5499C56.0003 68.2499 60.2003 67.9999 65.5003 67.9999C73.8003 67.9999 74.4003 67.9499 75.3003 66.9499C76.5503 65.5999 76.5503 62.3999 75.3003 61.0499C74.4003 60.0499 73.8503 59.9999 63.5503 59.9999C54.1003 59.9999 52.5003 60.1499 50.7503 60.9499Z" fill="#151515"/>
<path d="M81.3001 62.55C79.5501 63.95 79.4501 67.3 81.1501 68.9C82.2501 69.95 82.8001 70 90.0501 70C97.5501 70 97.8501 69.95 98.9001 68.85C100.55 67.1 100.4 63.9 98.7001 62.55C97.5001 61.6 96.7001 61.5 90.0001 61.5C83.3001 61.5 82.5001 61.6 81.3001 62.55Z" fill="#151515"/>
<path d="M165.3 62.55C164.25 63.35 164 64 164 65.75C164 67.5 164.25 68.15 165.3 68.95C166.5 69.9 167.3 70 174 70C180.7 70 181.5 69.9 182.7 68.95C183.75 68.15 184 67.5 184 65.75C184 64 183.75 63.35 182.7 62.55C181.5 61.6 180.7 61.5 174 61.5C167.3 61.5 166.5 61.6 165.3 62.55Z" fill="#151515"/>
<path d="M92.8492 84.7501C89.8492 86.5001 86.9992 88.3001 86.4492 88.8001C85.1992 89.9501 85.1992 93.0001 86.4492 94.5501C88.1492 96.6501 90.4992 96.1501 96.7492 92.5501C99.7992 90.8001 102.649 89.0001 103.149 88.6001C104.449 87.4501 104.299 83.9501 102.849 82.6C100.899 80.7501 98.8492 81.2001 92.8492 84.7501Z" fill="#151515"/>
<path d="M161.1 82.65C159.7 84.1 159.6 87.5 160.9 88.6C161.35 89 164.2 90.8 167.25 92.55C171.4 94.95 173.2 95.75 174.65 95.75C177.1 95.75 178.5 94.2 178.5 91.55C178.5 89.2 177.8 88.6 170.9 84.6C164.85 81.1 162.9 80.75 161.1 82.65Z" fill="#151515"/>
<path d="M94.8503 112.75C86.1503 115.15 78.5003 123 76.5003 131.6C75.8503 134.4 75.9003 141.65 76.5503 144.5C78.0503 151 83.8503 158.35 89.7503 161.2C95.2003 163.85 96.5003 164 113.05 164H128.35L131.55 175.3C133.4 181.9 135.2 187.4 135.9 188.5C138.4 192.35 144.05 194.55 148.75 193.5C152.15 192.75 152.75 192.35 157.65 187.6L162 183.3L167.15 188.35C172.75 193.85 174.35 194.6 178.35 193.55C181.2 192.8 189.2 184.55 189.7 181.85C190.4 178 189.75 176.65 184.35 171.15L179.35 166L183.9 161.3C187.8 157.3 188.55 156.2 189.25 153.8C191.05 147.6 187.55 140.4 181.8 138.5C180.05 137.95 180 137.85 180 135.35C180 133.9 179.45 131.25 178.8 129.45C175.85 121.1 169.25 114.95 160.95 112.75C157.15 111.7 98.5003 111.75 94.8503 112.75ZM160.1 121.4C163.45 122.75 167.55 126.25 169.2 129.2C170.5 131.45 171.75 134.95 171.35 135.3C171.25 135.4 161.95 132.95 150.65 129.75C137.15 125.95 129.35 124 127.7 124C123.15 124 120 127.15 120 131.7C120 133.2 121.2 138.35 123 144.85C124.65 150.7 126 155.6 126 155.75C126 156.2 103.4 156 100.15 155.55C93.7003 154.6 88.6503 151 86.0503 145.55C84.9503 143.15 84.7503 142.1 84.7503 138C84.7503 133.9 84.9503 132.85 86.0503 130.45C88.5503 125.15 93.7003 121.4 99.7003 120.5C101.1 120.25 114.65 120.15 129.75 120.2C157.15 120.25 157.25 120.25 160.1 121.4ZM154.4 139.75C167.7 143.45 179.05 146.75 179.55 147.05C180.5 147.55 181.5 149.4 181.5 150.6C181.5 150.9 178.7 154 175.25 157.5C166.85 166.05 166.85 165.5 175.1 173.85L181.2 180L178.6 182.6L176 185.2L169.85 179.1C161.5 170.85 162.05 170.85 153.5 179.25C150 182.7 146.9 185.5 146.6 185.5C145.4 185.5 143.55 184.5 143.05 183.55C142.75 183 139.45 171.7 135.75 158.4C132 145.1 128.85 133.85 128.7 133.35C128.45 132.6 128.6 132.45 129.35 132.7C129.85 132.85 141.15 136 154.4 139.75Z" fill="#151515"/>
</g>
</svg>
