<svg width="64" height="64" viewBox="0 0 64 64" fill="none" xmlns="http://www.w3.org/2000/svg">
<path d="M31.9996 64C48.6908 64 62.2218 50.469 62.2218 33.7778C62.2218 17.0865 48.6908 3.55554 31.9996 3.55554C15.3083 3.55554 1.77734 17.0865 1.77734 33.7778C1.77734 50.469 15.3083 64 31.9996 64Z" fill="#F4900C"/>
<path d="M31.9996 60.4444C48.6908 60.4444 62.2218 46.9135 62.2218 30.2222C62.2218 13.5309 48.6908 0 31.9996 0C15.3083 0 1.77734 13.5309 1.77734 30.2222C1.77734 46.9135 15.3083 60.4444 31.9996 60.4444Z" fill="#FFCC4D"/>
<path d="M32.0002 56.8889C45.746 56.8889 56.8891 45.7458 56.8891 32C56.8891 18.2542 45.746 7.11111 32.0002 7.11111C18.2545 7.11111 7.11133 18.2542 7.11133 32C7.11133 45.7458 18.2545 56.8889 32.0002 56.8889Z" fill="#FFE8B6"/>
<path d="M32.0002 55.1111C45.746 55.1111 56.8891 43.968 56.8891 30.2222C56.8891 16.4765 45.746 5.33334 32.0002 5.33334C18.2545 5.33334 7.11133 16.4765 7.11133 30.2222C7.11133 43.968 18.2545 55.1111 32.0002 55.1111Z" fill="#FFAC33"/>
<path d="M32.0006 14.832C32.0006 14.832 22.3029 19.4027 21.3357 19.8151C20.3669 20.2258 20.6904 20.9013 21.3375 20.9013H42.6175C43.6166 20.9013 43.3802 20.1387 42.5873 19.7262C41.7944 19.3156 32.0006 14.832 32.0006 14.832Z" fill="#FFAC33"/>
</svg>
