<svg width="110" height="110" viewBox="0 0 110 110" fill="none" xmlns="http://www.w3.org/2000/svg">
<path d="M36.0723 0.429688C25.373 2.36328 16.1348 9.25976 11.2793 18.9062C8.91602 23.6113 7.73438 28.7246 7.73438 34.3105C7.73438 45.1172 12.6973 55.1934 21.1621 61.5742C27.1777 66.0859 33 68.1699 41.0996 68.6426C42.9473 68.7715 43.3984 68.7285 43.3984 68.4922C43.3984 67.9121 45.8477 63.207 47.1582 61.2305C52.9375 52.6152 62.1113 47.0078 72.5312 45.6973L74.6152 45.4394L74.916 44.4727C77.2363 36.8027 76.7852 28.2305 73.6699 20.8398C69.3086 10.5488 60.1777 3.0293 49.0918 0.644531C45.9336 -0.0429688 39.2734 -0.150391 36.0723 0.429688ZM30.9375 23.8047C31.9688 24.3203 32.6562 25.416 32.6562 26.5332C32.6562 28.2949 31.0449 29.7773 29.3477 29.5625C27.1133 29.3047 25.7598 26.6406 27.0059 24.9648C28.0801 23.5039 29.5195 23.0742 30.9375 23.8047ZM55.7734 23.7617C57.3633 24.5137 57.9648 26.3184 57.1699 27.8867C56.6758 28.8535 55.4512 29.6484 54.4629 29.6484C53.4746 29.6484 52.25 28.8535 51.7559 27.8867C50.4238 25.2656 53.1309 22.5156 55.7734 23.7617ZM32.0762 42.3887C32.4629 42.5605 33.3008 43.1406 33.9453 43.6992C36.2227 45.6543 38.8652 46.6211 41.9805 46.6211C45.2461 46.6211 47.6953 45.7187 50.3594 43.5273C52.0996 42.0879 52.8516 41.8945 54.2266 42.4961C55.8594 43.2266 56.5469 45.0742 55.7734 46.5996C55.043 48.0176 51.6484 50.4668 48.9414 51.541C46.3848 52.5723 44.1504 52.916 41.1641 52.7871C38.0918 52.6367 36.6738 52.293 34.0098 51.0254C32.0332 50.0586 29.0898 47.9102 28.4668 46.9648C27.5 45.4824 28.0801 43.3555 29.7129 42.5605C30.7656 42.0234 31.1309 42.0019 32.0762 42.3887Z" fill="url(#paint0_linear_71_235)"/>
<path d="M72.7256 51.9063C72.4893 51.9707 71.5225 52.1641 70.5771 52.3359C67.2686 52.959 63.6592 54.4414 60.7373 56.3535C53.8623 60.8438 49.2002 67.8477 47.8037 75.8613C47.3311 78.5254 47.3311 83.252 47.8037 85.916C49.8662 97.7324 58.8467 106.971 70.6846 109.506C73.2842 110.064 79.9228 110.064 82.501 109.506C96.1221 106.563 105.704 94.7676 105.704 80.8887C105.704 67.1172 96.2295 55.3438 82.7158 52.3145C81.1475 51.9707 73.7353 51.6699 72.7256 51.9063ZM78.1826 64.2168C79.1709 64.9258 79.5576 65.6777 79.665 67.0313L79.751 68.3203H80.7178C81.9424 68.3203 82.9307 68.75 83.6396 69.5879C84.4775 70.5977 84.585 71.5645 83.9834 72.7676C83.1455 74.3789 82.6299 74.5508 78.29 74.5508C74.8955 74.5508 74.5732 74.5938 74.0361 75.002C73.3057 75.582 73.2627 76.6992 73.9502 77.3438C74.3584 77.709 74.7021 77.7734 76.5928 77.7734C77.8389 77.7734 79.2998 77.9023 80.0303 78.0957C82.6514 78.7832 84.6924 80.7168 85.5088 83.3379C86.0459 85.0566 86.0459 86.2598 85.4873 87.9141C84.6709 90.3418 83.2744 91.8457 80.8467 92.8555L79.708 93.3281V94.3594C79.708 95.6699 79.2998 96.6582 78.4619 97.3672C77.4736 98.2051 76.4209 98.3125 75.2393 97.7109C74.0361 97.0879 73.4775 96.1211 73.4775 94.5957V93.457H72.4463C71.0928 93.457 69.6748 92.7266 69.1377 91.7383C68.6436 90.8145 68.7295 89.375 69.3311 88.5371C70.1689 87.3984 70.8779 87.2266 74.9385 87.2266C78.5908 87.2266 78.6553 87.2266 79.1709 86.6895C79.9014 85.9805 79.8799 85.0352 79.1494 84.4551C78.6553 84.0684 78.2686 84.0039 76.3994 84.0039C75.2178 84.0039 73.7139 83.8535 73.0908 83.7031C70.7705 83.0801 68.9658 81.5547 67.9131 79.2988C67.4404 78.2676 67.3545 77.7949 67.3545 76.1621C67.3545 74.4004 67.4189 74.0781 68.0635 72.7891C68.9443 71.0059 70.4912 69.5664 72.2529 68.9219L73.4775 68.4707V67.2676C73.4775 65.6777 73.9932 64.7109 75.2178 64.0664C76.2705 63.5078 77.2803 63.5508 78.1826 64.2168Z" fill="url(#paint1_linear_71_235)"/>
<path d="M18.9922 69.8457C18.1758 70.4688 16.457 72.0371 15.1465 73.3477C9.3457 79.2129 5.75781 86.3887 4.61914 94.4238C4.4043 95.8633 4.29688 98.4844 4.29688 102.266C4.29688 108.539 4.31836 108.668 5.71484 109.592C6.31641 109.979 7.21875 110 31.3242 110H56.3106L54.7422 108.754C45.3535 101.277 40.3906 90.0195 41.2715 78.2246C41.4004 76.6348 41.5293 75.2598 41.5938 75.1738C41.6797 75.002 40.6699 74.873 37.9199 74.6582C33.0215 74.2715 27.2852 72.4668 22.5586 69.8672C21.5488 69.3086 20.668 68.8359 20.6035 68.793C20.5391 68.7715 19.8086 69.2441 18.9922 69.8457Z" fill="url(#paint2_linear_71_235)"/>
<defs>
<linearGradient id="paint0_linear_71_235" x1="42.0577" y1="68.714" x2="42.0577" y2="0.0541153" gradientUnits="userSpaceOnUse">
<stop stop-color="#F0642F"/>
<stop offset="1" stop-color="#F0A32F"/>
</linearGradient>
<linearGradient id="paint1_linear_71_235" x1="76.5767" y1="109.925" x2="76.5767" y2="51.822" gradientUnits="userSpaceOnUse">
<stop stop-color="#F0642F"/>
<stop offset="1" stop-color="#F0A32F"/>
</linearGradient>
<linearGradient id="paint2_linear_71_235" x1="30.3037" y1="110" x2="30.3037" y2="68.7923" gradientUnits="userSpaceOnUse">
<stop stop-color="#F0642F"/>
<stop offset="1" stop-color="#F0A32F"/>
</linearGradient>
</defs>
</svg>
