<svg width="110" height="110" viewBox="0 0 110 110" fill="none" xmlns="http://www.w3.org/2000/svg">
<g clip-path="url(#clip0_71_222)">
<path d="M41.8945 0.880859C41.8945 2.10547 42.9688 5.19922 44.4941 8.37891C45.8262 11.1289 47.8672 14.6094 48.1895 14.6094C48.2754 14.6094 48.834 14.3516 49.4355 14.0508C52.8086 12.3535 56.9766 12.2676 60.6934 13.8359L61.9824 14.373L62.4766 13.793C63.2715 12.8477 65.2695 9.41016 66.2793 7.24023C67.5254 4.55469 68.3633 1.93359 68.2773 0.923828C68.2129 0.171875 68.1484 0.107422 67.5254 0.0429688C66.9668 -0.0214844 66.6445 0.150391 65.8496 0.880859C65.291 1.39648 64.6035 2.21289 64.3242 2.70703C64.0234 3.22266 63.4004 3.97461 62.9062 4.4043C60.5645 6.53125 58.0293 6.53125 55.666 4.4043L54.8066 3.60938L53.9902 4.4043C52.9375 5.43555 52.207 5.80078 50.918 5.95117C50.0371 6.05859 49.6504 5.97266 48.6406 5.47852C47.6738 5.00586 47.2227 4.59766 46.4277 3.45898C45.8906 2.68555 44.9883 1.58984 44.4297 1.00977C43.5918 0.193359 43.248 0 42.6465 0C41.916 0 41.8945 0.0214844 41.8945 0.880859Z" fill="url(#paint0_linear_71_222)"/>
<path d="M52.122 16.4356C50.1669 17.2305 48.62 18.3477 46.4931 20.5176C42.0673 25.0078 38.7587 31.5605 38.2001 36.9746C37.8778 40.0254 38.2216 44.9238 38.9091 46.7285C40.4345 50.8105 45.87 52.4434 57.0204 52.1426C65.2489 51.9277 69.1591 50.6387 71.0282 47.5449C72.081 45.8047 72.2958 44.3223 72.2743 39.3164C72.2743 35.1484 72.2313 34.8047 71.6942 32.9785C69.8036 26.748 65.1845 20.2383 60.7587 17.5527C57.9228 15.834 54.6142 15.4043 52.122 16.4356ZM56.2899 25.7383V26.791L57.536 27.1348C59.4052 27.6719 59.4267 27.6934 58.954 28.9824C58.6532 29.8203 58.4813 30.0566 58.2235 29.9492C56.8915 29.3691 56.0536 29.1973 55.1728 29.2832C53.8622 29.3906 53.497 29.7129 53.497 30.7441C53.497 31.6895 53.7763 31.9258 56.2899 33.1504C58.202 34.0742 58.4169 34.2246 59.1688 35.3203C60.1356 36.7598 59.8134 39.252 58.5028 40.4336C58.288 40.6484 57.6435 41.0137 57.0849 41.25L56.0751 41.7012V42.8613V44.043H55.0009H53.9267V42.8828V41.7441L53.1103 41.6152C52.6376 41.5723 51.8212 41.3145 51.2626 41.0566C50.1669 40.584 50.1669 40.584 50.8329 38.9727L51.1122 38.2852L52.0145 38.7363C52.9813 39.209 54.6571 39.4453 55.538 39.2305C56.8056 38.9082 57.3212 37.5977 56.5907 36.5449C56.3974 36.2871 55.3661 35.6426 54.2704 35.1484C51.9071 34.0312 50.8114 32.957 50.5966 31.5391C50.3388 29.8633 51.37 28.166 53.0888 27.3926C53.9052 27.0059 53.9267 26.9844 53.9267 25.8457V24.707H55.1083H56.2899V25.7383Z" fill="url(#paint1_linear_71_222)"/>
<path d="M11.9238 33.4512C9.38867 34.3535 7.62695 35.9004 6.50977 38.2207C5.97266 39.3164 5.9082 39.6387 5.9082 41.7871C5.9082 43.9141 5.97266 44.2793 6.48828 45.3965C7.30469 47.1152 9.00195 48.8555 10.7207 49.6934C12.0742 50.3379 12.2676 50.3809 14.6094 50.3809C16.9512 50.3809 17.1445 50.3379 18.498 49.6934C21.377 48.2754 23.1816 45.5898 23.375 42.4102C23.5898 38.543 21.7852 35.5137 18.2832 33.8809C16.4785 33.0215 13.6641 32.8496 11.9238 33.4512Z" fill="url(#paint2_linear_71_222)"/>
<path d="M92.7051 33.4727C90.2129 34.332 88.4082 35.9004 87.291 38.2207C86.7539 39.3164 86.6895 39.6602 86.6895 41.7871C86.6895 43.9141 86.7539 44.2793 87.2695 45.3965C88.0645 47.0938 89.7188 48.7695 91.4805 49.6504C92.8555 50.3594 93.0059 50.3809 95.3906 50.3809C97.7324 50.3809 97.9258 50.3379 99.2793 49.6934C100.998 48.8555 102.695 47.1152 103.512 45.3965C104.027 44.2793 104.092 43.9141 104.092 41.7871C104.092 39.6602 104.027 39.3164 103.512 38.2422C101.9 34.9551 98.9141 33.0859 95.3477 33.0859C94.4453 33.1074 93.3281 33.2578 92.7051 33.4727Z" fill="url(#paint3_linear_71_222)"/>
<path d="M10.8281 54.5703C6.76758 55.623 3.24414 58.4805 1.41797 62.1758C0.214844 64.6035 0 65.8926 0 70.9414V75.4102H14.6094H29.2188V70.9414C29.2188 65.8926 29.0039 64.6035 27.8008 62.1758C25.9531 58.4375 22.4297 55.6016 18.3047 54.5488C16.1777 54.0117 12.9336 54.0117 10.8281 54.5703Z" fill="url(#paint4_linear_71_222)"/>
<path d="M91.6094 54.5703C87.5488 55.623 84.0254 58.4805 82.1992 62.1758C80.9961 64.6035 80.7812 65.8926 80.7812 70.9414V75.4102H95.3906H110V70.9414C110 65.8926 109.785 64.6035 108.582 62.1758C106.734 58.4375 103.211 55.6016 99.0859 54.5488C96.959 54.0117 93.7148 54.0117 91.6094 54.5703Z" fill="url(#paint5_linear_71_222)"/>
<path d="M41.4648 55.666C35.5996 57.6641 33.8379 58.3301 33.4727 58.6953C33.2148 58.9531 33.0859 59.4043 33.0859 60.0273C33.0859 60.8223 33.1934 61.0586 33.752 61.5312C34.1172 61.832 34.6328 62.0898 34.8906 62.0898C35.793 62.0898 45.2031 58.502 45.5898 57.9863C46.0625 57.4277 46.084 56.6758 45.6543 55.8809C45.0957 54.7852 44.1504 54.7422 41.4648 55.666Z" fill="url(#paint6_linear_71_222)"/>
<path d="M65.1193 55.7735C64.5607 56.4825 64.5392 57.5782 65.0548 58.2012C65.2697 58.4805 67.3966 59.4688 70.4689 60.7149C75.2384 62.6485 75.5607 62.7559 76.3127 62.5196C77.3009 62.2403 77.7736 61.5957 77.7736 60.5645C77.7736 58.9317 77.9025 59.0176 71.7365 56.8262C66.6877 55.043 65.8068 54.8926 65.1193 55.7735Z" fill="url(#paint7_linear_71_222)"/>
<path d="M54.1186 56.3965C53.3022 56.8477 53.1304 57.5996 53.2593 60.1133C53.3882 62.2188 53.4311 62.3692 53.9897 62.8633C54.8276 63.5723 55.73 63.5293 56.5249 62.7559C57.105 62.1543 57.1479 62.0254 57.1479 60.4356C57.1264 58.4161 56.8686 56.9981 56.4604 56.5899C56.0093 56.1172 54.7632 56.0098 54.1186 56.3965Z" fill="url(#paint8_linear_71_222)"/>
<path d="M52.5302 68.2559C50.1669 69.1152 48.4482 70.5332 47.4384 72.5098C45.1181 76.9785 46.9657 82.3496 51.5204 84.498C52.8525 85.1426 53.1103 85.1855 55.2157 85.1855C58.1376 85.1641 59.4052 84.6914 61.3173 82.9082C65.8505 78.6758 64.6904 71.3066 59.1044 68.6641C57.8798 68.1055 57.3857 67.998 55.6454 67.9551C54.0986 67.8906 53.3466 67.9766 52.5302 68.2559Z" fill="url(#paint9_linear_71_222)"/>
<path d="M51.5625 89.2891C47.6523 90.2988 44.0859 93.1348 42.2168 96.7012C40.9062 99.2148 40.6055 100.848 40.6055 105.746V110H55.3223H70.0391V106.326C70.0391 104.328 69.9316 101.965 69.8027 101.127C68.9434 95.4766 64.4102 90.5781 58.8672 89.2676C57.1055 88.8594 53.1523 88.8594 51.5625 89.2891Z" fill="url(#paint10_linear_71_222)"/>
</g>
<defs>
<linearGradient id="paint0_linear_71_222" x1="55.089" y1="14.6094" x2="55.089" y2="0" gradientUnits="userSpaceOnUse">
<stop stop-color="#F0642F"/>
<stop offset="1" stop-color="#F0A32F"/>
</linearGradient>
<linearGradient id="paint1_linear_71_222" x1="55.1769" y1="52.1774" x2="55.1769" y2="15.8818" gradientUnits="userSpaceOnUse">
<stop stop-color="#F0642F"/>
<stop offset="1" stop-color="#F0A32F"/>
</linearGradient>
<linearGradient id="paint2_linear_71_222" x1="14.6502" y1="50.3809" x2="14.6502" y2="33.095" gradientUnits="userSpaceOnUse">
<stop stop-color="#F0642F"/>
<stop offset="1" stop-color="#F0A32F"/>
</linearGradient>
<linearGradient id="paint3_linear_71_222" x1="95.3906" y1="50.3809" x2="95.3906" y2="33.0859" gradientUnits="userSpaceOnUse">
<stop stop-color="#F0642F"/>
<stop offset="1" stop-color="#F0A32F"/>
</linearGradient>
<linearGradient id="paint4_linear_71_222" x1="14.6094" y1="75.4102" x2="14.6094" y2="54.1486" gradientUnits="userSpaceOnUse">
<stop stop-color="#F0642F"/>
<stop offset="1" stop-color="#F0A32F"/>
</linearGradient>
<linearGradient id="paint5_linear_71_222" x1="95.3906" y1="75.4102" x2="95.3906" y2="54.1486" gradientUnits="userSpaceOnUse">
<stop stop-color="#F0642F"/>
<stop offset="1" stop-color="#F0A32F"/>
</linearGradient>
<linearGradient id="paint6_linear_71_222" x1="39.5236" y1="62.0898" x2="39.5236" y2="55.013" gradientUnits="userSpaceOnUse">
<stop stop-color="#F0642F"/>
<stop offset="1" stop-color="#F0A32F"/>
</linearGradient>
<linearGradient id="paint7_linear_71_222" x1="71.2287" y1="62.61" x2="71.2287" y2="55.249" gradientUnits="userSpaceOnUse">
<stop stop-color="#F0642F"/>
<stop offset="1" stop-color="#F0A32F"/>
</linearGradient>
<linearGradient id="paint8_linear_71_222" x1="55.1843" y1="63.3669" x2="55.1843" y2="56.1611" gradientUnits="userSpaceOnUse">
<stop stop-color="#F0642F"/>
<stop offset="1" stop-color="#F0A32F"/>
</linearGradient>
<linearGradient id="paint9_linear_71_222" x1="55.2729" y1="85.1855" x2="55.2729" y2="67.9348" gradientUnits="userSpaceOnUse">
<stop stop-color="#F0642F"/>
<stop offset="1" stop-color="#F0A32F"/>
</linearGradient>
<linearGradient id="paint10_linear_71_222" x1="55.3223" y1="110" x2="55.3223" y2="88.9641" gradientUnits="userSpaceOnUse">
<stop stop-color="#F0642F"/>
<stop offset="1" stop-color="#F0A32F"/>
</linearGradient>
<clipPath id="clip0_71_222">
<rect width="110" height="110" fill="white"/>
</clipPath>
</defs>
</svg>
