<svg width="110" height="118" viewBox="0 0 110 118" fill="none" xmlns="http://www.w3.org/2000/svg">
<path d="M72.7256 59.9063C72.4893 59.9707 71.5225 60.1641 70.5771 60.3359C67.2686 60.959 63.6592 62.4414 60.7373 64.3535C53.8623 68.8438 49.2002 75.8477 47.8037 83.8613C47.3311 86.5254 47.3311 91.252 47.8037 93.916C49.8662 105.732 58.8467 114.971 70.6846 117.506C73.2842 118.064 79.9228 118.064 82.501 117.506C96.1221 114.563 105.704 102.768 105.704 88.8887C105.704 75.1172 96.2295 63.3438 82.7158 60.3145C81.1475 59.9707 73.7353 59.6699 72.7256 59.9063ZM78.1826 72.2168C79.1709 72.9258 79.5576 73.6777 79.665 75.0313L79.751 76.3203H80.7178C81.9424 76.3203 82.9307 76.75 83.6396 77.5879C84.4775 78.5977 84.585 79.5645 83.9834 80.7676C83.1455 82.3789 82.6299 82.5508 78.29 82.5508C74.8955 82.5508 74.5732 82.5938 74.0361 83.002C73.3057 83.582 73.2627 84.6992 73.9502 85.3438C74.3584 85.709 74.7021 85.7734 76.5928 85.7734C77.8389 85.7734 79.2998 85.9023 80.0303 86.0957C82.6514 86.7832 84.6924 88.7168 85.5088 91.3379C86.0459 93.0566 86.0459 94.2598 85.4873 95.9141C84.6709 98.3418 83.2744 99.8457 80.8467 100.855L79.708 101.328V102.359C79.708 103.67 79.2998 104.658 78.4619 105.367C77.4736 106.205 76.4209 106.313 75.2393 105.711C74.0361 105.088 73.4775 104.121 73.4775 102.596V101.457H72.4463C71.0928 101.457 69.6748 100.727 69.1377 99.7383C68.6436 98.8145 68.7295 97.375 69.3311 96.5371C70.1689 95.3984 70.8779 95.2266 74.9385 95.2266C78.5908 95.2266 78.6553 95.2266 79.1709 94.6895C79.9014 93.9805 79.8799 93.0352 79.1494 92.4551C78.6553 92.0684 78.2685 92.0039 76.3994 92.0039C75.2178 92.0039 73.7139 91.8535 73.0908 91.7031C70.7705 91.0801 68.9658 89.5547 67.9131 87.2988C67.4404 86.2676 67.3545 85.7949 67.3545 84.1621C67.3545 82.4004 67.4189 82.0781 68.0635 80.7891C68.9443 79.0059 70.4912 77.5664 72.2529 76.9219L73.4775 76.4707V75.2676C73.4775 73.6777 73.9932 72.7109 75.2178 72.0664C76.2705 71.5078 77.2803 71.5508 78.1826 72.2168Z" fill="url(#paint0_linear_71_240)"/>
<path d="M18.9922 77.8457C18.1758 78.4688 16.457 80.0371 15.1465 81.3477C9.3457 87.2129 5.75781 94.3887 4.61914 102.424C4.4043 103.863 4.29688 106.484 4.29688 110.266C4.29688 116.539 4.31836 116.668 5.71484 117.592C6.31641 117.979 7.21875 118 31.3242 118H56.3106L54.7422 116.754C45.3535 109.277 40.3906 98.0195 41.2715 86.2246C41.4004 84.6348 41.5293 83.2598 41.5938 83.1738C41.6797 83.002 40.6699 82.873 37.9199 82.6582C33.0215 82.2715 27.2852 80.4668 22.5586 77.8672C21.5488 77.3086 20.668 76.8359 20.6035 76.793C20.5391 76.7715 19.8086 77.2441 18.9922 77.8457Z" fill="url(#paint1_linear_71_240)"/>
<path fill-rule="evenodd" clip-rule="evenodd" d="M58.5646 12.1676C55.6394 10.5645 52.4556 9.36811 49.0918 8.64449C45.9336 7.95699 39.2734 7.84957 36.0723 8.42965C25.373 10.3632 16.1348 17.2597 11.2793 26.9062C8.91602 31.6113 7.73438 36.7246 7.73438 42.3105C7.73438 53.1171 12.6973 63.1933 21.1621 69.5742C27.1777 74.0859 33 76.1699 41.0996 76.6425C42.9473 76.7715 43.3984 76.7285 43.3984 76.4922C43.3984 75.9121 45.8477 71.207 47.1582 69.2304C52.9375 60.6152 62.1113 55.0078 72.5312 53.6972L74.6152 53.4394L74.916 52.4726C75.4368 50.751 75.818 48.984 76.0608 47.1951C64.9183 44.1447 56.7296 33.9469 56.7296 21.8365C56.7296 18.4224 57.3803 15.1604 58.5646 12.1676ZM32.6562 34.5332C32.6562 33.416 31.9688 32.3203 30.9375 31.8047C29.5195 31.0742 28.0801 31.5039 27.0059 32.9648C25.7598 34.6406 27.1133 37.3046 29.3477 37.5625C31.0449 37.7773 32.6562 36.2949 32.6562 34.5332ZM57.1699 35.8867C57.9648 34.3183 57.3633 32.5136 55.7734 31.7617C53.1309 30.5156 50.4238 33.2656 51.7559 35.8867C52.25 36.8535 53.4746 37.6484 54.4629 37.6484C55.4512 37.6484 56.6758 36.8535 57.1699 35.8867ZM33.9453 51.6992C33.3008 51.1406 32.4629 50.5605 32.0762 50.3886C31.1309 50.0019 30.7656 50.0234 29.7129 50.5605C28.0801 51.3554 27.5 53.4824 28.4668 54.9648C29.0898 55.9101 32.0332 58.0586 34.0098 59.0254C36.6738 60.2929 38.0918 60.6367 41.1641 60.7871C44.1504 60.916 46.3848 60.5722 48.9414 59.541C51.6484 58.4668 55.043 56.0175 55.7734 54.5996C56.5469 53.0742 55.8594 51.2265 54.2266 50.4961C52.8516 49.8945 52.0996 50.0879 50.3594 51.5273C47.6953 53.7187 45.2461 54.6211 41.9805 54.6211C38.8652 54.6211 36.2227 53.6543 33.9453 51.6992Z" fill="url(#paint2_linear_71_240)"/>
<path fill-rule="evenodd" clip-rule="evenodd" d="M83.0188 43.283C94.8634 43.283 104.465 33.6811 104.465 21.8365C104.465 9.9919 94.8634 0.389954 83.0188 0.389954C71.1742 0.389954 61.5723 9.9919 61.5723 21.8365C61.5723 33.6811 71.1742 43.283 83.0188 43.283ZM80.044 14.0493C79.3135 13.6508 78.4667 13.4516 77.5037 13.4516C76.524 13.4516 75.6689 13.6508 74.9384 14.0493C74.2078 14.4312 73.635 14.9791 73.2199 15.6931C72.8214 16.4071 72.6221 17.2373 72.6221 18.1837C72.6221 19.1301 72.8214 19.9603 73.2199 20.6742C73.635 21.3882 74.2078 21.9444 74.9384 22.3429C75.6689 22.7248 76.524 22.9157 77.5037 22.9157C78.4667 22.9157 79.3135 22.7248 80.044 22.3429C80.7746 21.9444 81.3391 21.3965 81.7376 20.6991C82.1527 19.9852 82.3603 19.1467 82.3603 18.1837C82.3603 17.2373 82.1527 16.4071 81.7376 15.6931C81.3391 14.9791 80.7746 14.4312 80.044 14.0493ZM76.8312 16.9135C77.0138 16.7973 77.2297 16.7391 77.4787 16.7391C77.761 16.7391 77.9852 16.7973 78.1512 16.9135C78.3338 17.0131 78.475 17.1791 78.5746 17.4116C78.6742 17.6274 78.724 17.8848 78.724 18.1837C78.724 18.4825 78.6742 18.7482 78.5746 18.9806C78.475 19.1965 78.3338 19.3625 78.1512 19.4788C77.9852 19.5784 77.761 19.6282 77.4787 19.6282C77.2297 19.6282 77.0138 19.5784 76.8312 19.4788C76.6486 19.3625 76.5074 19.1965 76.4078 18.9806C76.3082 18.7482 76.2584 18.4825 76.2584 18.1837C76.2584 17.8848 76.3082 17.6274 76.4078 17.4116C76.5074 17.1791 76.6486 17.0131 76.8312 16.9135ZM93.0448 21.521C92.3142 21.1225 91.4591 20.9233 90.4795 20.9233C89.4999 20.9233 88.6448 21.1225 87.9142 21.521C87.1837 21.9029 86.6108 22.4508 86.1957 23.1648C85.7972 23.8622 85.598 24.6923 85.598 25.6554C85.598 26.6018 85.7972 27.432 86.1957 28.1459C86.6108 28.8599 87.1837 29.4161 87.9142 29.8146C88.6448 30.1965 89.4999 30.3874 90.4795 30.3874C91.4591 30.3874 92.3142 30.1965 93.0448 29.8146C93.7754 29.4161 94.3399 28.8599 94.7384 28.1459C95.1535 27.432 95.361 26.6018 95.361 25.6554C95.361 24.709 95.1535 23.8788 94.7384 23.1648C94.3399 22.4508 93.7754 21.9029 93.0448 21.521ZM89.807 24.3852C89.9897 24.2689 90.2138 24.2108 90.4795 24.2108C90.7452 24.2108 90.9693 24.2689 91.152 24.3852C91.3346 24.4848 91.4757 24.6425 91.5754 24.8584C91.675 25.0742 91.7248 25.3399 91.7248 25.6554C91.7248 25.9542 91.675 26.2199 91.5754 26.4523C91.4757 26.6682 91.3346 26.8342 91.152 26.9505C90.9693 27.0501 90.7452 27.0999 90.4795 27.0999C90.2138 27.0999 89.9897 27.0501 89.807 26.9505C89.6244 26.8342 89.4833 26.6682 89.3837 26.4523C89.284 26.2199 89.2342 25.9542 89.2342 25.6554C89.2342 25.3399 89.284 25.0742 89.3837 24.8584C89.4833 24.6425 89.6244 24.4848 89.807 24.3852ZM90.831 15.2048C90.2907 14.6645 89.4146 14.6645 88.8743 15.2048L75.6951 28.384C75.1548 28.9243 75.1548 29.8004 75.6951 30.3407C76.2355 30.8811 77.1116 30.8811 77.6519 30.3407L90.831 17.1616C91.3714 16.6212 91.3714 15.7452 90.831 15.2048Z" fill="url(#paint3_linear_71_240)"/>
<defs>
<linearGradient id="paint0_linear_71_240" x1="76.5767" y1="117.925" x2="76.5767" y2="59.822" gradientUnits="userSpaceOnUse">
<stop stop-color="#F0642F"/>
<stop offset="1" stop-color="#F0A32F"/>
</linearGradient>
<linearGradient id="paint1_linear_71_240" x1="30.3037" y1="118" x2="30.3037" y2="76.7923" gradientUnits="userSpaceOnUse">
<stop stop-color="#F0642F"/>
<stop offset="1" stop-color="#F0A32F"/>
</linearGradient>
<linearGradient id="paint2_linear_71_240" x1="41.8976" y1="8.05408" x2="41.8976" y2="76.714" gradientUnits="userSpaceOnUse">
<stop stop-color="#F0642F"/>
<stop offset="1" stop-color="#F0A32F"/>
</linearGradient>
<linearGradient id="paint3_linear_71_240" x1="83.0188" y1="0.389954" x2="83.0188" y2="43.283" gradientUnits="userSpaceOnUse">
<stop stop-color="#F0642F"/>
<stop offset="1" stop-color="#F0A32F"/>
</linearGradient>
</defs>
</svg>
