<svg width="22" height="22" viewBox="0 0 22 22" fill="none" xmlns="http://www.w3.org/2000/svg">
<path fill-rule="evenodd" clip-rule="evenodd" d="M9.6153 3.47233C10.5177 2.56978 11.7417 2.06265 13.018 2.0625H15.493C15.6753 2.0625 15.8502 2.13493 15.9791 2.26386C16.108 2.3928 16.1805 2.56766 16.1805 2.75V6.05C16.1805 6.23234 16.108 6.4072 15.9791 6.53614C15.8502 6.66507 15.6753 6.7375 15.493 6.7375H13.018C12.9999 6.7375 12.982 6.74106 12.9653 6.74797C12.9487 6.75488 12.9335 6.765 12.9207 6.77777C12.908 6.79054 12.8978 6.8057 12.8909 6.82238C12.884 6.83906 12.8805 6.85694 12.8805 6.875V8.6625H15.493C15.5975 8.66244 15.7006 8.68621 15.7946 8.73201C15.8885 8.77781 15.9708 8.84442 16.0352 8.92679C16.0995 9.00916 16.1442 9.10511 16.1659 9.20735C16.1876 9.3096 16.1857 9.41544 16.1603 9.51683L15.3353 12.8168C15.2981 12.9656 15.2122 13.0977 15.0913 13.192C14.9703 13.2864 14.8213 13.3376 14.668 13.3375H12.8805V19.25C12.8805 19.4323 12.808 19.6072 12.6791 19.7361C12.5502 19.8651 12.3753 19.9375 12.193 19.9375H8.89297C8.71063 19.9375 8.53576 19.8651 8.40683 19.7361C8.2779 19.6072 8.20547 19.4323 8.20547 19.25V13.3375H6.41797C6.23563 13.3375 6.06076 13.2651 5.93183 13.1361C5.8029 13.0072 5.73047 12.8323 5.73047 12.65V9.35C5.73047 9.25972 5.74825 9.17032 5.7828 9.08691C5.81735 9.00349 5.86799 8.9277 5.93183 8.86386C5.99567 8.80002 6.07146 8.74938 6.15487 8.71483C6.23829 8.68028 6.32768 8.6625 6.41797 8.6625H8.20547V6.875C8.20562 5.5987 8.71275 4.37474 9.6153 3.47233ZM13.018 3.4375C12.1063 3.4375 11.2319 3.79966 10.5873 4.44432C9.94263 5.08898 9.58047 5.96332 9.58047 6.875V9.35C9.58047 9.53234 9.50804 9.70721 9.3791 9.83614C9.25017 9.96507 9.0753 10.0375 8.89297 10.0375H7.10547V11.9625H8.89297C9.0753 11.9625 9.25017 12.0349 9.3791 12.1639C9.50804 12.2928 9.58047 12.4677 9.58047 12.65V18.5625H11.5055V12.65C11.5055 12.4677 11.5779 12.2928 11.7068 12.1639C11.8358 12.0349 12.0106 11.9625 12.193 11.9625H14.1308L14.6121 10.0375H12.193C12.0106 10.0375 11.8358 9.96507 11.7068 9.83614C11.5779 9.70721 11.5055 9.53234 11.5055 9.35V6.875C11.5055 6.47386 11.6648 6.08915 11.9485 5.8055C12.2321 5.52185 12.6168 5.3625 13.018 5.3625H14.8055V3.4375H13.018Z" fill="white"/>
</svg>
