<svg width="20" height="20" viewBox="0 0 20 20" fill="none" xmlns="http://www.w3.org/2000/svg">
<path d="M4.3 6.11245C5.3 6.11245 6.1 5.29995 6.1 4.31245C6.1 3.32495 5.2875 2.51245 4.3 2.51245C3.3125 2.51245 2.5 3.32495 2.5 4.31245C2.5 5.29995 3.3125 6.11245 4.3 6.11245ZM7.8125 7.47495V17.5H10.9125V12.55C10.9125 11.2375 11.1625 9.97495 12.775 9.97495C14.3875 9.97495 14.3875 11.475 14.3875 12.625V17.5H17.5V12C17.5 9.29995 16.925 7.22495 13.775 7.22495C12.2625 7.22495 11.25 8.04995 10.8375 8.83745H10.8V7.46245H7.825L7.8125 7.47495ZM2.75 7.47495H5.8625V17.5H2.75V7.47495Z" fill="black"/>
</svg>
