<svg width="16" height="16" viewBox="0 0 16 16" fill="none" xmlns="http://www.w3.org/2000/svg">
<path d="M8.00344 3.89209C5.73444 3.89209 3.89844 5.73109 3.89844 7.99709C3.89844 10.2651 5.73744 12.1021 8.00344 12.1021C10.2724 12.1021 12.1084 10.2631 12.1084 7.99709C12.1084 5.72809 10.2694 3.89209 8.00344 3.89209ZM8.00344 10.6621C6.53144 10.6621 5.33844 9.46909 5.33844 7.99709C5.33844 6.52509 6.53144 5.33209 8.00344 5.33209C9.47544 5.33209 10.6684 6.52409 10.6684 7.99709C10.6684 9.46909 9.47544 10.6621 8.00344 10.6621Z" fill="white"/>
<path d="M11.2992 0.050143C9.82718 -0.018857 6.18118 -0.015857 4.70718 0.050143C3.41218 0.111143 2.27018 0.424143 1.35018 1.34414C-0.188815 2.88314 0.00818456 4.95614 0.00818456 7.99714C0.00818456 11.1091 -0.164815 13.1351 1.35018 14.6501C2.89418 16.1941 4.99818 15.9921 8.00318 15.9921C11.6862 15.9921 15.7162 16.3451 15.9502 11.2931C16.0192 9.82014 16.0162 6.17514 15.9502 4.70214C15.8182 1.89314 14.3102 0.190143 11.2992 0.050143ZM13.6282 13.6321C12.6192 14.6411 11.2202 14.5511 7.98218 14.5511C4.64918 14.5511 3.31218 14.6001 2.33618 13.6221C1.21218 12.5041 1.41618 10.7081 1.41618 7.98714C1.41618 1.33714 1.79718 1.42214 7.97218 1.42214L8.00218 1.44214C14.6242 1.44214 14.5562 1.87114 14.5562 7.99714C14.5572 11.2911 14.6202 12.6361 13.6282 13.6321Z" fill="white"/>
<path d="M12.2715 4.689C12.8011 4.689 13.2305 4.25964 13.2305 3.73C13.2305 3.20035 12.8011 2.771 12.2715 2.771C11.7419 2.771 11.3125 3.20035 11.3125 3.73C11.3125 4.25964 11.7419 4.689 12.2715 4.689Z" fill="white"/>
</svg>
