<svg width="20" height="20" viewBox="0 0 20 20" fill="none" xmlns="http://www.w3.org/2000/svg">
<path d="M4.3 6.1127C5.3 6.1127 6.1 5.3002 6.1 4.3127C6.1 3.3252 5.2875 2.5127 4.3 2.5127C3.3125 2.5127 2.5 3.3252 2.5 4.3127C2.5 5.3002 3.3125 6.1127 4.3 6.1127ZM7.8125 7.4752V17.5002H10.9125V12.5502C10.9125 11.2377 11.1625 9.9752 12.775 9.9752C14.3875 9.9752 14.3875 11.4752 14.3875 12.6252V17.5002H17.5V12.0002C17.5 9.3002 16.925 7.2252 13.775 7.2252C12.2625 7.2252 11.25 8.0502 10.8375 8.8377H10.8V7.4627H7.825L7.8125 7.4752ZM2.75 7.4752H5.8625V17.5002H2.75V7.4752Z" fill="white"/>
</svg>
