<svg width="32" height="32" viewBox="0 0 32 32" fill="none" xmlns="http://www.w3.org/2000/svg">
<path fill-rule="evenodd" clip-rule="evenodd" d="M6.66797 26.6668C5.6071 26.6668 4.58969 26.2454 3.83954 25.4953C3.0894 24.7451 2.66797 23.7277 2.66797 22.6668V9.3335C2.66797 8.27263 3.0894 7.25521 3.83954 6.50507C4.58969 5.75492 5.6071 5.3335 6.66797 5.3335H25.3346C26.3955 5.3335 27.4129 5.75492 28.1631 6.50507C28.9132 7.25521 29.3346 8.27263 29.3346 9.3335V22.6668C29.3346 23.7277 28.9132 24.7451 28.1631 25.4953C27.4129 26.2454 26.3955 26.6668 25.3346 26.6668H6.66797ZM10.168 10.9602C10.0321 10.8442 9.87441 10.7567 9.70412 10.7028C9.53383 10.649 9.35446 10.6299 9.17665 10.6467C8.99884 10.6635 8.82622 10.7159 8.66904 10.8007C8.51186 10.8855 8.37332 11.001 8.26164 11.1404C8.14996 11.2798 8.06742 11.4402 8.01892 11.612C7.97042 11.7839 7.95694 11.9638 7.9793 12.141C8.00165 12.3182 8.05938 12.4891 8.14905 12.6436C8.23872 12.798 8.35851 12.9329 8.5013 13.0402L13.5013 17.0415C14.2108 17.6095 15.0925 17.919 16.0013 17.919C16.9101 17.919 17.7919 17.6095 18.5013 17.0415L23.5013 13.0415C23.6381 12.9321 23.7519 12.7968 23.8364 12.6433C23.9208 12.4899 23.9742 12.3213 23.9936 12.1472C24.0129 11.9732 23.9977 11.797 23.9489 11.6288C23.9002 11.4605 23.8187 11.3036 23.7093 11.1668C23.5999 11.0301 23.4646 10.9162 23.3111 10.8318C23.1577 10.7473 22.9891 10.6939 22.815 10.6746C22.641 10.6553 22.4648 10.6704 22.2966 10.7192C22.1283 10.768 21.9714 10.8494 21.8346 10.9588L16.8346 14.9588C16.5982 15.1482 16.3042 15.2513 16.0013 15.2513C15.6984 15.2513 15.4045 15.1482 15.168 14.9588L10.168 10.9588V10.9602Z" fill="#F0642F"/>
</svg>
