<svg width="264" height="197" viewBox="0 0 264 197" fill="none" xmlns="http://www.w3.org/2000/svg">
<g filter="url(#filter0_d_86_3946)">
<path d="M75.3914 89.6587L75.3934 89.6575C80.7938 86.6244 84.9382 82.2937 87.8205 76.6769C90.7032 71.0594 92.1333 64.3177 92.1333 56.4704C92.1333 48.6232 90.7032 41.8815 87.8205 36.2639C84.9384 30.6474 80.7938 26.3524 75.3925 23.3919C70.0634 20.3583 63.7165 18.8524 56.3713 18.8524C49.0252 18.8524 42.6428 20.3586 37.2422 23.3912C31.8403 26.3517 27.6952 30.6469 24.8128 36.2639C21.9301 41.8815 20.5 48.6232 20.5 56.4704C20.5 64.3177 21.9301 71.0594 24.8128 76.6769C27.6951 82.2937 31.8395 86.6244 37.2399 89.6576L37.2445 89.6601C42.6446 92.619 49.0261 94.0884 56.3713 94.0884C63.7162 94.0884 70.0626 92.6191 75.3914 89.6587ZM42.5377 44.3109L42.5389 44.3075C43.7486 41.0341 45.5133 38.6154 47.8143 37.0116C50.1171 35.4067 52.9598 34.5905 56.3713 34.5905C59.7833 34.5905 62.5863 35.4069 64.8131 37.0074L64.8131 37.0074L64.819 37.0116C67.1201 38.6154 68.8847 41.0341 70.0944 44.3075L70.0957 44.3109C71.3048 47.5114 71.9193 51.5587 71.9193 56.4704C71.9193 61.3078 71.3052 65.3572 70.0944 68.6334C68.8847 71.9068 67.1201 74.3255 64.819 75.9293L64.819 75.9292L64.8131 75.9335C62.5863 77.534 59.7833 78.3504 56.3713 78.3504C52.9599 78.3504 50.1171 77.5342 47.8143 75.9293C45.5133 74.3255 43.7486 71.9068 42.5389 68.6334C41.3281 65.3572 40.714 61.3078 40.714 56.4704C40.714 51.5587 41.3286 47.5114 42.5377 44.3109ZM170.005 20.4442V19.9442H169.505H152.911H152.411V20.4442V56.7979V56.8061L152.412 56.8143L152.782 68.1219L148.226 59.1908L148.22 59.1798L148.214 59.1691L125.834 20.1952L125.69 19.9442H125.4H104.549H104.049V20.4442V92.4967V92.9967H104.549H121.143H121.643V92.4967V56.1429V56.1347L121.642 56.1265L121.272 44.819L125.828 53.7501L125.834 53.7611L125.84 53.7718L148.22 92.7457L148.364 92.9967H148.654H169.505H170.005V92.4967V20.4442ZM184.967 92.4967V92.9967H185.467H243H243.5V92.4967V77.977V77.477H243H204.744V63.739H233.939H234.439V63.239V49.5927V49.0927H233.939H204.744V35.4638H241.581H242.081V34.9638V20.4442V19.9442H241.581H185.467H184.967V20.4442V92.4967Z" fill="white" stroke="#F0642F"/>
<path d="M51.5678 101.503C62.8487 101.503 71.4732 104.633 77.4412 110.892C83.4819 117.151 86.5023 126.03 86.5023 137.53C86.5023 149.029 83.4819 157.908 77.4412 164.167C71.4732 170.426 62.8487 173.556 51.5678 173.556H21V101.503H51.5678ZM49.7119 159.364C55.8254 159.364 60.265 157.544 63.0307 153.905C65.8691 150.193 67.2883 144.735 67.2883 137.53C67.2883 130.324 65.8691 124.902 63.0307 121.263C60.265 117.551 55.8254 115.695 49.7119 115.695H39.7773V159.364H49.7119Z" fill="url(#paint0_linear_86_3946)"/>
<path d="M162.351 101.503V144.189C162.351 154.378 159.622 162.02 154.163 167.115C148.778 172.137 140.772 174.648 130.146 174.648C119.593 174.648 111.587 172.137 106.128 167.115C100.67 162.02 97.9405 154.378 97.9405 144.189V101.503H116.827V144.516C116.827 149.684 117.919 153.541 120.102 156.089C122.358 158.636 125.706 159.91 130.146 159.91C134.658 159.91 138.006 158.636 140.189 156.089C142.446 153.541 143.574 149.684 143.574 144.516V101.503H162.351Z" fill="url(#paint1_linear_86_3946)"/>
<path d="M241.823 101.503V173.556H220.971L198.591 134.582L193.133 123.883H193.024L193.46 137.202V173.556H176.867V101.503H197.718L220.098 140.477L225.557 151.176H225.666L225.229 137.857V101.503H241.823Z" fill="url(#paint2_linear_86_3946)"/>
</g>
<defs>
<filter id="filter0_d_86_3946" x="0.0449429" y="0.392896" width="263.91" height="196.205" filterUnits="userSpaceOnUse" color-interpolation-filters="sRGB">
<feFlood flood-opacity="0" result="BackgroundImageFix"/>
<feColorMatrix in="SourceAlpha" type="matrix" values="0 0 0 0 0 0 0 0 0 0 0 0 0 0 0 0 0 0 127 0" result="hardAlpha"/>
<feOffset dy="1.99551"/>
<feGaussianBlur stdDeviation="9.97753"/>
<feComposite in2="hardAlpha" operator="out"/>
<feColorMatrix type="matrix" values="0 0 0 0 0 0 0 0 0 0 0 0 0 0 0 0 0 0 0.15 0"/>
<feBlend mode="normal" in2="BackgroundImageFix" result="effect1_dropShadow_86_3946"/>
<feBlend mode="normal" in="SourceGraphic" in2="effect1_dropShadow_86_3946" result="shape"/>
</filter>
<linearGradient id="paint0_linear_86_3946" x1="131.481" y1="81.5796" x2="131.481" y2="190.75" gradientUnits="userSpaceOnUse">
<stop stop-color="#FF8543"/>
<stop offset="1" stop-color="#FF388A"/>
</linearGradient>
<linearGradient id="paint1_linear_86_3946" x1="131.481" y1="81.5796" x2="131.481" y2="190.75" gradientUnits="userSpaceOnUse">
<stop stop-color="#FF8543"/>
<stop offset="1" stop-color="#FF388A"/>
</linearGradient>
<linearGradient id="paint2_linear_86_3946" x1="131.481" y1="81.5796" x2="131.481" y2="190.75" gradientUnits="userSpaceOnUse">
<stop stop-color="#FF8543"/>
<stop offset="1" stop-color="#FF388A"/>
</linearGradient>
</defs>
</svg>
