<svg width="189" height="142" viewBox="0 0 189 142" fill="none" xmlns="http://www.w3.org/2000/svg">
<g filter="url(#filter0_d_90_5339)">
<path d="M54.0285 64.7451L54.0299 64.7443C57.8955 62.5732 60.862 59.4733 62.9251 55.4529C64.9885 51.4319 66.0122 46.6063 66.0122 40.9893C66.0122 35.3723 64.9885 30.5467 62.9251 26.5257C60.8621 22.5055 57.8954 19.4312 54.0292 17.3121C50.2148 15.1406 45.6717 14.0628 40.4141 14.0628C35.1558 14.0628 30.5874 15.1408 26.7217 17.3115C22.8551 19.4307 19.8881 22.5051 17.8249 26.5257C15.7615 30.5467 14.7378 35.3723 14.7378 40.9893C14.7378 46.6063 15.7615 51.4319 17.8249 55.4529C19.888 59.4733 22.8545 62.5732 26.72 64.7443L26.7233 64.7461C30.5887 66.8641 35.1565 67.9159 40.4141 67.9159C45.6715 67.9159 50.2142 66.8642 54.0285 64.7451ZM30.5121 32.2856L30.513 32.2832C31.3789 29.9401 32.642 28.2089 34.2891 27.0609C35.9374 25.9121 37.9722 25.3279 40.4141 25.3279C42.8563 25.3279 44.8627 25.9122 46.4566 27.0579L46.4566 27.0579L46.4609 27.0609C48.108 28.2089 49.3711 29.9401 50.237 32.2832L50.2379 32.2856C51.1033 34.5765 51.5432 37.4736 51.5432 40.9893C51.5432 44.4518 51.1036 47.3504 50.237 49.6954C49.3711 52.0385 48.108 53.7698 46.4609 54.9177L46.4609 54.9177L46.4566 54.9207C44.8627 56.0664 42.8563 56.6508 40.4141 56.6508C37.9722 56.6508 35.9374 56.0665 34.2891 54.9177C32.642 53.7698 31.3789 52.0385 30.513 49.6954C29.6464 47.3504 29.2068 44.4518 29.2068 40.9893C29.2068 37.4736 29.6467 34.5765 30.5121 32.2856ZM121.752 15.2021V14.8442H121.394H109.516H109.159V15.2021V41.2237H109.158L109.159 41.2355L109.424 49.3292L106.162 42.9365L106.158 42.9286L106.154 42.921L90.1347 15.0239L90.0315 14.8442H89.8243H74.899H74.5411V15.2021V66.7766V67.1344H74.899H86.7768H87.1347V66.7766V40.7549H87.1348L87.1345 40.7432L86.8691 32.6494L90.1307 39.0421L90.1347 39.05L90.1391 39.0577L106.158 66.9548L106.262 67.1344H106.469H121.394H121.752V66.7766V15.2021ZM132.462 66.7766V67.1344H132.82H174.001H174.359V66.7766V56.3835V56.0256H174.001H146.618V46.1921H167.515H167.873V45.8342V36.0663V35.7084H167.515H146.618V25.953H172.985H173.343V25.5951V15.2021V14.8442H172.985H132.82H132.462V15.2021V66.7766Z" fill="white" stroke="#F0642F" stroke-width="0.715789"/>
<path d="M36.9758 73.2234C45.0506 73.2234 51.2239 75.4635 55.4957 79.9437C59.8196 84.4239 61.9816 90.7795 61.9816 99.0106C61.9816 107.242 59.8196 113.597 55.4957 118.078C51.2239 122.558 45.0506 124.798 36.9758 124.798H15.0957V73.2234H36.9758ZM35.6473 114.639C40.0234 114.639 43.2012 113.337 45.1808 110.732C47.2125 108.075 48.2284 104.168 48.2284 99.0106C48.2284 93.8532 47.2125 89.9721 45.1808 87.3673C43.2012 84.7104 40.0234 83.382 35.6473 83.382H28.5363V114.639H35.6473Z" fill="url(#paint0_linear_90_5339)"/>
<path d="M116.273 73.2234V103.777C116.273 111.071 114.32 116.541 110.413 120.187C106.558 123.782 100.827 125.579 93.2211 125.579C85.6673 125.579 79.9368 123.782 76.0296 120.187C72.1225 116.541 70.1689 111.071 70.1689 103.777V73.2234H83.6877V104.012C83.6877 107.711 84.4691 110.472 86.032 112.295C87.6469 114.118 90.0433 115.03 93.2211 115.03C96.451 115.03 98.8474 114.118 100.41 112.295C102.025 110.472 102.833 107.711 102.833 104.012V73.2234H116.273Z" fill="url(#paint1_linear_90_5339)"/>
<path d="M173.158 73.2234V124.798H158.233L142.214 96.9008L138.307 89.2427H138.229L138.541 98.7762V124.798H126.663V73.2234H141.589L157.608 101.12L161.515 108.779H161.593L161.281 99.2451V73.2234H173.158Z" fill="url(#paint2_linear_90_5339)"/>
</g>
<defs>
<filter id="filter0_d_90_5339" x="0.0972404" y="0.849577" width="188.903" height="140.442" filterUnits="userSpaceOnUse" color-interpolation-filters="sRGB">
<feFlood flood-opacity="0" result="BackgroundImageFix"/>
<feColorMatrix in="SourceAlpha" type="matrix" values="0 0 0 0 0 0 0 0 0 0 0 0 0 0 0 0 0 0 127 0" result="hardAlpha"/>
<feOffset dy="1.42836"/>
<feGaussianBlur stdDeviation="7.14181"/>
<feComposite in2="hardAlpha" operator="out"/>
<feColorMatrix type="matrix" values="0 0 0 0 0 0 0 0 0 0 0 0 0 0 0 0 0 0 0.15 0"/>
<feBlend mode="normal" in2="BackgroundImageFix" result="effect1_dropShadow_90_5339"/>
<feBlend mode="normal" in="SourceGraphic" in2="effect1_dropShadow_90_5339" result="shape"/>
</filter>
<linearGradient id="paint0_linear_90_5339" x1="94.1767" y1="58.9623" x2="94.1767" y2="137.105" gradientUnits="userSpaceOnUse">
<stop stop-color="#FF8543"/>
<stop offset="1" stop-color="#FF388A"/>
</linearGradient>
<linearGradient id="paint1_linear_90_5339" x1="94.1767" y1="58.9623" x2="94.1767" y2="137.105" gradientUnits="userSpaceOnUse">
<stop stop-color="#FF8543"/>
<stop offset="1" stop-color="#FF388A"/>
</linearGradient>
<linearGradient id="paint2_linear_90_5339" x1="94.1767" y1="58.9623" x2="94.1767" y2="137.105" gradientUnits="userSpaceOnUse">
<stop stop-color="#FF8543"/>
<stop offset="1" stop-color="#FF388A"/>
</linearGradient>
</defs>
</svg>
