<svg width="564" height="861" viewBox="0 0 564 861" fill="none" xmlns="http://www.w3.org/2000/svg">
<g clip-path="url(#clip0_69_3356)">
<path d="M465.428 9.04883H109.879C65.2883 9.04883 29.1406 45.199 29.1406 89.7925V1016.69C29.1406 1061.28 65.2883 1097.43 109.879 1097.43H465.428C510.019 1097.43 546.166 1061.28 546.166 1016.69V89.7925C546.166 45.199 510.019 9.04883 465.428 9.04883Z" fill="#F0642F"/>
<g clip-path="url(#clip1_69_3356)">
<path d="M134.001 70.3583L108.719 60V110L116.03 106.012V100.872L134.001 93.5092V70.3583ZM126.691 86.815L116.03 91.1814V72.6862L126.691 77.0525V86.815Z" fill="white"/>
<path d="M99.9711 72.6862V72.7075L107.282 69.72V60L87.6777 68.0305L98.8887 73.1288L99.9711 72.6862Z" fill="white"/>
<path d="M99.9719 78.7164V91.1813L89.3108 86.8149V77.0524L93.1551 75.4778L82 70.3752V93.5091L99.9719 100.876V106.017L107.283 110V103.867V93.19V75.7289L99.9719 78.7164Z" fill="white"/>
</g>
<path d="M499.668 76.6667H476.335" stroke="#CCD2E3" stroke-width="2" stroke-linecap="round"/>
<path d="M499.668 85H483.001" stroke="#CCD2E3" stroke-width="2" stroke-linecap="round"/>
<path d="M499.668 93.3333H489.668" stroke="#CCD2E3" stroke-width="2" stroke-linecap="round"/>
<g filter="url(#filter0_f_69_3356)">
<ellipse cx="273.5" cy="323" rx="234.5" ry="95" fill="#FFC107"/>
</g>
<path d="M182.332 204.88L174.78 217.904V226H171.356V217.904L163.836 204.88H167.644L171.42 211.696L173.084 214.832L174.748 211.696L178.492 204.88H182.332ZM193.638 204.56C195.686 204.56 197.457 204.997 198.95 205.872C200.444 206.747 201.596 207.995 202.406 209.616C203.217 211.237 203.622 213.179 203.622 215.44C203.622 217.701 203.217 219.643 202.406 221.264C201.596 222.885 200.444 224.133 198.95 225.008C197.457 225.883 195.686 226.32 193.638 226.32C191.612 226.32 189.852 225.883 188.358 225.008C186.865 224.133 185.713 222.885 184.902 221.264C184.092 219.643 183.686 217.701 183.686 215.44C183.686 213.179 184.092 211.237 184.902 209.616C185.713 207.995 186.865 206.747 188.358 205.872C189.852 204.997 191.612 204.56 193.638 204.56ZM193.638 207.536C192.316 207.536 191.174 207.845 190.214 208.464C189.276 209.083 188.55 209.979 188.038 211.152C187.526 212.325 187.27 213.755 187.27 215.44C187.27 217.104 187.526 218.533 188.038 219.728C188.55 220.901 189.276 221.797 190.214 222.416C191.174 223.035 192.316 223.344 193.638 223.344C194.982 223.344 196.124 223.035 197.062 222.416C198.022 221.797 198.758 220.901 199.27 219.728C199.782 218.533 200.038 217.104 200.038 215.44C200.038 213.755 199.782 212.325 199.27 211.152C198.758 209.979 198.022 209.083 197.062 208.464C196.124 207.845 194.982 207.536 193.638 207.536ZM225.546 204.88V217.904C225.546 220.699 224.81 222.8 223.338 224.208C221.866 225.616 219.722 226.32 216.906 226.32C214.133 226.32 211.999 225.616 210.506 224.208C209.034 222.8 208.298 220.699 208.298 217.904V204.88H211.722V217.488C211.722 219.472 212.149 220.944 213.002 221.904C213.855 222.864 215.157 223.344 216.906 223.344C218.677 223.344 219.989 222.864 220.842 221.904C221.695 220.944 222.122 219.472 222.122 217.488V204.88H225.546ZM240.01 204.88C242.271 204.88 244.063 205.445 245.386 206.576C246.73 207.707 247.402 209.232 247.402 211.152C247.402 213.136 246.73 214.672 245.386 215.76C244.063 216.827 242.271 217.36 240.01 217.36L239.69 217.552H234.794V226H231.402V204.88H240.01ZM239.754 214.704C241.14 214.704 242.164 214.427 242.826 213.872C243.508 213.296 243.85 212.421 243.85 211.248C243.85 210.096 243.508 209.232 242.826 208.656C242.164 208.08 241.14 207.792 239.754 207.792H234.794V214.704H239.754ZM241.77 215.408L248.65 226H244.714L238.826 216.752L241.77 215.408ZM279.75 226H276.134L274.118 220.464H265.254L263.238 226H259.718L267.686 204.88H271.782L279.75 226ZM266.214 217.68H273.158L269.702 207.824L266.214 217.68ZM300.249 220.4C299.823 221.68 299.183 222.768 298.329 223.664C297.476 224.539 296.473 225.2 295.321 225.648C294.169 226.096 292.9 226.32 291.513 226.32C289.487 226.32 287.727 225.883 286.233 225.008C284.74 224.133 283.588 222.885 282.777 221.264C281.967 219.643 281.561 217.701 281.561 215.44C281.561 213.179 281.967 211.237 282.777 209.616C283.588 207.995 284.74 206.747 286.233 205.872C287.727 204.997 289.476 204.56 291.481 204.56C292.868 204.56 294.116 204.752 295.225 205.136C296.356 205.52 297.316 206.096 298.105 206.864C298.895 207.632 299.503 208.592 299.929 209.744L296.697 211.184C296.271 209.925 295.652 209.008 294.841 208.432C294.031 207.835 292.975 207.536 291.673 207.536C290.372 207.536 289.231 207.845 288.249 208.464C287.268 209.083 286.5 209.979 285.945 211.152C285.412 212.325 285.145 213.755 285.145 215.44C285.145 217.104 285.401 218.533 285.913 219.728C286.425 220.901 287.161 221.797 288.121 222.416C289.081 223.035 290.233 223.344 291.577 223.344C292.879 223.344 293.999 223.013 294.937 222.352C295.897 221.669 296.58 220.656 296.985 219.312L300.249 220.4ZM322.124 220.4C321.698 221.68 321.058 222.768 320.204 223.664C319.351 224.539 318.348 225.2 317.196 225.648C316.044 226.096 314.775 226.32 313.388 226.32C311.362 226.32 309.602 225.883 308.108 225.008C306.615 224.133 305.463 222.885 304.652 221.264C303.842 219.643 303.436 217.701 303.436 215.44C303.436 213.179 303.842 211.237 304.652 209.616C305.463 207.995 306.615 206.747 308.108 205.872C309.602 204.997 311.351 204.56 313.356 204.56C314.743 204.56 315.991 204.752 317.1 205.136C318.231 205.52 319.191 206.096 319.98 206.864C320.77 207.632 321.378 208.592 321.804 209.744L318.572 211.184C318.146 209.925 317.527 209.008 316.716 208.432C315.906 207.835 314.85 207.536 313.548 207.536C312.247 207.536 311.106 207.845 310.124 208.464C309.143 209.083 308.375 209.979 307.82 211.152C307.287 212.325 307.02 213.755 307.02 215.44C307.02 217.104 307.276 218.533 307.788 219.728C308.3 220.901 309.036 221.797 309.996 222.416C310.956 223.035 312.108 223.344 313.452 223.344C314.754 223.344 315.874 223.013 316.812 222.352C317.772 221.669 318.455 220.656 318.86 219.312L322.124 220.4ZM335.263 204.56C337.311 204.56 339.082 204.997 340.575 205.872C342.069 206.747 343.221 207.995 344.031 209.616C344.842 211.237 345.247 213.179 345.247 215.44C345.247 217.701 344.842 219.643 344.031 221.264C343.221 222.885 342.069 224.133 340.575 225.008C339.082 225.883 337.311 226.32 335.263 226.32C333.237 226.32 331.477 225.883 329.983 225.008C328.49 224.133 327.338 222.885 326.527 221.264C325.717 219.643 325.311 217.701 325.311 215.44C325.311 213.179 325.717 211.237 326.527 209.616C327.338 207.995 328.49 206.747 329.983 205.872C331.477 204.997 333.237 204.56 335.263 204.56ZM335.263 207.536C333.941 207.536 332.799 207.845 331.839 208.464C330.901 209.083 330.175 209.979 329.663 211.152C329.151 212.325 328.895 213.755 328.895 215.44C328.895 217.104 329.151 218.533 329.663 219.728C330.175 220.901 330.901 221.797 331.839 222.416C332.799 223.035 333.941 223.344 335.263 223.344C336.607 223.344 337.749 223.035 338.687 222.416C339.647 221.797 340.383 220.901 340.895 219.728C341.407 218.533 341.663 217.104 341.663 215.44C341.663 213.755 341.407 212.325 340.895 211.152C340.383 209.979 339.647 209.083 338.687 208.464C337.749 207.845 336.607 207.536 335.263 207.536ZM367.171 204.88V217.904C367.171 220.699 366.435 222.8 364.963 224.208C363.491 225.616 361.347 226.32 358.531 226.32C355.758 226.32 353.624 225.616 352.131 224.208C350.659 222.8 349.923 220.699 349.923 217.904V204.88H353.347V217.488C353.347 219.472 353.774 220.944 354.627 221.904C355.48 222.864 356.782 223.344 358.531 223.344C360.302 223.344 361.614 222.864 362.467 221.904C363.32 220.944 363.747 219.472 363.747 217.488V204.88H367.171ZM390.339 204.88V226H386.275L378.115 212.688L376.067 208.944H376.035L376.163 212.368V226H373.027V204.88H377.059L385.187 218.16L387.267 221.968H387.299L387.171 218.512V204.88H390.339ZM412.301 204.88V207.824H405.069V226H401.645V207.824H394.413V204.88H412.301ZM216.917 264V242.88H225.237C227.776 242.88 229.632 243.392 230.805 244.416C231.979 245.44 232.565 246.859 232.565 248.672C232.565 249.781 232.245 250.773 231.605 251.648C230.965 252.501 230.027 253.045 228.789 253.28V253.312C230.155 253.525 231.211 254.091 231.957 255.008C232.725 255.904 233.109 256.949 233.109 258.144C233.109 259.957 232.448 261.387 231.125 262.432C229.803 263.477 227.883 264 225.365 264H216.917ZM220.277 261.152H225.525C226.869 261.152 227.872 260.875 228.533 260.32C229.216 259.765 229.557 258.987 229.557 257.984C229.557 256.981 229.216 256.203 228.533 255.648C227.872 255.093 226.869 254.816 225.525 254.816H220.277V261.152ZM220.277 251.968H224.981C227.669 251.968 229.013 250.933 229.013 248.864C229.013 246.795 227.669 245.76 224.981 245.76H220.277V251.968ZM255.391 264H251.775L249.759 258.464H240.895L238.879 264H235.359L243.327 242.88H247.423L255.391 264ZM241.855 255.68H248.799L245.343 245.824L241.855 255.68ZM262.56 261.056H274.208V264H259.136V242.88H262.56V261.056ZM295.828 264H292.212L290.196 258.464H281.332L279.316 264H275.796L283.764 242.88H287.86L295.828 264ZM282.292 255.68H289.236L285.78 245.824L282.292 255.68ZM316.886 242.88V264H312.822L304.661 250.688L302.614 246.944H302.582L302.71 250.368V264H299.574V242.88H303.606L311.734 256.16L313.814 259.968H313.846L313.718 256.512V242.88H316.886ZM340.64 258.4C340.213 259.68 339.573 260.768 338.72 261.664C337.867 262.539 336.864 263.2 335.712 263.648C334.56 264.096 333.291 264.32 331.904 264.32C329.877 264.32 328.117 263.883 326.624 263.008C325.131 262.133 323.979 260.885 323.168 259.264C322.357 257.643 321.952 255.701 321.952 253.44C321.952 251.179 322.357 249.237 323.168 247.616C323.979 245.995 325.131 244.747 326.624 243.872C328.117 242.997 329.867 242.56 331.872 242.56C333.259 242.56 334.507 242.752 335.616 243.136C336.747 243.52 337.707 244.096 338.496 244.864C339.285 245.632 339.893 246.592 340.32 247.744L337.088 249.184C336.661 247.925 336.043 247.008 335.232 246.432C334.421 245.835 333.365 245.536 332.064 245.536C330.763 245.536 329.621 245.845 328.64 246.464C327.659 247.083 326.891 247.979 326.336 249.152C325.803 250.325 325.536 251.755 325.536 253.44C325.536 255.104 325.792 256.533 326.304 257.728C326.816 258.901 327.552 259.797 328.512 260.416C329.472 261.035 330.624 261.344 331.968 261.344C333.269 261.344 334.389 261.013 335.328 260.352C336.288 259.669 336.971 258.656 337.376 257.312L340.64 258.4ZM345.011 264V242.88H360.307V245.824H348.435V251.904H357.715V254.784H348.435V261.056H360.755V264H345.011Z" fill="white"/>
<path d="M119.141 346.936C116.325 346.936 113.722 346.595 111.333 345.912C108.943 345.229 106.81 344.291 104.933 343.096C103.098 341.901 101.562 340.515 100.325 338.936L105.189 333.176C106.127 334.627 107.343 335.885 108.837 336.952C110.33 337.976 112.015 338.787 113.893 339.384C115.77 339.939 117.69 340.216 119.653 340.216C122.255 340.216 124.303 339.789 125.797 338.936C127.29 338.083 128.037 336.824 128.037 335.16C128.037 334.093 127.61 333.176 126.757 332.408C125.946 331.64 124.517 331.021 122.469 330.552L113.509 328.504C111.119 327.949 109.071 327.181 107.365 326.2C105.658 325.219 104.357 324.024 103.461 322.616C102.607 321.165 102.181 319.501 102.181 317.624C102.181 315.149 102.842 312.952 104.165 311.032C105.53 309.112 107.45 307.576 109.925 306.424C112.442 305.272 115.471 304.696 119.013 304.696C122.725 304.696 125.989 305.336 128.805 306.616C131.621 307.896 134.01 309.795 135.973 312.312L131.365 317.624C129.658 315.448 127.759 313.869 125.669 312.888C123.621 311.864 121.21 311.352 118.437 311.352C116.559 311.352 115.023 311.587 113.829 312.056C112.634 312.483 111.738 313.08 111.141 313.848C110.586 314.616 110.309 315.491 110.309 316.472C110.309 317.24 110.479 317.944 110.821 318.584C111.162 319.181 111.802 319.715 112.741 320.184C113.722 320.653 115.109 321.101 116.901 321.528L124.581 323.256C128.591 324.152 131.471 325.475 133.221 327.224C135.013 328.931 135.909 331.213 135.909 334.072C135.909 336.803 135.205 339.128 133.797 341.048C132.389 342.968 130.405 344.44 127.845 345.464C125.327 346.445 122.426 346.936 119.141 346.936ZM116.133 352.888V298.872H122.085V352.888H116.133ZM162.754 347V341.048C166.594 338.445 169.836 336.099 172.482 334.008C175.17 331.875 177.324 329.912 178.946 328.12C180.61 326.285 181.804 324.557 182.53 322.936C183.298 321.315 183.682 319.693 183.682 318.072C183.682 316.109 183.084 314.509 181.89 313.272C180.695 311.992 179.01 311.352 176.834 311.352C174.444 311.352 172.567 312.163 171.202 313.784C169.879 315.405 169.154 317.709 169.026 320.696L161.41 317.816C161.623 314.915 162.391 312.461 163.714 310.456C165.079 308.408 166.914 306.851 169.218 305.784C171.564 304.675 174.252 304.12 177.282 304.12C179.884 304.12 182.124 304.483 184.002 305.208C185.922 305.933 187.5 306.936 188.738 308.216C190.018 309.453 190.978 310.883 191.618 312.504C192.258 314.125 192.578 315.811 192.578 317.56C192.578 320.291 191.895 322.872 190.53 325.304C189.207 327.736 187.159 330.147 184.386 332.536C181.612 334.925 178.092 337.443 173.826 340.088V340.152C174.466 340.109 175.234 340.067 176.13 340.024C177.068 339.981 178.028 339.96 179.01 339.96C179.991 339.917 180.844 339.896 181.57 339.896H193.218V347H162.754ZM215.414 347.64C211.19 347.64 207.585 346.765 204.598 345.016C201.654 343.224 199.628 340.664 198.518 337.336L206.838 333.688C207.137 335.224 207.628 336.504 208.31 337.528C208.993 338.509 209.91 339.256 211.062 339.768C212.257 340.28 213.665 340.536 215.286 340.536C216.737 340.536 217.953 340.28 218.934 339.768C219.958 339.256 220.748 338.531 221.302 337.592C221.857 336.653 222.134 335.587 222.134 334.392C222.134 333.112 221.878 332.067 221.366 331.256C220.897 330.445 220.172 329.869 219.19 329.528C218.209 329.144 216.972 328.952 215.478 328.952C214.924 328.952 214.39 328.973 213.878 329.016C213.409 329.016 212.876 329.059 212.278 329.144V322.68C212.62 322.723 212.961 322.765 213.302 322.808C213.686 322.808 214.07 322.808 214.454 322.808C216.844 322.808 218.55 322.339 219.574 321.4C220.641 320.419 221.174 318.861 221.174 316.728C221.174 314.979 220.641 313.635 219.574 312.696C218.55 311.715 217.078 311.224 215.158 311.224C213.11 311.224 211.489 311.736 210.294 312.76C209.1 313.741 208.268 315.256 207.798 317.304L199.926 314.36C200.438 312.227 201.42 310.392 202.87 308.856C204.364 307.32 206.198 306.147 208.374 305.336C210.55 304.483 212.961 304.056 215.606 304.056C218.764 304.056 221.388 304.547 223.478 305.528C225.612 306.509 227.212 307.853 228.278 309.56C229.388 311.267 229.942 313.229 229.942 315.448C229.942 317.197 229.665 318.691 229.11 319.928C228.598 321.123 227.916 322.147 227.062 323C226.252 323.811 225.398 324.429 224.502 324.856C223.606 325.283 222.774 325.539 222.006 325.624V325.816C222.988 325.859 223.99 326.072 225.014 326.456C226.038 326.797 226.977 327.331 227.83 328.056C228.726 328.781 229.452 329.72 230.006 330.872C230.561 331.981 230.838 333.304 230.838 334.84C230.838 337.4 230.156 339.661 228.79 341.624C227.468 343.544 225.654 345.037 223.35 346.104C221.046 347.128 218.401 347.64 215.414 347.64ZM252.398 347.64C248.686 347.64 245.55 346.872 242.99 345.336C240.472 343.8 238.403 341.453 236.782 338.296L244.718 334.328C245.272 336.205 246.147 337.72 247.342 338.872C248.536 340.024 250.286 340.6 252.59 340.6C254.168 340.6 255.512 340.323 256.622 339.768C257.731 339.213 258.584 338.403 259.182 337.336C259.822 336.269 260.142 334.968 260.142 333.432C260.142 331.896 259.843 330.616 259.246 329.592C258.691 328.525 257.88 327.736 256.814 327.224C255.747 326.669 254.403 326.392 252.782 326.392C251.672 326.392 250.627 326.499 249.646 326.712C248.707 326.925 247.854 327.267 247.086 327.736C246.318 328.163 245.635 328.739 245.038 329.464L238.126 328.184L240.75 304.76H266.286V311.864H247.406L246.126 322.168L245.934 323H246.062C246.958 321.976 248.174 321.187 249.71 320.632C251.288 320.077 253.08 319.8 255.086 319.8C257.859 319.8 260.227 320.355 262.19 321.464C264.152 322.573 265.667 324.131 266.734 326.136C267.8 328.099 268.334 330.36 268.334 332.92C268.334 335.352 267.928 337.507 267.118 339.384C266.307 341.219 265.155 342.755 263.662 343.992C262.211 345.187 260.526 346.104 258.606 346.744C256.686 347.341 254.616 347.64 252.398 347.64ZM280.24 337.208C281.605 337.208 282.736 337.549 283.632 338.232C284.528 338.872 285.21 339.747 285.68 340.856C286.149 341.923 286.384 343.117 286.384 344.44C286.384 346.189 286.021 347.875 285.296 349.496C284.613 351.117 283.653 352.568 282.416 353.848C281.178 355.128 279.77 356.131 278.192 356.856L274.416 353.848C275.568 353.379 276.613 352.803 277.552 352.12C278.533 351.437 279.365 350.669 280.048 349.816C280.73 348.963 281.221 348.088 281.52 347.192L281.2 347C280.986 347.128 280.73 347.235 280.432 347.32C280.133 347.448 279.706 347.512 279.152 347.512C278.469 347.512 277.786 347.341 277.104 347C276.421 346.616 275.845 346.083 275.376 345.4C274.906 344.675 274.672 343.779 274.672 342.712C274.672 341.56 274.928 340.579 275.44 339.768C275.952 338.957 276.634 338.339 277.488 337.912C278.341 337.443 279.258 337.208 280.24 337.208ZM310.221 304.12C312.483 304.12 314.531 304.44 316.365 305.08C318.2 305.677 319.8 306.659 321.165 308.024C322.573 309.347 323.661 311.117 324.429 313.336L317.005 316.792C316.493 315.128 315.64 313.827 314.445 312.888C313.293 311.907 311.693 311.416 309.645 311.416C308.195 311.416 306.893 311.757 305.741 312.44C304.632 313.123 303.672 314.104 302.861 315.384C302.051 316.664 301.432 318.2 301.005 319.992C300.579 321.741 300.365 323.683 300.365 325.816C300.365 325.944 300.365 326.093 300.365 326.264C300.365 326.392 300.365 326.605 300.365 326.904L300.557 327.16C301.027 325.667 301.837 324.429 302.989 323.448C304.184 322.467 305.507 321.741 306.957 321.272C308.451 320.803 309.923 320.568 311.373 320.568C314.061 320.568 316.429 321.101 318.477 322.168C320.568 323.192 322.189 324.685 323.341 326.648C324.536 328.611 325.133 330.957 325.133 333.688C325.133 336.504 324.493 338.979 323.213 341.112C321.976 343.203 320.205 344.824 317.901 345.976C315.64 347.085 312.931 347.64 309.773 347.64C306.189 347.64 303.075 346.787 300.429 345.08C297.827 343.373 295.8 340.92 294.349 337.72C292.941 334.52 292.237 330.659 292.237 326.136C292.237 321.229 293.027 317.155 294.605 313.912C296.184 310.627 298.339 308.173 301.069 306.552C303.8 304.931 306.851 304.12 310.221 304.12ZM309.645 327.032C308.237 327.032 307 327.331 305.933 327.928C304.867 328.483 304.013 329.272 303.373 330.296C302.733 331.277 302.413 332.429 302.413 333.752C302.413 335.075 302.733 336.248 303.373 337.272C304.056 338.296 304.931 339.107 305.997 339.704C307.107 340.301 308.323 340.6 309.645 340.6C311.907 340.6 313.656 340.003 314.893 338.808C316.173 337.613 316.813 335.928 316.813 333.752C316.813 332.387 316.536 331.192 315.981 330.168C315.427 329.144 314.616 328.376 313.549 327.864C312.483 327.309 311.181 327.032 309.645 327.032ZM339.889 347V320.248C339.889 319.267 339.889 318.264 339.889 317.24C339.932 316.173 339.975 315.085 340.017 313.976C338.567 315.299 336.945 316.451 335.153 317.432C333.361 318.413 331.527 319.096 329.649 319.48L328.497 312.056C329.479 311.971 330.567 311.693 331.761 311.224C332.999 310.712 334.236 310.115 335.473 309.432C336.753 308.707 337.905 307.96 338.929 307.192C339.996 306.381 340.807 305.571 341.361 304.76H348.529V347H339.889ZM366.514 347V320.248C366.514 319.267 366.514 318.264 366.514 317.24C366.557 316.173 366.6 315.085 366.642 313.976C365.192 315.299 363.57 316.451 361.778 317.432C359.986 318.413 358.152 319.096 356.274 319.48L355.122 312.056C356.104 311.971 357.192 311.693 358.386 311.224C359.624 310.712 360.861 310.115 362.098 309.432C363.378 308.707 364.53 307.96 365.554 307.192C366.621 306.381 367.432 305.571 367.986 304.76H375.154V347H366.514ZM389.555 337.208C391.262 337.208 392.606 337.677 393.587 338.616C394.611 339.555 395.123 340.813 395.123 342.392C395.123 344.013 394.611 345.293 393.587 346.232C392.606 347.128 391.262 347.576 389.555 347.576C387.849 347.576 386.483 347.128 385.459 346.232C384.478 345.293 383.987 344.013 383.987 342.392C383.987 340.813 384.478 339.555 385.459 338.616C386.483 337.677 387.849 337.208 389.555 337.208ZM417.347 304.12C421.102 304.12 424.259 304.995 426.819 306.744C429.379 308.451 431.299 310.925 432.579 314.168C433.902 317.368 434.563 321.229 434.563 325.752C434.563 330.744 433.859 334.861 432.451 338.104C431.043 341.304 429.038 343.693 426.435 345.272C423.875 346.851 420.867 347.64 417.411 347.64C413.785 347.64 410.649 346.872 408.003 345.336C405.401 343.8 403.438 341.453 402.115 338.296L410.243 334.84C410.713 336.589 411.523 337.997 412.675 339.064C413.87 340.088 415.513 340.6 417.603 340.6C419.267 340.6 420.675 340.28 421.827 339.64C422.979 338.957 423.897 337.997 424.579 336.76C425.305 335.523 425.817 334.008 426.115 332.216C426.457 330.424 426.627 328.419 426.627 326.2C426.627 326.029 426.627 325.88 426.627 325.752C426.627 325.624 426.627 325.475 426.627 325.304H426.371C425.902 326.797 425.091 328.035 423.939 329.016C422.83 329.955 421.55 330.659 420.099 331.128C418.649 331.555 417.155 331.768 415.619 331.768C412.931 331.768 410.542 331.235 408.451 330.168C406.403 329.059 404.782 327.523 403.587 325.56C402.393 323.555 401.795 321.229 401.795 318.584C401.795 315.597 402.435 313.037 403.715 310.904C404.995 308.728 406.787 307.064 409.091 305.912C411.438 304.717 414.19 304.12 417.347 304.12ZM417.411 311.288C415.15 311.288 413.379 311.928 412.099 313.208C410.819 314.445 410.179 316.195 410.179 318.456C410.179 320.461 410.841 322.04 412.163 323.192C413.486 324.301 415.235 324.856 417.411 324.856C418.819 324.856 420.057 324.579 421.123 324.024C422.233 323.469 423.086 322.68 423.683 321.656C424.281 320.632 424.579 319.459 424.579 318.136C424.579 316.728 424.281 315.512 423.683 314.488C423.086 313.464 422.233 312.675 421.123 312.12C420.057 311.565 418.819 311.288 417.411 311.288ZM456.847 304.12C460.602 304.12 463.759 304.995 466.319 306.744C468.879 308.451 470.799 310.925 472.079 314.168C473.402 317.368 474.063 321.229 474.063 325.752C474.063 330.744 473.359 334.861 471.951 338.104C470.543 341.304 468.538 343.693 465.935 345.272C463.375 346.851 460.367 347.64 456.911 347.64C453.285 347.64 450.149 346.872 447.503 345.336C444.901 343.8 442.938 341.453 441.615 338.296L449.743 334.84C450.213 336.589 451.023 337.997 452.175 339.064C453.37 340.088 455.013 340.6 457.103 340.6C458.767 340.6 460.175 340.28 461.327 339.64C462.479 338.957 463.397 337.997 464.079 336.76C464.805 335.523 465.317 334.008 465.615 332.216C465.957 330.424 466.127 328.419 466.127 326.2C466.127 326.029 466.127 325.88 466.127 325.752C466.127 325.624 466.127 325.475 466.127 325.304H465.871C465.402 326.797 464.591 328.035 463.439 329.016C462.33 329.955 461.05 330.659 459.599 331.128C458.149 331.555 456.655 331.768 455.119 331.768C452.431 331.768 450.042 331.235 447.951 330.168C445.903 329.059 444.282 327.523 443.087 325.56C441.893 323.555 441.295 321.229 441.295 318.584C441.295 315.597 441.935 313.037 443.215 310.904C444.495 308.728 446.287 307.064 448.591 305.912C450.938 304.717 453.69 304.12 456.847 304.12ZM456.911 311.288C454.65 311.288 452.879 311.928 451.599 313.208C450.319 314.445 449.679 316.195 449.679 318.456C449.679 320.461 450.341 322.04 451.663 323.192C452.986 324.301 454.735 324.856 456.911 324.856C458.319 324.856 459.557 324.579 460.623 324.024C461.733 323.469 462.586 322.68 463.183 321.656C463.781 320.632 464.079 319.459 464.079 318.136C464.079 316.728 463.781 315.512 463.183 314.488C462.586 313.464 461.733 312.675 460.623 312.12C459.557 311.565 458.319 311.288 456.911 311.288Z" fill="white"/>
<path d="M560.835 302.089H558.711C557.165 302.089 555.912 303.342 555.912 304.888V421.299C555.912 422.845 557.165 424.098 558.711 424.098H560.835C562.381 424.098 563.634 422.845 563.634 421.299V304.888C563.634 303.342 562.381 302.089 560.835 302.089Z" fill="url(#paint0_linear_69_3356)"/>
<path d="M17.7995 243.411H19.9238C21.4696 243.411 22.7227 242.158 22.7227 240.612L22.7227 206.372C22.7227 204.827 21.4696 203.573 19.9238 203.573H17.7995C16.2537 203.573 15.0007 204.827 15.0007 206.372L15.0007 240.612C15.0007 242.158 16.2537 243.411 17.7995 243.411Z" fill="url(#paint1_linear_69_3356)"/>
<path d="M17.7995 351.909H19.9238C21.4696 351.909 22.7227 350.656 22.7227 349.11L22.7227 278.944C22.7227 277.398 21.4696 276.145 19.9238 276.145H17.7995C16.2537 276.145 15.0007 277.398 15.0007 278.944L15.0007 349.11C15.0007 350.656 16.2537 351.909 17.7995 351.909Z" fill="url(#paint2_linear_69_3356)"/>
<path d="M17.7995 448.57H19.9238C21.4696 448.57 22.7227 447.317 22.7227 445.771L22.7227 375.605C22.7227 374.059 21.4696 372.806 19.9238 372.806H17.7995C16.2537 372.806 15.0007 374.059 15.0007 375.605L15.0007 445.771C15.0007 447.317 16.2537 448.57 17.7995 448.57Z" fill="url(#paint3_linear_69_3356)"/>
<path d="M28.9277 85.0376V1022.62C28.9277 1064.6 62.9518 1098.63 104.934 1098.63H473.331C515.302 1098.63 549.337 1064.61 549.337 1022.62V85.0376C549.337 43.064 515.313 9.04883 473.353 9.04883H104.934C62.963 9.04883 28.9502 43.0752 28.9502 85.0376H28.9277ZM472.555 1082.65H105.709C72.135 1082.65 44.9113 1055.42 44.9113 1021.85V85.9931C44.9113 52.4051 72.135 25.1796 105.721 25.1796H472.544C506.13 25.1796 533.353 52.4051 533.353 85.9931V1021.86C533.353 1055.43 506.13 1082.66 472.555 1082.66V1082.65Z" fill="#020202"/>
<path d="M471.374 0.0112305H106.889C58.7812 0.0112305 19.7891 39.006 19.7891 87.106V1020.8C19.7891 1068.9 58.7812 1107.9 106.889 1107.9H471.374C519.471 1107.9 558.463 1068.9 558.463 1020.8V87.106C558.463 39.006 519.471 0.0112305 471.374 0.0112305ZM502.319 1094.07C492.517 1098.22 482.109 1100.32 471.374 1100.32H106.889C96.1436 1100.32 85.7352 1098.22 75.9338 1094.07C66.4695 1090.07 57.9607 1084.33 50.6545 1077.03C43.3484 1069.72 37.616 1061.22 33.6145 1051.75C29.4668 1041.95 27.3649 1031.54 27.3649 1020.8V87.106C27.3649 76.3709 29.4668 65.9618 33.6145 56.1597C37.616 46.6949 43.3597 38.1854 50.6545 30.8788C57.9607 23.5722 66.4695 17.8393 75.9338 13.8376C85.7352 9.68967 96.1436 7.58761 106.889 7.58761H471.374C482.109 7.58761 492.517 9.68967 502.319 13.8376C511.783 17.8393 520.292 23.5722 527.598 30.8788C534.904 38.1854 540.636 46.6949 544.638 56.1597C548.786 65.9618 550.888 76.3709 550.888 87.106V1020.8C550.888 1031.54 548.786 1041.95 544.638 1051.75C540.636 1061.21 534.893 1069.72 527.598 1077.03C520.292 1084.33 511.783 1090.07 502.319 1094.07Z" fill="#5B7682"/>
<path d="M547.763 54.8333C543.581 44.9637 537.613 36.0947 529.992 28.4733C522.371 20.852 513.514 14.883 503.634 10.7014C493.416 6.37364 482.558 4.19285 471.363 4.19285H106.878C95.6827 4.19285 84.8247 6.38488 74.6074 10.7014C64.7385 14.883 55.87 20.852 48.2492 28.4733C40.6284 36.0947 34.6598 44.9525 30.4784 54.8333C26.1622 65.0513 23.9704 75.9101 23.9704 87.106V1020.8C23.9704 1032 26.1622 1042.86 30.4784 1053.07C34.6598 1062.94 40.6284 1071.81 48.2492 1079.43C55.8588 1087.04 64.7272 1093.02 74.6074 1097.21C84.8247 1101.53 95.6827 1103.71 106.878 1103.71H471.363C482.558 1103.71 493.416 1101.52 503.634 1097.21C513.503 1093.02 522.371 1087.06 529.992 1079.43C537.602 1071.82 543.581 1062.95 547.763 1053.07C552.079 1042.86 554.271 1032 554.271 1020.8V87.106C554.271 75.9101 552.079 65.0513 547.763 54.8333ZM547.493 1020.79C547.493 1031.06 545.481 1041.05 541.513 1050.42C537.68 1059.48 532.184 1067.62 525.192 1074.62C518.201 1081.61 510.052 1087.11 500.992 1090.94C491.607 1094.91 481.648 1096.92 471.363 1096.92H106.878C96.5932 1096.92 86.6232 1094.91 77.2488 1090.94C68.178 1087.11 60.0401 1081.63 53.0487 1074.62C46.0573 1067.63 40.5609 1059.48 36.728 1050.42C32.7602 1041.05 30.7482 1031.08 30.7482 1020.79V87.106C30.7482 76.8318 32.7602 66.8499 36.728 57.4749C40.5609 48.4147 46.0573 40.2763 53.0487 33.2732C60.0401 26.2813 68.1893 20.7845 77.2488 16.9514C86.6232 12.9833 96.5932 10.9712 106.878 10.9712H471.363C481.637 10.9712 491.607 12.9833 500.992 16.9514C510.052 20.7845 518.19 26.2701 525.192 33.2732C532.195 40.2763 537.68 48.4147 541.513 57.4749C545.481 66.8499 547.493 76.8206 547.493 87.106V1020.8V1020.79ZM547.763 54.8333C543.581 44.9637 537.613 36.0947 529.992 28.4733C522.371 20.852 513.514 14.883 503.634 10.7014C493.416 6.37364 482.558 4.19285 471.363 4.19285H106.878C95.6827 4.19285 84.8247 6.38488 74.6074 10.7014C64.7385 14.883 55.87 20.852 48.2492 28.4733C40.6284 36.0947 34.6598 44.9525 30.4784 54.8333C26.1622 65.0513 23.9704 75.9101 23.9704 87.106V1020.8C23.9704 1032 26.1622 1042.86 30.4784 1053.07C34.6598 1062.94 40.6284 1071.81 48.2492 1079.43C55.8588 1087.04 64.7272 1093.02 74.6074 1097.21C84.8247 1101.53 95.6827 1103.71 106.878 1103.71H471.363C482.558 1103.71 493.416 1101.52 503.634 1097.21C513.503 1093.02 522.371 1087.06 529.992 1079.43C537.602 1071.82 543.581 1062.95 547.763 1053.07C552.079 1042.86 554.271 1032 554.271 1020.8V87.106C554.271 75.9101 552.079 65.0513 547.763 54.8333ZM547.493 1020.79C547.493 1031.06 545.481 1041.05 541.513 1050.42C537.68 1059.48 532.184 1067.62 525.192 1074.62C518.201 1081.61 510.052 1087.11 500.992 1090.94C491.607 1094.91 481.648 1096.92 471.363 1096.92H106.878C96.5932 1096.92 86.6232 1094.91 77.2488 1090.94C68.178 1087.11 60.0401 1081.63 53.0487 1074.62C46.0573 1067.63 40.5609 1059.48 36.728 1050.42C32.7602 1041.05 30.7482 1031.08 30.7482 1020.79V87.106C30.7482 76.8318 32.7602 66.8499 36.728 57.4749C40.5609 48.4147 46.0573 40.2763 53.0487 33.2732C60.0401 26.2813 68.1893 20.7845 77.2488 16.9514C86.6232 12.9833 96.5932 10.9712 106.878 10.9712H471.363C481.637 10.9712 491.607 12.9833 500.992 16.9514C510.052 20.7845 518.19 26.2701 525.192 33.2732C532.195 40.2763 537.68 48.4147 541.513 57.4749C545.481 66.8499 547.493 76.8206 547.493 87.106V1020.8V1020.79ZM471.374 0H106.889C58.7812 0 19.7891 38.9948 19.7891 87.0948V1020.79C19.7891 1068.89 58.7812 1107.88 106.889 1107.88H471.374C519.471 1107.88 558.463 1068.89 558.463 1020.79V87.106C558.463 39.0061 519.471 0.0112519 471.374 0.0112519V0ZM555.08 1020.79C555.08 1066.95 517.527 1104.5 471.374 1104.5H106.889C60.737 1104.5 23.1836 1066.95 23.1836 1020.79V87.106C23.1836 40.9507 60.737 3.39479 106.889 3.39479H471.374C517.527 3.39479 555.08 40.9507 555.08 87.106V1020.8V1020.79ZM503.645 10.7014C493.428 6.37364 482.57 4.19285 471.374 4.19285H106.889C95.694 4.19285 84.8359 6.38488 74.6186 10.7014C64.7497 14.883 55.8813 20.852 48.2605 28.4733C40.6396 36.0947 34.671 44.9525 30.4897 54.8333C26.1735 65.0513 23.9816 75.9101 23.9816 87.106V1020.8C23.9816 1032 26.1735 1042.86 30.4897 1053.07C34.671 1062.94 40.6396 1071.81 48.2605 1079.43C55.8701 1087.04 64.7385 1093.02 74.6186 1097.21C84.8359 1101.53 95.694 1103.71 106.889 1103.71H471.374C482.57 1103.71 493.428 1101.52 503.645 1097.21C513.514 1093.02 522.382 1087.06 530.003 1079.43C537.613 1071.82 543.593 1062.95 547.774 1053.07C552.09 1042.86 554.282 1032 554.282 1020.8V87.106C554.282 75.9101 552.09 65.0513 547.774 54.8333C543.593 44.9637 537.624 36.0947 530.003 28.4733C522.382 20.852 513.525 14.883 503.645 10.7014ZM547.504 1020.79C547.504 1031.06 545.492 1041.05 541.524 1050.42C537.692 1059.48 532.195 1067.62 525.204 1074.62C518.212 1081.61 510.063 1087.11 501.004 1090.94C491.618 1094.91 481.659 1096.92 471.374 1096.92H106.889C96.6044 1096.92 86.6344 1094.91 77.2601 1090.94C68.1893 1087.11 60.0514 1081.63 53.06 1074.62C46.0686 1067.63 40.5721 1059.48 36.7392 1050.42C32.7715 1041.05 30.7595 1031.08 30.7595 1020.79V87.106C30.7595 76.8318 32.7715 66.8499 36.7392 57.4749C40.5721 48.4147 46.0686 40.2763 53.06 33.2732C60.0514 26.2813 68.2005 20.7845 77.2601 16.9514C86.6344 12.9833 96.6044 10.9712 106.889 10.9712H471.374C481.648 10.9712 491.618 12.9833 501.004 16.9514C510.063 20.7845 518.201 26.2701 525.204 33.2732C532.206 40.2763 537.692 48.4147 541.524 57.4749C545.492 66.8499 547.504 76.8206 547.504 87.106V1020.8V1020.79Z" fill="#494949"/>
<path d="M469.273 5.20464C480.547 5.20464 491.472 7.41909 501.757 11.7918C511.693 16.0184 520.618 22.066 528.284 29.7773C535.95 37.4886 541.963 46.4589 546.167 56.452C550.517 66.7937 552.72 77.7874 552.72 89.107V1018.78C552.72 1030.11 550.517 1041.09 546.167 1051.43C541.963 1061.43 535.95 1070.4 528.284 1078.11C520.618 1085.82 511.693 1091.87 501.757 1096.09C491.472 1100.47 480.536 1102.68 469.273 1102.68H108.643C97.3693 1102.68 86.4438 1100.47 76.159 1096.09C66.2227 1091.87 57.298 1085.82 49.6322 1078.11C41.9664 1070.4 35.9529 1061.43 31.7491 1051.43C27.3992 1041.09 25.1961 1030.1 25.1961 1018.78V89.1182C25.1961 77.7874 27.3992 66.805 31.7491 56.4633C35.9529 46.4701 41.9664 37.4999 49.6322 29.7886C57.298 22.0773 66.2227 16.0297 76.159 11.8031C86.4438 7.43034 97.3805 5.21589 108.643 5.21589H469.273M469.273 2.02344H108.643C60.7937 2.02344 22.0039 41.0182 22.0039 89.1182V1018.79C22.0039 1066.89 60.7937 1105.88 108.643 1105.88H469.273C517.123 1105.88 555.912 1066.89 555.912 1018.79V89.1182C555.912 41.0182 517.123 2.02344 469.273 2.02344Z" fill="#AAAAAA"/>
<path d="M443.566 0.011322V10.9824H449.737V0.011322H443.566Z" fill="url(#paint4_linear_69_3356)"/>
<path d="M30.7595 113.466H19.7891V119.637H30.7595V113.466Z" fill="url(#paint5_linear_69_3356)"/>
<path d="M558.463 113.466H547.492V119.637H558.463V113.466Z" fill="url(#paint6_linear_69_3356)"/>
<g filter="url(#filter1_d_69_3356)">
<path d="M44 481C44 463.327 58.3269 449 76 449H500C517.673 449 532 463.327 532 481V861H44V481Z" fill="white"/>
</g>
<path d="M392.238 19.5005V39.7904C392.238 53.8528 380.84 65.2511 366.779 65.2511H201.492C187.431 65.2511 176.033 53.8528 176.033 39.7904V19.5005H392.227H392.238Z" fill="#020202"/>
<path d="M397.542 23.9744C394.609 24.0081 392.248 26.4024 392.248 29.3362V23.9744H397.542Z" fill="#020202"/>
<path d="M170.75 23.9744C173.684 24.0081 176.044 26.4024 176.044 29.3362V23.9744H170.75Z" fill="#020202"/>
<path d="M216.577 34.6533C220.421 34.6533 223.501 37.531 223.501 41.0831C223.501 44.6352 220.421 47.4792 216.577 47.4792C212.733 47.4792 209.664 44.6015 209.664 41.0831C209.664 37.5647 212.733 34.6533 216.577 34.6533Z" fill="url(#paint7_radial_69_3356)"/>
<path d="M318.581 11.9578H249.701C248.683 11.9578 247.857 12.7831 247.857 13.8012V15.2063C247.857 16.2245 248.683 17.0499 249.701 17.0499H318.581C319.599 17.0499 320.424 16.2245 320.424 15.2063V13.8012C320.424 12.7831 319.599 11.9578 318.581 11.9578Z" fill="#353535"/>
</g>
<defs>
<filter id="filter0_f_69_3356" x="-161" y="28" width="869" height="590" filterUnits="userSpaceOnUse" color-interpolation-filters="sRGB">
<feFlood flood-opacity="0" result="BackgroundImageFix"/>
<feBlend mode="normal" in="SourceGraphic" in2="BackgroundImageFix" result="shape"/>
<feGaussianBlur stdDeviation="100" result="effect1_foregroundBlur_69_3356"/>
</filter>
<filter id="filter1_d_69_3356" x="-6" y="391" width="588" height="512" filterUnits="userSpaceOnUse" color-interpolation-filters="sRGB">
<feFlood flood-opacity="0" result="BackgroundImageFix"/>
<feColorMatrix in="SourceAlpha" type="matrix" values="0 0 0 0 0 0 0 0 0 0 0 0 0 0 0 0 0 0 127 0" result="hardAlpha"/>
<feOffset dy="-8"/>
<feGaussianBlur stdDeviation="25"/>
<feComposite in2="hardAlpha" operator="out"/>
<feColorMatrix type="matrix" values="0 0 0 0 0.75 0 0 0 0 0.264896 0 0 0 0 0.08125 0 0 0 1 0"/>
<feBlend mode="normal" in2="BackgroundImageFix" result="effect1_dropShadow_69_3356"/>
<feBlend mode="normal" in="SourceGraphic" in2="effect1_dropShadow_69_3356" result="shape"/>
</filter>
<linearGradient id="paint0_linear_69_3356" x1="559.779" y1="424.098" x2="559.779" y2="302.089" gradientUnits="userSpaceOnUse">
<stop stop-color="#313131"/>
<stop offset="0.02" stop-color="#494949"/>
<stop offset="0.03" stop-color="#717171"/>
<stop offset="0.04" stop-color="#B7B7B7"/>
<stop offset="0.06" stop-color="#898989"/>
<stop offset="0.08" stop-color="#515151"/>
<stop offset="0.91" stop-color="#515151"/>
<stop offset="0.94" stop-color="#878787"/>
<stop offset="0.95" stop-color="#A9A9A9"/>
<stop offset="0.96" stop-color="#B7B7B7"/>
<stop offset="0.97" stop-color="#828282"/>
<stop offset="0.98" stop-color="#585858"/>
<stop offset="0.99" stop-color="#353535"/>
</linearGradient>
<linearGradient id="paint1_linear_69_3356" x1="18.856" y1="243.513" x2="18.856" y2="203.675" gradientUnits="userSpaceOnUse">
<stop stop-color="#313131"/>
<stop offset="0.02" stop-color="#494949"/>
<stop offset="0.03" stop-color="#717171"/>
<stop offset="0.04" stop-color="#B7B7B7"/>
<stop offset="0.06" stop-color="#898989"/>
<stop offset="0.08" stop-color="#515151"/>
<stop offset="0.91" stop-color="#515151"/>
<stop offset="0.94" stop-color="#878787"/>
<stop offset="0.95" stop-color="#A9A9A9"/>
<stop offset="0.96" stop-color="#B7B7B7"/>
<stop offset="0.97" stop-color="#828282"/>
<stop offset="0.98" stop-color="#585858"/>
<stop offset="0.99" stop-color="#353535"/>
</linearGradient>
<linearGradient id="paint2_linear_69_3356" x1="18.856" y1="351.718" x2="18.856" y2="276.561" gradientUnits="userSpaceOnUse">
<stop stop-color="#313131"/>
<stop offset="0.02" stop-color="#494949"/>
<stop offset="0.03" stop-color="#717171"/>
<stop offset="0.04" stop-color="#B7B7B7"/>
<stop offset="0.06" stop-color="#898989"/>
<stop offset="0.08" stop-color="#515151"/>
<stop offset="0.91" stop-color="#515151"/>
<stop offset="0.94" stop-color="#878787"/>
<stop offset="0.95" stop-color="#A9A9A9"/>
<stop offset="0.96" stop-color="#B7B7B7"/>
<stop offset="0.97" stop-color="#828282"/>
<stop offset="0.98" stop-color="#585858"/>
<stop offset="0.99" stop-color="#353535"/>
</linearGradient>
<linearGradient id="paint3_linear_69_3356" x1="18.856" y1="448.817" x2="18.856" y2="373.188" gradientUnits="userSpaceOnUse">
<stop stop-color="#313131"/>
<stop offset="0.02" stop-color="#494949"/>
<stop offset="0.03" stop-color="#717171"/>
<stop offset="0.04" stop-color="#B7B7B7"/>
<stop offset="0.06" stop-color="#898989"/>
<stop offset="0.08" stop-color="#515151"/>
<stop offset="0.91" stop-color="#515151"/>
<stop offset="0.94" stop-color="#878787"/>
<stop offset="0.95" stop-color="#A9A9A9"/>
<stop offset="0.96" stop-color="#B7B7B7"/>
<stop offset="0.97" stop-color="#828282"/>
<stop offset="0.98" stop-color="#585858"/>
<stop offset="0.99" stop-color="#353535"/>
</linearGradient>
<linearGradient id="paint4_linear_69_3356" x1="446.657" y1="10.87" x2="446.657" y2="-2.64153" gradientUnits="userSpaceOnUse">
<stop stop-color="#323232"/>
<stop offset="1" stop-color="#93908D"/>
</linearGradient>
<linearGradient id="paint5_linear_69_3356" x1="30.8494" y1="116.557" x2="19.6205" y2="116.557" gradientUnits="userSpaceOnUse">
<stop stop-color="#323232"/>
<stop offset="1" stop-color="#93908D"/>
</linearGradient>
<linearGradient id="paint6_linear_69_3356" x1="547.447" y1="116.557" x2="559.351" y2="116.557" gradientUnits="userSpaceOnUse">
<stop stop-color="#323232"/>
<stop offset="1" stop-color="#93908D"/>
</linearGradient>
<radialGradient id="paint7_radial_69_3356" cx="0" cy="0" r="1" gradientUnits="userSpaceOnUse" gradientTransform="translate(216.588 41.0719) scale(6.67667 6.6771)">
<stop/>
<stop offset="0.63" stop-color="#035D84"/>
<stop offset="1"/>
</radialGradient>
<clipPath id="clip0_69_3356">
<rect width="564" height="861" fill="white"/>
</clipPath>
<clipPath id="clip1_69_3356">
<rect width="52" height="50" fill="white" transform="translate(82 60)"/>
</clipPath>
</defs>
</svg>
