<svg width="32" height="32" viewBox="0 0 32 32" fill="none" xmlns="http://www.w3.org/2000/svg">
<path d="M16.0034 11.8921C13.7344 11.8921 11.8984 13.7311 11.8984 15.9971C11.8984 18.2651 13.7374 20.1021 16.0034 20.1021C18.2724 20.1021 20.1084 18.2631 20.1084 15.9971C20.1084 13.7281 18.2694 11.8921 16.0034 11.8921ZM16.0034 18.6621C14.5314 18.6621 13.3384 17.4691 13.3384 15.9971C13.3384 14.5251 14.5314 13.3321 16.0034 13.3321C17.4754 13.3321 18.6684 14.5241 18.6684 15.9971C18.6684 17.4691 17.4754 18.6621 16.0034 18.6621Z" fill="black"/>
<path d="M19.2992 8.05002C17.8272 7.98102 14.1812 7.98402 12.7072 8.05002C11.4122 8.11102 10.2702 8.42402 9.35018 9.34402C7.81118 10.883 8.00818 12.956 8.00818 15.997C8.00818 19.109 7.83518 21.135 9.35018 22.65C10.8942 24.194 12.9982 23.992 16.0032 23.992C19.6862 23.992 23.7162 24.345 23.9502 19.293C24.0192 17.82 24.0162 14.175 23.9502 12.702C23.8182 9.89302 22.3102 8.19002 19.2992 8.05002ZM21.6282 21.632C20.6192 22.641 19.2202 22.551 15.9822 22.551C12.6492 22.551 11.3122 22.6 10.3362 21.622C9.21218 20.504 9.41618 18.708 9.41618 15.987C9.41618 9.33702 9.79718 9.42202 15.9722 9.42202L16.0022 9.44202C22.6242 9.44202 22.5562 9.87102 22.5562 15.997C22.5572 19.291 22.6202 20.636 21.6282 21.632Z" fill="black"/>
<path d="M20.2715 12.689C20.8011 12.689 21.2305 12.2596 21.2305 11.73C21.2305 11.2004 20.8011 10.771 20.2715 10.771C19.7419 10.771 19.3125 11.2004 19.3125 11.73C19.3125 12.2596 19.7419 12.689 20.2715 12.689Z" fill="black"/>
</svg>
