<svg width="32" height="32" viewBox="0 0 32 32" fill="none" xmlns="http://www.w3.org/2000/svg">
<path d="M10.3 12.1125C11.3 12.1125 12.1 11.3 12.1 10.3125C12.1 9.32495 11.2875 8.51245 10.3 8.51245C9.3125 8.51245 8.5 9.32495 8.5 10.3125C8.5 11.3 9.3125 12.1125 10.3 12.1125ZM13.8125 13.475V23.5H16.9125V18.55C16.9125 17.2375 17.1625 15.975 18.775 15.975C20.3875 15.975 20.3875 17.475 20.3875 18.625V23.5H23.5V18C23.5 15.3 22.925 13.225 19.775 13.225C18.2625 13.225 17.25 14.05 16.8375 14.8375H16.8V13.4625H13.825L13.8125 13.475ZM8.75 13.475H11.8625V23.5H8.75V13.475Z" fill="black"/>
</svg>
