<svg width="32" height="32" viewBox="0 0 32 32" fill="none" xmlns="http://www.w3.org/2000/svg">
<path fill-rule="evenodd" clip-rule="evenodd" d="M14.6153 8.47233C15.5177 7.56978 16.7417 7.06265 18.018 7.0625H20.493C20.6753 7.0625 20.8502 7.13493 20.9791 7.26386C21.108 7.3928 21.1805 7.56766 21.1805 7.75V11.05C21.1805 11.2323 21.108 11.4072 20.9791 11.5361C20.8502 11.6651 20.6753 11.7375 20.493 11.7375H18.018C17.9999 11.7375 17.982 11.7411 17.9653 11.748C17.9487 11.7549 17.9335 11.765 17.9207 11.7778C17.908 11.7905 17.8978 11.8057 17.8909 11.8224C17.884 11.8391 17.8805 11.8569 17.8805 11.875V13.6625H20.493C20.5975 13.6624 20.7006 13.6862 20.7946 13.732C20.8885 13.7778 20.9708 13.8444 21.0352 13.9268C21.0995 14.0092 21.1442 14.1051 21.1659 14.2074C21.1876 14.3096 21.1857 14.4154 21.1603 14.5168L20.3353 17.8168C20.2981 17.9656 20.2122 18.0977 20.0913 18.192C19.9703 18.2864 19.8213 18.3376 19.668 18.3375H17.8805V24.25C17.8805 24.4323 17.808 24.6072 17.6791 24.7361C17.5502 24.8651 17.3753 24.9375 17.193 24.9375H13.893C13.7106 24.9375 13.5358 24.8651 13.4068 24.7361C13.2779 24.6072 13.2055 24.4323 13.2055 24.25V18.3375H11.418C11.2356 18.3375 11.0608 18.2651 10.9318 18.1361C10.8029 18.0072 10.7305 17.8323 10.7305 17.65V14.35C10.7305 14.2597 10.7483 14.1703 10.7828 14.0869C10.8174 14.0035 10.868 13.9277 10.9318 13.8639C10.9957 13.8 11.0715 13.7494 11.1549 13.7148C11.2383 13.6803 11.3277 13.6625 11.418 13.6625H13.2055V11.875C13.2056 10.5987 13.7127 9.37474 14.6153 8.47233ZM18.018 8.4375C17.1063 8.4375 16.2319 8.79966 15.5873 9.44432C14.9426 10.089 14.5805 10.9633 14.5805 11.875V14.35C14.5805 14.5323 14.508 14.7072 14.3791 14.8361C14.2502 14.9651 14.0753 15.0375 13.893 15.0375H12.1055V16.9625H13.893C14.0753 16.9625 14.2502 17.0349 14.3791 17.1639C14.508 17.2928 14.5805 17.4677 14.5805 17.65V23.5625H16.5055V17.65C16.5055 17.4677 16.5779 17.2928 16.7068 17.1639C16.8358 17.0349 17.0106 16.9625 17.193 16.9625H19.1308L19.6121 15.0375H17.193C17.0106 15.0375 16.8358 14.9651 16.7068 14.8361C16.5779 14.7072 16.5055 14.5323 16.5055 14.35V11.875C16.5055 11.4739 16.6648 11.0891 16.9485 10.8055C17.2321 10.5219 17.6168 10.3625 18.018 10.3625H19.8055V8.4375H18.018Z" fill="black"/>
</svg>
