<svg width="32" height="32" viewBox="0 0 32 32" fill="none" xmlns="http://www.w3.org/2000/svg">
<path d="M23.6674 8.00154C23.4451 8.01654 23.2269 8.06492 23.0213 8.1448H23.0186C22.8212 8.21739 21.8829 8.58358 20.4565 9.13864L15.3447 11.136C11.6767 12.5686 8.07099 13.9794 8.07099 13.9794L8.11392 13.9639C8.11392 13.9639 7.86533 14.0398 7.60565 14.2049C7.44523 14.2996 7.30718 14.4235 7.19987 14.5691C7.07245 14.7426 6.96997 15.0079 7.00805 15.2822C7.07038 15.7461 7.39445 16.0242 7.62712 16.1778C7.86256 16.3332 8.08692 16.4058 8.08692 16.4058H8.09246L11.4738 17.4626C11.6254 17.9143 12.5042 20.5945 12.7154 21.2119C12.84 21.5806 12.9612 21.8113 13.1128 21.9873C13.1862 22.0772 13.2721 22.1524 13.3753 22.2128C13.4289 22.2417 13.4861 22.2646 13.5456 22.2809L13.511 22.2732C13.5214 22.2757 13.5297 22.2834 13.5373 22.286C13.565 22.2931 13.5837 22.2956 13.619 22.3008C14.1543 22.4511 14.5843 22.1427 14.5843 22.1427L14.6086 22.1248L16.605 20.4384L19.9509 22.8199L20.0271 22.8501C20.7244 23.134 21.4308 22.976 21.804 22.6972C22.18 22.4164 22.3261 22.0573 22.3261 22.0573L22.3503 21.9995L24.936 9.7104C25.0094 9.40718 25.0281 9.12322 24.9471 8.84762C24.8635 8.56869 24.6706 8.3288 24.4063 8.17499C24.1843 8.04979 23.9269 7.98936 23.6674 8.00154ZM23.5975 9.31852C23.5947 9.35899 23.603 9.3545 23.5836 9.43223V9.4393L21.0222 21.6005C21.0111 21.6179 20.9924 21.6558 20.9412 21.6937C20.8872 21.7335 20.8442 21.7586 20.6192 21.6757L16.5267 18.7648L14.0546 20.8553L14.5739 17.7781L21.2604 11.9962C21.536 11.7585 21.4439 11.7084 21.4439 11.7084C21.4633 11.4167 21.0277 11.6229 21.0277 11.6229L12.5963 16.4688L12.5935 16.4559L8.55225 15.1936V15.191L8.54187 15.1891C8.54895 15.1869 8.55589 15.1843 8.56264 15.1814L8.5848 15.1711L8.60627 15.164C8.60627 15.164 12.2147 13.7532 15.8827 12.3206C17.7191 11.603 19.5694 10.8803 20.9924 10.3226C21.8364 9.99308 22.6812 9.66544 23.5268 9.33972C23.5836 9.31916 23.5566 9.31852 23.5975 9.31852Z" fill="black"/>
</svg>
