<svg width="32" height="32" viewBox="0 0 32 32" fill="none" xmlns="http://www.w3.org/2000/svg">
<path fill-rule="evenodd" clip-rule="evenodd" d="M13.3024 4.98916C15.195 4.52465 17.1755 4.55605 19.0524 5.0803C20.9294 5.60455 22.6395 6.60395 24.0175 7.98198C25.3956 9.36 26.395 11.0701 26.9192 12.9471C27.4435 14.824 27.4749 16.8045 27.0104 18.6972C27.7711 19.8508 28.1102 21.2316 27.9706 22.6064C27.831 23.9812 27.2211 25.2656 26.244 26.2428C25.2668 27.2199 23.9824 27.8298 22.6076 27.9694C21.2328 28.109 19.852 27.7699 18.6984 27.0092C16.8057 27.4738 14.8253 27.4426 12.9483 26.9186C11.0712 26.3945 9.36105 25.3953 7.98289 24.0174C6.60473 22.6395 5.60516 20.9295 5.08073 19.0526C4.55629 17.1756 4.52471 15.1952 4.98902 13.3025C4.22832 12.1489 3.88913 10.768 4.02877 9.39323C4.1684 8.01845 4.77829 6.734 5.75542 5.75688C6.73254 4.77976 8.01698 4.16987 9.39177 4.03023C10.7666 3.8906 12.1474 4.22978 13.301 4.99049L13.3024 4.98916ZM18.005 15.0292C18.5037 15.1785 18.9784 15.3958 19.4144 15.6772C19.861 15.9705 20.2344 16.3652 20.5024 16.8265C20.781 17.3385 20.9224 17.9132 20.9117 18.4958C20.9351 19.2472 20.7112 19.9854 20.2744 20.5972C19.8152 21.2252 19.1847 21.7076 18.4584 21.9865C17.6766 22.2983 16.8398 22.4485 15.9984 22.4278C15.0086 22.4556 14.0269 22.2433 13.137 21.8092C12.5522 21.5014 12.05 21.0573 11.673 20.5145C11.2958 19.9925 11.0844 19.369 11.0664 18.7252C11.0664 18.4357 11.1813 18.1581 11.386 17.9535C11.5907 17.7488 11.8683 17.6338 12.1577 17.6338C12.4471 17.6338 12.7247 17.7488 12.9294 17.9535C13.134 18.1581 13.249 18.4357 13.249 18.7252C13.2704 18.9252 13.3477 19.1145 13.469 19.2745C13.6424 19.5238 13.873 19.7278 14.141 19.8705C14.721 20.1425 15.3584 20.2705 15.9984 20.2465C16.5523 20.2642 17.1041 20.1703 17.621 19.9705C17.9677 19.8465 18.2717 19.6238 18.4957 19.3332C18.6622 19.1008 18.7446 18.8186 18.729 18.5332C18.7406 18.3133 18.6965 18.0941 18.601 17.8958C18.5019 17.7332 18.3663 17.5958 18.205 17.4945C17.9465 17.3312 17.6665 17.2046 17.373 17.1185C17.133 17.0465 16.873 16.9758 16.6024 16.9052L16.5824 16.9025C16.5631 16.8967 16.5435 16.8918 16.5237 16.8878C16.3436 16.841 16.1627 16.7975 15.981 16.7572C15.4997 16.6532 15.165 16.5705 14.9557 16.5065C14.9507 16.5048 14.9462 16.5021 14.9424 16.4985C14.939 16.4963 14.9354 16.4945 14.9317 16.4932C14.4477 16.3758 13.9717 16.2265 13.505 16.0478C12.8897 15.8007 12.3494 15.3977 11.937 14.8785C11.5094 14.3176 11.2859 13.6276 11.3037 12.9225C11.3037 12.2158 11.5357 11.5265 11.9637 10.9625C12.409 10.3945 13.005 9.96249 13.6837 9.71716C14.4336 9.4469 15.2268 9.31674 16.0237 9.33316C16.6504 9.32649 17.2757 9.41316 17.877 9.59049C18.397 9.74249 18.885 9.99049 19.3157 10.3212C19.689 10.6038 19.9984 10.9585 20.229 11.3665C20.3661 11.6213 20.3963 11.9201 20.313 12.1971C20.2297 12.4742 20.0398 12.7068 19.785 12.8438C19.6589 12.9117 19.5206 12.954 19.3781 12.9684C19.2355 12.9828 19.0916 12.969 18.9544 12.9278C18.6773 12.8445 18.4447 12.6546 18.3077 12.3998C18.2149 12.2535 18.0944 12.1267 17.953 12.0265C17.7346 11.867 17.4894 11.7478 17.229 11.6745C16.8369 11.5619 16.4303 11.508 16.0224 11.5145C15.4955 11.4992 14.9702 11.5791 14.4717 11.7505C14.1744 11.8518 13.9117 12.0305 13.7077 12.2705C13.5624 12.4562 13.4835 12.6853 13.4837 12.9212C13.466 13.1412 13.5279 13.3603 13.6584 13.5385C13.837 13.7558 14.069 13.9252 14.3304 14.0265C14.8397 14.2212 15.3637 14.3758 15.897 14.4878C16.345 14.5865 16.7064 14.6745 17.013 14.7585C17.361 14.8452 17.6997 14.9358 18.005 15.0292Z" fill="#F0642F"/>
</svg>
