<svg width="18" height="15" viewBox="0 0 18 15" fill="none" xmlns="http://www.w3.org/2000/svg">
<path d="M16.6674 0.00153584C16.4451 0.0165403 16.2269 0.0649236 16.0213 0.144798H16.0186C15.8212 0.217393 14.8829 0.583579 13.4565 1.13864L8.34466 3.13596C4.67666 4.56858 1.07099 5.97936 1.07099 5.97936L1.11392 5.96395C1.11392 5.96395 0.865328 6.03975 0.605652 6.20486C0.445227 6.29957 0.307181 6.42348 0.199867 6.56912C0.0724531 6.74257 -0.030032 7.0079 0.00805369 7.28222C0.0703757 7.74605 0.39445 8.02423 0.627119 8.17777C0.862558 8.33323 1.08692 8.40583 1.08692 8.40583H1.09246L4.47377 9.46263C4.62542 9.91426 5.50416 12.5945 5.71536 13.2119C5.84001 13.5806 5.96119 13.8113 6.11284 13.9873C6.18624 14.0772 6.27211 14.1524 6.37529 14.2128C6.42892 14.2417 6.48612 14.2646 6.54563 14.2809L6.51101 14.2732C6.5214 14.2757 6.52971 14.2834 6.53732 14.286C6.56502 14.2931 6.58372 14.2956 6.61903 14.3008C7.15431 14.4511 7.58433 14.1427 7.58433 14.1427L7.60857 14.1248L9.60495 12.4384L12.9509 14.8199L13.0271 14.8501C13.7244 15.134 14.4308 14.976 14.804 14.6972C15.18 14.4164 15.3261 14.0573 15.3261 14.0573L15.3503 13.9995L17.936 1.7104C18.0094 1.40718 18.0281 1.12322 17.9471 0.847619C17.8635 0.568691 17.6706 0.328795 17.4063 0.174992C17.1843 0.049792 16.9269 -0.0106392 16.6674 0.00153584ZM16.5975 1.31852C16.5947 1.35899 16.603 1.3545 16.5836 1.43223V1.4393L14.0222 13.6005C14.0111 13.6179 13.9924 13.6558 13.9412 13.6937C13.8872 13.7335 13.8442 13.7586 13.6192 13.6757L9.5267 10.7648L7.0546 12.8553L7.57395 9.77806L14.2604 3.99618C14.536 3.75848 14.4439 3.70837 14.4439 3.70837C14.4633 3.4167 14.0277 3.62292 14.0277 3.62292L5.59626 8.46879L5.59349 8.45594L1.55225 7.19356V7.19099L1.54187 7.18906C1.54895 7.18688 1.55589 7.18431 1.56264 7.18135L1.5848 7.17108L1.60627 7.16401C1.60627 7.16401 5.21471 5.75323 8.88271 4.32061C10.7191 3.60301 12.5694 2.88027 13.9924 2.32264C14.8364 1.99308 15.6812 1.66544 16.5268 1.33972C16.5836 1.31916 16.5566 1.31852 16.5975 1.31852Z" fill="white"/>
</svg>
