<svg width="50" height="50" viewBox="0 0 50 50" fill="none" xmlns="http://www.w3.org/2000/svg">
<g clip-path="url(#clip0_73_210)">
<path d="M2.92969 1.46484V2.92969H1.46484H0V7.37305V11.8164H2.92969H5.85938V13.2324V14.6484H2.92969H0V16.1621V17.6758H1.46484H2.92969V19.1406V20.6055H4.44336H5.95703V19.1406V17.6758H7.42188H8.88672V13.2324V8.78906H5.95703H3.02734V7.37305V5.95703H5.95703H8.88672V4.44336V2.92969H7.42188H5.95703V1.46484V0H4.44336H2.92969V1.46484Z" fill="white"/>
<path d="M23.4668 0.146441C21.582 0.654254 20 2.15816 19.3652 4.05269C19.1016 4.81441 19.1016 4.88277 19.0918 7.32418C19.0918 9.47261 19.1211 9.89254 19.2676 10.4003C19.7656 12.0117 20.9082 13.4179 22.2656 14.082C23.3105 14.5996 24.1602 14.7753 25.293 14.7168C27.8711 14.5996 29.9512 12.9492 30.7324 10.4003C30.8789 9.9023 30.9082 9.46285 30.9082 7.42183C30.9082 4.74605 30.8594 4.39449 30.293 3.22261C30.0293 2.66597 29.7461 2.29488 29.1504 1.70894C28.3105 0.859332 27.5684 0.419879 26.5137 0.146441C25.791 -0.0391054 24.1602 -0.0391054 23.4668 0.146441Z" fill="white"/>
<path d="M44.043 1.46484V2.92969H42.5781H41.1133V7.37305V11.8164H44.043H46.9727V13.2324V14.6484H44.043H41.1133V16.1621V17.6758H42.5781H44.043V19.1406V20.6055H45.5566H47.0703V19.1406V17.6758H48.5352H50V13.2324V8.78906H47.0703H44.1406V7.37305V5.95703H47.0703H50V4.44336V2.92969H48.5352H47.0703V1.46484V0H45.5566H44.043V1.46484Z" fill="white"/>
<path d="M22.0117 17.7344C22.0898 18.584 22.5195 19.5117 23.0273 19.9023C23.75 20.4785 24.0039 20.5566 25 20.5566C25.8496 20.5566 25.9766 20.5273 26.4453 20.2637C27.3535 19.7656 27.8711 18.9258 27.9883 17.7344L28.0566 17.0605L27.8223 17.1289C27.6953 17.1582 27.3242 17.2656 27.002 17.3633C26.1816 17.5977 23.8184 17.5977 22.998 17.3633C22.6758 17.2656 22.3047 17.1582 22.1777 17.1289L21.9434 17.0605L22.0117 17.7344Z" fill="white"/>
<path d="M17.8809 17.6855C14.9902 18.0566 12.2559 20.0977 11.0352 22.793C10.6543 23.6328 10.3613 24.7852 10.2832 25.752L10.2246 26.5625H25H39.7754L39.7168 25.752C39.375 21.4258 35.9961 18.0469 31.5723 17.627C30.8887 17.5586 30.8594 17.5684 30.8594 17.7637C30.8594 18.2812 30.5176 19.5508 30.2051 20.2148C29.9316 20.7812 29.6777 21.123 29.0625 21.7285C27.8516 22.9297 26.6406 23.4375 25 23.4375C23.3691 23.4375 22.1484 22.9199 20.9375 21.7285C20.3223 21.123 20.0684 20.7812 19.7949 20.2148C19.4824 19.5508 19.1406 18.2812 19.1406 17.7734C19.1406 17.5488 18.9844 17.5391 17.8809 17.6855Z" fill="white"/>
<path d="M6.05469 29.5215C6.05469 29.6582 7.56836 40.3516 7.66602 40.8887L7.72461 41.2109H25H42.2754L42.334 40.8887C42.4316 40.3516 43.9453 29.6582 43.9453 29.5215C43.9453 29.4141 40.4785 29.3945 25 29.3945C9.52148 29.3945 6.05469 29.4141 6.05469 29.5215ZM26.4648 35.3027V36.7188H25H23.5352V35.3027V33.8867H25H26.4648V35.3027Z" fill="white"/>
<path d="M8.14453 44.3066C8.17383 44.4629 8.34961 45.7031 8.54492 47.0703C8.73047 48.4375 8.91602 49.6582 8.93555 49.7754L8.98438 50H25H41.0156L41.0645 49.7754C41.084 49.6582 41.2695 48.4375 41.4551 47.0703C41.6504 45.7031 41.8262 44.4629 41.8555 44.3066L41.9141 44.043H25H8.08594L8.14453 44.3066Z" fill="white"/>
</g>
<defs>
<clipPath id="clip0_73_210">
<rect width="50" height="50" fill="white"/>
</clipPath>
</defs>
</svg>
