<svg width="50" height="50" viewBox="0 0 50 50" fill="none" xmlns="http://www.w3.org/2000/svg">
<path d="M48.3006 0.185547C48.9549 0.585938 48.9256 0.136719 48.9256 9.64844V18.2324L48.701 18.5645C48.4471 18.9453 47.9295 19.2383 47.5096 19.2383C47.3436 19.2285 42.1678 17.793 36.0057 16.0254C27.1189 13.4863 24.7459 12.7734 24.5408 12.5879C24.0721 12.1484 24.0232 11.8848 24.0232 9.6875C24.0232 8.56445 24.0525 7.5 24.0818 7.32422C24.1209 7.1582 24.2869 6.875 24.4529 6.69922C24.7459 6.39648 25.283 6.23047 35.9373 3.19336C43.1736 1.12305 47.2752 0 47.5584 0C47.8123 0 48.1248 0.078125 48.3006 0.185547Z" fill="white"/>
<path d="M11.3281 0.634766C13.9062 1.21094 16.0547 2.95898 17.1777 5.39062C17.7734 6.66992 17.9199 7.35352 17.9199 8.93555C17.9102 10.0488 17.8711 10.4395 17.6953 11.0547C16.8066 14.1797 14.4629 16.4355 11.3672 17.1484C10.3711 17.3828 8.61328 17.3828 7.66602 17.1484C5.01953 16.5137 3.06641 14.9609 1.9043 12.5488C1.24023 11.1719 1.12305 10.6543 1.13281 8.83789C1.13281 7.40234 1.16211 7.20703 1.40625 6.44531C1.93359 4.82422 2.82227 3.49609 4.08203 2.41211C4.80469 1.79688 6.33789 0.986328 7.27539 0.732422C8.10547 0.498047 10.4883 0.449219 11.3281 0.634766Z" fill="white"/>
<path d="M28.2422 16.2891L29.7754 16.7285L29.8047 17.6074L29.834 18.4863L32.5195 19.3457L35.2051 20.1953L35.2344 19.2773C35.2441 18.7695 35.293 18.3594 35.332 18.3594C35.3711 18.3594 36.0742 18.5449 36.8848 18.7695L38.3789 19.1895V20.9961C38.3789 22.5684 38.3594 22.8516 38.1934 23.1445C37.9785 23.5645 37.373 23.9258 36.8945 23.9258C36.6895 23.9258 34.5312 23.291 31.9824 22.4707C27.1973 20.9473 27.0312 20.8789 26.7676 20.2246C26.6895 20.0586 26.6699 19.2383 26.6797 17.9102L26.709 15.8496L28.2422 16.2891Z" fill="white"/>
<path d="M11.1611 19.8242C13.876 20.2832 16.0928 21.9727 17.2353 24.4531C17.958 26.0156 17.9092 25.0391 17.9385 37.6465C17.9678 46.0645 17.9482 49.043 17.8603 49.2383C17.8018 49.3945 17.6162 49.6289 17.46 49.7559L17.167 50H9.91113H2.6455L2.30371 49.6582C2.05957 49.4238 1.95215 49.1992 1.90332 48.9062C1.87402 48.6719 1.85449 43.5645 1.87402 37.5488L1.91308 26.6113L2.12793 25.8301C3.02636 22.6172 5.38964 20.4297 8.54394 19.873C9.45214 19.7168 10.3994 19.6973 11.1611 19.8242Z" fill="white"/>
</svg>
