<svg width="46" height="54" viewBox="0 0 46 54" fill="none" xmlns="http://www.w3.org/2000/svg">
<path d="M19.9212 1.19009C16.4621 2.10779 13.582 5.00207 12.6925 8.47521C12.4949 9.22349 12.4102 10.0424 12.4102 11.073C12.4102 14.0096 13.3279 16.2262 15.375 18.2734C17.4222 20.3206 19.6388 21.2383 22.5754 21.2383C25.5121 21.2383 27.7287 20.3206 29.7758 18.2734C31.823 16.2262 32.7407 14.0096 32.7407 11.073C32.7407 10.0424 32.656 9.22349 32.4583 8.47521C31.5689 4.97383 28.6746 2.07955 25.1732 1.19009C23.719 0.808893 21.3612 0.823011 19.9212 1.19009Z" fill="white"/>
<path d="M10.2651 17.7651C4.90008 20.504 1.17281 25.5867 0.198635 31.4741C0.0150957 32.5753 -0.0272596 33.6342 0.0150957 36.3449C0.057451 40.3263 0.0998064 40.4393 1.3987 41.6111C2.17522 42.317 3.10703 42.6982 4.03885 42.6982H4.64595L4.60359 35.5261C4.57535 28.4386 4.57535 28.368 4.87184 27.8033C5.26716 27.0832 5.83189 26.5185 6.55194 26.1232L7.11667 25.8267H22.5764H38.0361L38.6008 26.1232C39.3208 26.5185 39.8856 27.0832 40.2809 27.8033C40.5774 28.368 40.5774 28.4386 40.535 35.5261L40.5068 42.6982H41.128C42.5257 42.6982 44.107 41.6817 44.827 40.2981C45.2224 39.5781 45.2929 33.5495 44.9541 31.4741C44.0929 26.335 41.1845 21.8312 36.7795 18.8522C35.9889 18.3016 33.7582 17.1439 33.5182 17.1439C33.4193 17.1439 33.1228 17.4827 32.8546 17.878C29.5085 22.9183 22.8587 24.7819 17.3808 22.2265C15.3336 21.2664 13.5123 19.7134 12.2981 17.878C12.0299 17.4827 11.7334 17.1439 11.6346 17.1439C11.5499 17.1439 10.9287 17.4262 10.2651 17.7651Z" fill="white"/>
<path d="M7.15955 28.1704C7.01836 28.241 6.84894 28.5375 6.76423 28.834C6.67952 29.1729 6.62305 32.7448 6.62305 38.844V48.3457H22.5769H38.5307V38.844C38.5307 32.7307 38.4743 29.1729 38.3895 28.834C38.3048 28.5375 38.1213 28.241 37.966 28.1563C37.5989 27.9587 7.49839 27.9728 7.15955 28.1704ZM23.6781 35.2156C25.5135 36.3309 24.7229 39.1687 22.5769 39.1687C21.3768 39.1687 20.4591 38.251 20.4591 37.0509C20.4591 35.4132 22.2804 34.3684 23.6781 35.2156Z" fill="white"/>
<path d="M3.65699 50.8869C3.41698 51.127 3.37462 51.3529 3.37462 52.2988C3.37462 54.2048 0.946248 53.993 22.5757 53.993C44.2052 53.993 41.7768 54.2048 41.7768 52.2988C41.7768 50.3928 44.2052 50.6046 22.5757 50.6046C4.1229 50.6046 3.93936 50.6046 3.65699 50.8869Z" fill="white"/>
</svg>
