<svg width="72" height="72" viewBox="0 0 72 72" fill="none" xmlns="http://www.w3.org/2000/svg">
<path d="M34.79 3.93744C32.6103 4.26087 31.2884 5.92025 31.1197 8.57806C30.9087 11.7562 32.2306 14.4281 34.34 15.1312C35.2681 15.4406 36.8291 15.3421 37.6166 14.9343C37.94 14.7796 38.4603 14.3577 38.7978 13.9921C39.9509 12.7406 40.4431 11.0531 40.3306 8.6765C40.2744 7.49525 40.2041 7.08744 39.8666 6.35619C39.0228 4.48587 37.1384 3.58587 34.79 3.93744Z" fill="#151515"/>
<path d="M20.0391 4.34533C18.8156 4.89377 18.3516 5.87815 18.3516 7.94533C18.3516 9.26721 18.3797 9.4219 18.8156 10.3078C19.5469 11.7844 20.6859 12.3891 22.1906 12.0797C24.0188 11.7141 25.0594 9.60471 24.7359 6.96096C24.4828 5.00627 23.4703 4.07815 21.6 4.07815C20.9391 4.07815 20.4047 4.17658 20.0391 4.34533Z" fill="#151515"/>
<path d="M48.4459 4.27492C48.2209 4.37336 47.799 4.71086 47.5037 5.02024C46.8568 5.75149 46.6318 6.70774 46.7162 8.32492C46.8146 10.378 47.7568 11.7702 49.2475 12.0796C51.624 12.5999 53.2975 10.603 53.1287 7.46711C53.0303 5.77961 52.5662 4.9218 51.4412 4.34524C50.8225 4.0218 49.1068 3.97961 48.4459 4.27492Z" fill="#151515"/>
<path d="M18.5214 14.3438C16.412 14.8781 14.8933 16.7906 14.5839 19.35C14.4854 20.2078 14.4854 20.6297 14.5979 20.8828L14.7667 21.2344H20.0964H25.4261L25.8901 20.4188C26.1292 19.9828 26.7479 19.1953 27.2401 18.675C28.2526 17.6344 28.2667 17.55 27.5636 16.5234C26.9589 15.6516 26.312 15.1031 25.3839 14.6672C24.5542 14.2875 24.4839 14.2734 21.7979 14.2453C20.2933 14.2313 18.8167 14.2734 18.5214 14.3438Z" fill="#151515"/>
<path d="M46.8148 14.4C45.4508 14.7656 44.1852 15.8063 43.5664 17.0719L43.2852 17.6766L44.1711 18.5906C44.6633 19.0969 45.2961 19.8984 45.5633 20.3625L46.0555 21.2344H51.343C55.9273 21.2344 56.6586 21.2063 56.8133 21.0234C57.0805 20.7 56.8977 18.675 56.532 17.6625C55.9273 16.0594 54.4086 14.6813 52.8477 14.3578C51.9055 14.1469 47.6305 14.175 46.8148 14.4Z" fill="#151515"/>
<path d="M31.5138 17.7891C29.0951 18.4641 27.1685 20.4328 26.381 23.0625C26.2404 23.4844 26.0998 24.5109 26.0576 25.3406C25.9732 26.8031 25.9732 26.8312 26.3388 27.1969L26.7045 27.5625H35.7185H44.7326L45.0982 27.1969C45.4498 26.8453 45.4638 26.8172 45.3795 25.2703C45.2529 22.4578 44.1982 20.3062 42.2435 18.9141C40.5982 17.7328 40.3029 17.6625 35.9998 17.6203C33.0467 17.5922 32.1185 17.6344 31.5138 17.7891Z" fill="#151515"/>
<path d="M10.2795 32.8219C10.167 32.9484 10.1248 33.9188 10.153 36.0141L10.1952 39.0234L20.1795 45.6469C25.678 49.3031 30.867 52.7484 31.7108 53.3109L33.2577 54.3516L33.2998 59.7375C33.3139 63.1266 33.3842 65.1094 33.4686 65.0812C33.5389 65.0531 34.8045 64.3359 36.2811 63.4922C38.5592 62.1703 38.9389 61.9031 38.8827 61.6641C38.8405 61.5094 38.6998 61.0312 38.5733 60.6094C38.4467 60.1453 38.3342 59.0625 38.292 57.9375C38.2358 56.3344 38.2639 55.8422 38.517 54.7875C39.5858 50.2875 42.8483 46.9125 47.4186 45.5484C48.2764 45.2812 48.8248 45.225 50.7092 45.2109L52.9733 45.1828L57.178 42.2719C59.4983 40.6688 61.4952 39.2203 61.6358 39.0656C61.8467 38.8125 61.8748 38.4469 61.8748 35.9297C61.8748 33.5109 61.8467 33.0328 61.6498 32.85C61.453 32.6531 58.9217 32.625 35.9436 32.625C14.4561 32.625 10.4202 32.6531 10.2795 32.8219ZM25.1998 34.6922C25.4248 34.9031 25.453 35.1844 25.453 37.7297V40.5422L26.2123 39.8109C27.0702 39.0094 27.5483 38.8969 27.8998 39.4031C28.0264 39.5719 28.1248 39.7828 28.1248 39.8531C28.1248 40.1203 24.9748 43.1719 24.7077 43.1719C24.3561 43.1719 21.5295 40.4156 21.417 39.9656C21.3186 39.5719 21.7123 39.0938 22.1342 39.0938C22.2889 39.0938 22.753 39.4172 23.1608 39.825L23.9061 40.5562V37.7859C23.9061 35.1984 23.9202 35.0016 24.1873 34.7344C24.5248 34.3969 24.8483 34.3828 25.1998 34.6922ZM47.6998 34.6922C47.9248 34.9031 47.953 35.1844 47.953 37.7297V40.5422L48.7123 39.8109C49.4858 39.0938 49.978 38.925 50.3155 39.2625C50.7514 39.6984 50.4983 40.1203 48.9795 41.6531C48.1077 42.525 47.3483 43.1719 47.1936 43.1719C47.0389 43.1719 46.2655 42.525 45.4077 41.6672C43.8327 40.1203 43.6358 39.7687 44.0998 39.3188C44.4795 38.925 44.8873 39.0656 45.6608 39.825L46.4061 40.5562V37.8141C46.4061 35.5641 46.4483 35.0156 46.6311 34.7625C46.8842 34.3969 47.3342 34.3687 47.6998 34.6922ZM36.5342 35.4094C36.6608 35.5781 36.703 36.8016 36.703 40.4578C36.703 43.1156 36.7452 45.2812 36.8014 45.2812C36.8577 45.2812 37.2373 44.9578 37.6311 44.5641C38.2358 43.9734 38.4327 43.8609 38.6998 43.9172C39.1077 44.0297 39.3748 44.5359 39.2342 44.9297C39.1639 45.0844 38.4889 45.8297 37.7155 46.575C36.7452 47.5312 36.2248 47.9531 35.9858 47.9531C35.5639 47.9531 32.6248 45.0703 32.6248 44.6625C32.6248 44.2969 33.0186 43.875 33.3561 43.875C33.5108 43.875 33.9748 44.1984 34.3967 44.5922L35.1561 45.3234V40.5141V35.7047L35.4936 35.3672C35.8592 35.0016 36.2108 35.0156 36.5342 35.4094Z" fill="#151515"/>
<path d="M48.3606 46.8985C44.381 47.686 41.1044 50.836 40.0638 54.8578C39.8106 55.8422 39.7685 56.2922 39.8247 57.9235C39.881 59.5407 39.9513 60.0188 40.2747 60.961C41.2028 63.675 43.1575 65.9391 45.6888 67.2188C47.2216 67.9922 48.1356 68.2172 50.1325 68.3016C51.7075 68.3719 52.1435 68.3297 53.156 68.0766C57.0372 67.1063 60.0606 64.1672 61.1294 60.3282C61.5231 58.8938 61.481 55.9407 61.045 54.5625C60.0185 51.2438 57.8247 48.7688 54.7731 47.4891C52.9591 46.7297 50.3997 46.4907 48.3606 46.8985ZM51.0185 50.1469C51.2716 50.3157 51.3278 50.4985 51.3278 51.1032C51.3278 51.8063 51.3419 51.8344 51.806 52.0032C52.72 52.3407 53.7185 53.7469 53.7185 54.7172C53.7185 55.0266 53.4231 55.3641 53.0575 55.4766C52.6638 55.5891 52.1716 55.125 52.1716 54.6469C52.1716 54.1407 51.5388 53.4657 50.9622 53.3532C49.9075 53.1563 49.0778 53.7469 49.0778 54.6891C49.0778 55.3922 49.556 55.8282 50.8075 56.236C52.7622 56.8969 53.6341 57.811 53.6481 59.2032C53.6481 60.3141 53.0716 61.2422 52.0731 61.7344C51.3419 62.086 51.3419 62.086 51.3419 62.775C51.3278 63.8719 50.695 64.336 50.0622 63.7032C49.8513 63.4922 49.781 63.2391 49.781 62.7328C49.781 62.1422 49.7388 62.0297 49.4716 61.9594C48.9513 61.8328 48.0794 61.0172 47.7981 60.4125C47.5028 59.7516 47.4466 58.9219 47.6997 58.6688C48.1778 58.1907 49.0778 58.6969 49.0778 59.4563C49.0778 59.6391 49.2606 59.9766 49.4856 60.2016C50.1747 60.8907 51.5388 60.7078 51.9747 59.8922C52.4388 58.9782 52.031 58.3032 50.681 57.811C49.1622 57.2625 48.7966 57.0516 48.2341 56.4469C47.0247 55.125 47.4185 53.1282 49.0778 52.2C49.7388 51.8344 49.781 51.7922 49.781 51.2438C49.781 50.8782 49.8794 50.5266 50.0763 50.2875C50.4138 49.8657 50.5825 49.8375 51.0185 50.1469Z" fill="#151515"/>
</svg>
