<svg width="72" height="72" viewBox="0 0 72 72" fill="none" xmlns="http://www.w3.org/2000/svg">
<path d="M68.7656 0.225029C68.5688 0.351593 67.6547 1.22347 66.7125 2.13753L65.0109 3.82503L63.3375 3.64222C61.2984 3.43128 57.2766 3.54378 55.4062 3.86722C53.9297 4.12034 51.7922 4.64066 50.6672 5.02034L49.9219 5.27347L58.2891 13.6407C64.8281 20.1797 66.6844 21.9657 66.7969 21.7969C67.0078 21.4453 67.8094 18.436 68.0906 16.875C68.4422 14.9203 68.5828 10.6875 68.3578 8.57816L68.1891 6.97503L69.8625 5.28753C70.7906 4.34534 71.6484 3.43128 71.775 3.23441C71.9156 3.02347 72 2.60159 72 2.10941C72 1.23753 71.7188 0.703156 71.0719 0.267218C70.5516 -0.070282 69.2578 -0.0984077 68.7656 0.225029Z" fill="#151515"/>
<path d="M44.4792 7.87497C41.3011 9.74528 40.9355 10.0968 26.6198 24.3843C14.5683 36.4218 13.0777 37.9547 12.9933 38.4187C12.7823 39.6843 12.7823 39.6843 17.0995 44.0156L21.0933 48.0234L23.4417 45.675C26.3948 42.75 26.7042 42.5812 27.9277 43.1859C28.3636 43.3968 28.6027 43.6359 28.8136 44.0718C29.4183 45.2953 29.2495 45.6047 26.3245 48.5578L23.9761 50.9062L27.9839 54.9C32.3152 59.2172 32.3152 59.2312 33.5667 58.9922C34.0449 58.9078 35.5495 57.4453 47.0808 45.9422C54.2245 38.8125 60.5667 32.3859 61.1855 31.6547C62.3245 30.3047 63.7589 28.2375 64.5323 26.8593L64.9542 26.0718L55.4339 16.5515L45.9136 7.03122L44.4792 7.87497ZM51.7214 19.5468C52.6355 20.1093 52.973 21.1781 52.523 22.1343C52.4105 22.3734 51.8761 23.0062 51.3417 23.5406L50.3855 24.4968L50.6527 25.214C50.8214 25.65 50.948 26.325 50.948 26.8593C50.9761 28.3218 50.4136 29.0812 49.1761 29.2078C48.0792 29.3203 46.9683 28.3781 46.9683 27.3234C46.9683 26.1422 45.9277 25.1718 44.648 25.1718C43.8183 25.1718 43.2277 25.5093 42.8761 26.1843C42.3699 27.1687 42.5527 28.0406 43.4667 29.0812C43.7761 29.4328 44.2261 30.1359 44.4792 30.6422C44.9011 31.5281 44.9292 31.6547 44.9292 33.1875C44.9292 34.7062 44.9011 34.8609 44.4933 35.7187C43.8605 37.0547 42.8058 38.1375 41.5261 38.7703C40.5699 39.2484 40.3308 39.3047 39.1074 39.3468C37.9964 39.389 37.6027 39.3468 36.9277 39.1078L36.0839 38.8125L35.0152 39.8672C33.5527 41.2875 32.9902 41.4703 31.9214 40.9218C31.5558 40.739 31.2605 40.4437 31.0777 40.0781C30.5292 39.0093 30.712 38.4468 32.1324 36.9843L33.187 35.9156L32.9058 35.114C32.5402 34.0875 32.498 32.8359 32.8074 32.2453C33.4964 30.9375 35.5636 30.8812 36.2949 32.1609C36.4214 32.3718 36.5761 32.864 36.6324 33.2578C36.7589 34.1437 37.1527 34.6922 37.8839 35.0297C38.9808 35.5218 40.1058 35.2547 40.6542 34.3547C40.8933 33.975 40.9495 33.7218 40.8933 33.0468C40.837 32.3156 40.7667 32.1328 40.162 31.4015C39.3464 30.4172 39.023 29.7984 38.7417 28.7297C37.8277 25.2422 40.1761 21.7125 43.8323 21.0797C44.7745 20.9109 46.1667 21.0656 47.0527 21.4453L47.5027 21.6281L48.4589 20.6578C48.9792 20.1375 49.612 19.6031 49.837 19.4906C50.4417 19.1953 51.173 19.2093 51.7214 19.5468Z" fill="#151515"/>
<path d="M16.4243 19.5469C15.2431 19.7438 14.1462 20.1234 13.0071 20.7141C11.9665 21.2625 11.4884 21.6984 6.56652 26.5781C0.94152 32.1469 0.82902 32.2875 1.03996 33.3563C1.25089 34.4813 2.08058 35.1562 3.26183 35.1562C3.89464 35.1562 4.13371 35.0438 5.35714 34.0734C6.56652 33.1313 7.42433 32.85 9.06964 32.85C10.1384 32.8359 10.6587 32.9062 11.2212 33.1172L11.9665 33.3844L18.0275 27.3234L24.0884 21.2625L23.4837 20.8828C21.6696 19.7438 18.6743 19.1672 16.4243 19.5469Z" fill="#151515"/>
<path d="M11.5031 46.5188C9.5625 49.4859 8.6625 51.6234 7.24219 56.5734C6.66562 58.5563 5.99062 60.6656 5.75156 61.2422C5.04844 62.9578 3.30469 65.4188 1.33594 67.5C0.0984375 68.8078 0 68.9766 0 69.9469C0 70.7344 0.028125 70.8047 0.61875 71.3813C1.19531 71.9719 1.26562 72 2.05312 72C3.02344 72 3.15 71.9297 4.66875 70.5234C5.93437 69.3422 8.01562 67.725 9.19687 67.0219C10.4062 66.3047 11.8125 65.7844 15.2437 64.8281C18.9984 63.7875 20.2641 63.3234 22.4297 62.2406C24.2719 61.3125 26.7188 59.7797 26.7188 59.5547C26.7188 59.4703 25.4531 58.1484 23.9062 56.6016L21.1078 53.8031L20.1516 54.7172C18.7312 56.0953 17.8172 56.2781 16.8047 55.3922C15.6937 54.4078 15.8344 53.3391 17.2687 51.8625L18.1969 50.8922L15.3984 48.0938C13.8516 46.5469 12.5297 45.2812 12.4453 45.2812C12.375 45.2812 11.9391 45.8438 11.5031 46.5188Z" fill="#151515"/>
<path d="M44.649 53.9999L38.6162 60.0468L38.8552 60.7078C39.1927 61.5937 39.3052 63.1828 39.1084 64.1109C38.8974 65.0953 38.3771 66.1359 37.6599 66.9937C36.9427 67.8374 36.6896 68.5406 36.8302 69.2156C36.999 69.9187 37.3787 70.3968 38.0537 70.7343C38.7146 71.0578 39.2068 71.0859 39.8396 70.8187C40.0927 70.7062 42.5396 68.3718 45.5068 65.3765L50.7099 60.1171L51.3709 58.7812C52.1021 57.2624 52.4115 56.1796 52.5381 54.6609C52.7068 52.7484 52.0881 50.0484 51.1318 48.5437C50.9349 48.2203 50.7521 47.9531 50.724 47.9531C50.7099 47.9531 47.9818 50.6671 44.649 53.9999Z" fill="#151515"/>
</svg>
