<svg width="72" height="72" viewBox="0 0 72 72" fill="none" xmlns="http://www.w3.org/2000/svg">
<path d="M39.6699 0.970314C39.3746 1.05469 39.459 1.125 40.4152 1.74375C41.7793 2.60156 43.6918 4.3875 44.7043 5.76562C48.8246 11.2922 49.0215 18.8016 45.2105 24.5672C44.184 26.1 42.0465 28.2656 40.6402 29.1797C40.0637 29.5453 39.5293 29.925 39.4449 29.9953C39.1777 30.2484 43.0168 30.0094 44.1559 29.7L45.2105 29.4188L48.5293 30.4594C50.3434 31.0359 51.9465 31.5 52.059 31.5C52.4668 31.5 53.0152 30.9375 53.0152 30.5297C53.0152 30.3047 52.7621 29.0109 52.4527 27.6328C52.1434 26.2547 51.8902 25.0453 51.8902 24.9469C51.8902 24.8484 52.1715 24.3563 52.523 23.85C54.5199 21.0094 55.4621 17.0859 54.984 13.6125C54.534 10.2656 53.0574 7.34063 50.5965 4.97813C48.1215 2.5875 45.309 1.32188 41.7793 0.984375C40.148 0.829689 40.148 0.829689 39.6699 0.970314Z" fill="#151515"/>
<path d="M28.4055 1.26562C22.9914 2.41875 18.7867 6.45469 17.3383 11.925C17.0148 13.1203 16.9727 13.5703 16.9727 15.5391C16.9727 17.5078 17.0148 17.9578 17.3383 19.1531C17.7742 20.7844 18.5898 22.5984 19.4758 23.85C19.8273 24.3562 20.1086 24.8484 20.1086 24.9469C20.1086 25.0453 19.8555 26.2547 19.5461 27.6328C19.2367 29.0109 18.9836 30.3047 18.9836 30.5297C18.9836 30.9375 19.532 31.5 19.9539 31.5C20.0805 31.5 21.6695 31.0359 23.4977 30.4594L26.8305 29.4187L27.7867 29.6859C29.9664 30.2906 32.9617 30.2766 35.3664 29.6719C36.7023 29.3203 38.9945 28.2375 40.0773 27.4359C42.1586 25.875 44.0148 23.5547 44.957 21.3328C46.293 18.1547 46.4898 14.4281 45.4633 11.1797C44.7039 8.74687 43.3258 6.58125 41.3711 4.76719C39.4586 2.99531 37.0117 1.74375 34.4242 1.20937C32.9336 0.9 29.9664 0.928123 28.4055 1.26562ZM32.1461 7.04531C32.3148 7.24219 32.4133 7.60781 32.4555 8.24062L32.5117 9.14062H34.0305C35.7602 9.14062 36.182 9.32344 36.182 10.0547C36.182 10.3078 36.0555 10.5609 35.8586 10.7156C35.5773 10.9406 35.2539 10.9688 33.0602 10.9688C30.9367 10.9688 30.5008 11.0109 29.9945 11.2359C29.2633 11.5734 28.8977 12.1219 28.9117 12.8672C28.9398 14.0906 29.6992 14.5687 31.7102 14.6672C32.568 14.7094 33.2008 14.8219 33.6086 15.0047C35.5352 15.8625 36.4492 17.8172 35.718 19.5187C35.2961 20.5031 34.2977 21.4172 33.2711 21.7406L32.4836 21.9937V22.7391C32.4836 23.8359 32.1883 24.3281 31.5133 24.3281C30.8805 24.3281 30.6555 23.9625 30.6555 22.8937V21.9375H29.0102C27.2102 21.9375 26.8586 21.7969 26.8586 21.1078C26.8727 20.2219 27.2383 20.1094 30.1633 20.1094C32.4273 20.1094 32.7086 20.0812 33.1867 19.8141C33.8898 19.4062 34.2273 18.8297 34.1289 18.1125C33.9742 17.0016 33.0883 16.4531 31.457 16.4531C30.0648 16.4531 29.1508 16.1578 28.3492 15.4547C27.2102 14.4422 26.8164 13.2328 27.1961 11.925C27.5617 10.6312 28.7992 9.52031 30.2055 9.21094L30.6555 9.1125V8.18437C30.6555 7.52344 30.7258 7.18594 30.8945 7.00312C31.2039 6.66562 31.8086 6.67969 32.1461 7.04531Z" fill="#151515"/>
<path d="M12.5719 35.0016C11.3625 35.55 11.4609 35.2688 9.14062 45.9C7.97344 51.2016 7.03125 55.7719 7.03125 56.0531C7.03125 56.8547 7.59375 57.7828 8.31094 58.1625C8.85938 58.4438 11.7562 59.0625 12.5016 59.0625C13.4156 59.0625 14.1891 58.5844 14.5969 57.7969C15.0609 56.8688 19.0266 38.5453 18.9422 37.6734C18.8719 36.8297 18.3937 36.0563 17.7328 35.7328C17.2266 35.4656 14.0484 34.7344 13.4578 34.7344C13.2891 34.7344 12.8812 34.8609 12.5719 35.0016Z" fill="#151515"/>
<path d="M56.2922 35.1422C55.35 35.3672 54.3656 35.6766 54.0984 35.8453C53.5078 36.2109 53.0156 37.1391 53.0156 37.8703C53.0156 38.5734 57.0375 57.0234 57.3328 57.7125C57.6703 58.4719 58.6125 59.0625 59.4844 59.0625C60.2719 59.0625 63.1125 58.4578 63.6609 58.1625C64.4062 57.7828 64.9688 56.8687 64.9688 56.0391C64.9688 55.35 60.9187 36.9 60.6094 36.1828C60.2859 35.4656 59.4984 34.9031 58.6406 34.8047C58.2328 34.7625 57.4031 34.8891 56.2922 35.1422Z" fill="#151515"/>
<path d="M35.3391 37.2375C34.1578 37.6594 33.5813 38.1657 31.0219 40.9219C29.7 42.3563 27.6469 44.55 26.4797 45.8016C25.2984 47.0532 24.3281 48.136 24.3281 48.2063C24.3281 48.5016 26.0297 50.0625 26.7469 50.4422C27.3797 50.7657 27.6609 50.836 28.6172 50.836C29.9812 50.836 30.0797 50.7797 33.3703 48.5579C36.8297 46.2094 38.7562 45.3516 39.8953 45.6329C40.1625 45.6891 42.5109 47.9391 47.0391 52.4532L53.7891 59.175L54.7312 58.8235C55.6172 58.486 55.6594 58.4438 55.5469 58.1344C55.4766 57.9516 54.6187 54.211 53.6625 49.8375C52.6922 45.45 51.8766 41.836 51.8484 41.8079C51.8062 41.7797 51.4406 41.8922 51.0328 42.061C50.4281 42.3141 49.9922 42.3844 48.9375 42.3844C47.1797 42.3844 46.5609 42.1313 44.2266 40.4157C40.8937 37.9688 39.1641 37.1391 37.1953 37.0407C36.3375 36.9844 35.9016 37.0407 35.3391 37.2375Z" fill="#151515"/>
<path d="M20.4605 39.825C20.348 40.3875 19.4621 44.4235 18.4918 48.7969L16.748 56.7422L23.8777 63.8578C31.5418 71.5219 31.2184 71.2406 32.4699 71.0438C33.1027 70.9594 33.9605 70.0875 34.0871 69.4266C34.298 68.3156 34.1152 68.0625 30.7262 64.6875C27.8012 61.7766 27.1402 61.0313 27.1402 60.6094C27.1402 60.3703 27.8012 59.7656 28.0824 59.7656C28.223 59.7656 30.5715 62.0016 33.398 64.8141C36.1824 67.5844 38.6152 69.961 38.8121 70.0875C39.248 70.3688 40.373 70.3828 40.9215 70.1016C41.7652 69.6656 42.173 68.7235 41.9762 67.6828C41.8918 67.2188 41.259 66.5297 37.2512 62.4938C34.0027 59.2313 32.6246 57.7547 32.6246 57.5438C32.6246 57.375 32.7512 57.1078 32.9059 56.9531C33.5668 56.2922 33.5668 56.2781 39.7262 62.4235C44.8309 67.5141 45.548 68.1891 46.0262 68.2875C47.573 68.5688 48.909 67.1766 48.5855 65.6438C48.5012 65.2781 47.4324 64.125 43.298 59.9766C39.7824 56.4469 38.109 54.661 38.109 54.4641C38.109 54.0985 38.5027 53.6344 38.9387 53.5078C39.2199 53.4235 39.8527 54 44.423 58.5422C47.2496 61.3688 49.7527 63.7594 49.9637 63.8297C51.623 64.4625 53.3387 63 52.8887 61.3547C52.7621 60.9188 51.4824 59.5688 46.0262 54.1125C41.6105 49.6969 39.2059 47.3906 39.023 47.3906C38.4887 47.3906 37.3215 48.0516 34.3543 50.0344C30.5293 52.6078 30.4168 52.65 28.5465 52.6641C27.1684 52.6641 27.0137 52.636 26.1559 52.2141C25.6496 51.975 24.848 51.4125 24.3559 50.9766C23.3996 50.1047 22.2184 48.5578 22.2184 48.1781C22.2184 47.7281 22.5418 47.3203 24.7355 45C28.3215 41.2031 30.3746 38.9953 30.3746 38.8969C30.3746 38.8547 28.1949 38.8125 25.5371 38.8125H20.6855L20.4605 39.825Z" fill="#151515"/>
</svg>
