<svg width="72" height="72" viewBox="0 0 72 72" fill="none" xmlns="http://www.w3.org/2000/svg">
<g clip-path="url(#clip0_74_308)">
<path fill-rule="evenodd" clip-rule="evenodd" d="M33.7502 2.41875C33.7502 1.32188 34.0314 0.731255 34.7627 0.28125C35.072 0.0843735 35.4799 0 36.0002 0C37.4767 0 38.2502 0.829689 38.2502 2.41875C38.2502 3.23438 38.2924 3.375 38.5033 3.375C39.1361 3.375 42.3986 3.81094 43.622 4.06406C48.2908 5.03438 53.0017 6.96094 56.6861 9.42188C64.4205 14.5828 69.6095 21.9938 71.3674 30.375C72.0564 33.5812 72.2252 37.5328 71.7189 38.3625C71.0439 39.4734 69.7924 39.6703 68.0486 38.9391C64.9689 37.6734 61.6924 37.1672 58.9924 37.5469C56.1236 37.9547 53.6908 38.9953 51.5111 40.7391C49.8939 42.0328 49.1064 42.0188 47.447 40.7109C46.9127 40.275 45.8439 39.6141 45.0705 39.2344C42.9611 38.2078 41.808 37.8703 38.6299 37.3359L38.2361 37.2656L38.2568 44H33.7502V37.2656L33.3705 37.3359C30.1783 37.8703 28.997 38.2219 26.9299 39.2344C26.1564 39.6141 25.1299 40.2469 24.6658 40.6266C23.5267 41.5406 23.2736 41.6531 22.5002 41.6672C21.783 41.6813 21.5721 41.5688 20.0252 40.4016C15.6799 37.0969 9.9283 36.5344 4.13455 38.8828C2.17986 39.6703 0.998614 39.5016 0.267364 38.3625C0.000176604 37.9266 -0.0138859 37.7438 0.0423641 35.5078C0.182989 30.8953 1.2658 26.775 3.50174 22.3875C5.2033 19.0828 7.14393 16.4953 10.0267 13.6828C15.7642 8.11406 23.2877 4.57031 31.5002 3.57188L31.6785 3.55204C32.5003 3.46065 33.2703 3.375 33.4408 3.375C33.7361 3.375 33.7502 3.31875 33.7502 2.41875ZM33.7557 60H38.3121C38.3534 64.6789 38.4654 65.4353 38.8808 65.9436C38.9903 66.0775 39.1209 66.1942 39.2767 66.3609C40.5424 67.6969 42.708 67.6969 43.9736 66.3609C44.5361 65.7703 44.8033 65.1234 44.9299 64.0969C45.1127 62.6203 45.8861 61.875 47.2502 61.875C48.7689 61.875 49.5002 62.6906 49.5002 64.4203C49.5002 67.725 47.1095 70.7906 43.7486 71.775C43.2705 71.9156 42.4549 72 41.6252 72C40.7955 72 39.9799 71.9156 39.5017 71.775C37.4627 71.1703 35.6064 69.6938 34.6924 67.95C34.5246 67.6286 34.3866 67.3887 34.2731 67.1376C33.8726 66.2516 33.7774 65.2275 33.7557 60Z" fill="#151515"/>
</g>
<defs>
<clipPath id="clip0_74_308">
<rect width="72" height="72" fill="white"/>
</clipPath>
</defs>
</svg>
