<svg width="72" height="72" viewBox="0 0 72 72" fill="none" xmlns="http://www.w3.org/2000/svg">
<path d="M31.964 0.210941C26.1281 1.09688 20.8687 3.72657 16.8609 7.74844C14.2312 10.3922 12.3187 13.3734 10.7718 17.1984C10.5046 17.8734 10.1531 18.6188 9.9984 18.8297C9.84371 19.0406 9.57652 19.5609 9.39371 19.9828C9.08433 20.7281 9.07027 20.8547 9.02808 26.4094C8.99996 30.1078 9.04215 32.3438 9.14058 32.8219C9.64683 35.2547 11.5734 37.2656 13.9921 37.8984C14.6109 38.0531 15.5812 38.1094 17.7468 38.1094C19.35 38.1094 20.6718 38.0813 20.6718 38.0531C20.6718 38.025 20.3343 37.4625 19.9125 36.7875C17.1703 32.4141 16.425 26.6625 17.9296 21.4453C18.3515 19.9688 19.4765 17.5641 20.1796 16.5797C20.4468 16.2 20.6718 15.8625 20.6718 15.8203C20.6718 15.7781 19.7296 15.75 18.5625 15.75C17.325 15.75 16.4531 15.6938 16.4531 15.6234C16.4531 15.2719 18.5203 12.4453 19.6312 11.2781C22.739 7.97344 26.6203 5.77969 31.1484 4.78125C37.1953 3.45938 43.5375 4.68282 48.7968 8.17031C50.7093 9.43594 53.3671 12.1359 54.689 14.1328L55.7015 15.6797L53.5218 15.75L51.3421 15.8203L51.9187 16.6641C53.0578 18.3516 54.014 20.7281 54.5203 23.0625C54.8718 24.75 54.8718 29.1094 54.5203 30.7688C54.014 33.0891 53.0156 35.4938 51.8343 37.2516C51.5531 37.6594 51.3281 38.025 51.3281 38.0531C51.3281 38.0813 52.65 38.1094 54.2531 38.1094C57.4171 38.1094 58.1906 37.9969 59.4984 37.3219C61.0031 36.5625 62.3531 34.9172 62.775 33.3C62.9859 32.5266 63.014 31.6969 62.9718 26.5781C62.9296 20.2359 62.9437 20.3484 62.0718 18.8859C61.8609 18.5203 61.4109 17.5641 61.0875 16.7906C57.5015 8.01563 50.2453 2.09531 40.9218 0.337505C39.2484 0.0281296 33.7078 -0.0562477 31.964 0.210941Z" fill="#151515"/>
<path d="M33.37 12.3047C28.5184 13.1765 24.2997 16.5515 22.359 21.0937C21.4731 23.189 21.3044 24.1312 21.3184 27C21.3184 29.8546 21.459 30.6703 22.359 32.8078C24.145 37.0828 28.434 40.4718 33.2715 41.4L34.2419 41.5828L33.609 41.6671C33.2575 41.7093 32.3715 41.8218 31.6403 41.9203C29.9387 42.1171 27.0559 42.8484 25.2419 43.5234C16.1434 46.9125 8.88716 55.0265 6.44029 64.5468C6.10279 65.8546 6.03248 66.3468 6.10279 67.1203C6.24341 68.9906 7.4106 70.7062 9.11216 71.5359L9.91373 71.9296L35.6481 71.9718C58.6825 72 61.4528 71.9859 62.1278 71.775C64.209 71.1843 65.7278 69.3 65.8965 67.1343C65.9669 66.3468 65.8965 65.8687 65.559 64.5468C62.9012 54.225 54.7169 45.7031 44.7325 42.8203C43.045 42.3421 40.0075 41.7656 39.1075 41.7656C38.8262 41.7656 38.5028 41.6953 38.3903 41.625C38.2215 41.5125 38.2637 41.4843 38.545 41.4843C39.8809 41.4843 43.2278 40.1062 44.8028 38.9109C45.7169 38.2218 47.8122 36.0984 47.8122 35.8593C47.8122 35.775 46.4622 35.7187 43.9872 35.7187C40.6122 35.7187 40.0919 35.6906 39.67 35.4656C38.3059 34.7765 38.1794 32.9203 39.4169 32.0062C39.7965 31.725 40.0356 31.7109 44.9715 31.6406L50.1325 31.5703L50.4418 30.375C51.2575 27.1406 50.9059 23.8359 49.4294 20.714C48.5715 18.8859 47.559 17.4937 46.1106 16.1015C43.2559 13.4015 39.9512 12.0797 36.07 12.1078C35.1419 12.1078 33.9325 12.2062 33.37 12.3047Z" fill="#151515"/>
</svg>
