<svg width="72" height="72" viewBox="0 0 72 72" fill="none" xmlns="http://www.w3.org/2000/svg">
<path d="M20.4603 1.7015C17.9291 1.98275 14.5963 3.03743 12.4025 4.24681C2.85407 9.50618 -0.886554 22.5421 4.09157 33.1734C5.42751 36.0421 8.35251 39.4874 10.8275 41.1327C16.3681 44.8171 23.6525 45.7734 30.2338 43.7062C37.2228 41.5124 42.3838 35.7187 44.0009 28.2374C45.4494 21.5296 43.9447 14.4843 39.9509 9.32337C35.6338 3.72649 28.265 0.843681 20.4603 1.7015ZM19.8275 8.22649C20.3338 8.71868 20.5306 9.42181 20.5306 10.814V11.9531H22.4994H24.4681V10.8843C24.4681 9.40775 24.6791 8.66243 25.2697 8.15618C25.8744 7.62181 26.8447 7.55149 27.5759 7.97337C28.2791 8.39524 28.4619 8.91556 28.5181 10.7156L28.5744 12.3609L28.9822 12.4452C29.6009 12.5859 30.9791 13.5421 31.5275 14.2171C33.0041 16.0312 33.5525 18.5062 32.9197 20.5171C32.6244 21.4593 32.1041 22.4437 31.6681 22.8374L31.3728 23.0906L31.9213 23.8218C33.4259 25.8187 33.5806 28.6031 32.315 30.9656C31.7525 32.0343 30.3603 33.3281 29.3338 33.7499L28.5463 34.0874V35.4937C28.5322 37.6593 28.04 38.489 26.6759 38.6296C25.9166 38.6999 25.1994 38.3484 24.8338 37.6874C24.6088 37.3077 24.5244 36.8718 24.4963 35.7609L24.44 34.3124H22.3588H20.2916L20.2213 35.7046C20.165 36.7031 20.0806 37.2374 19.8838 37.6171C19.3634 38.6296 18.0697 38.9671 17.1416 38.3484C16.3822 37.8421 16.1713 37.2656 16.1713 35.6765V34.3124H15.5103C14.6666 34.3124 13.9494 33.9609 13.5416 33.3421L13.2181 32.864V23.2171C13.2181 14.1046 13.2322 13.5421 13.4713 13.0781C13.8088 12.4593 14.54 12.0937 15.6088 11.9952L16.4525 11.9109V10.7859C16.4525 10.1671 16.5228 9.42181 16.6072 9.1265C17.0431 7.70618 18.7728 7.22806 19.8275 8.22649Z" fill="#151515"/>
<path d="M17.2969 18.5625V21.0938H22.2891C27 21.0938 27.3234 21.0797 27.8438 20.8125C28.6312 20.4047 29.0109 19.8 29.0812 18.8156C29.1234 18.3516 29.0672 17.8172 28.9688 17.5781C28.7297 17.0016 27.9703 16.3547 27.3234 16.1859C27 16.0875 24.9187 16.0312 22.05 16.0312H17.2969V18.5625Z" fill="#151515"/>
<path d="M17.2969 27.7031V30.2344H22.3312C27.2812 30.2344 27.3656 30.2203 27.9141 29.9109C28.6734 29.4891 29.1094 28.6875 29.1094 27.7313C29.1094 27.3234 29.0109 26.8031 28.8984 26.5922C28.6172 26.0438 27.9281 25.4953 27.3094 25.3125C27 25.2281 24.8766 25.1719 22.05 25.1719H17.2969V27.7031Z" fill="#151515"/>
<path d="M48.4586 27.9421C48.1914 29.4046 47.432 31.9217 46.8836 33.1733C46.7008 33.5811 46.5461 33.9327 46.5461 33.9467C46.5461 33.9467 47.0664 33.9467 47.6852 33.9186C49.1336 33.8624 50.3008 34.0592 52.1711 34.678C54.632 35.5077 56.2352 36.5624 56.8117 37.7717C57.4867 39.1499 56.5727 40.6405 55.0539 40.6405C54.4633 40.6405 54.2664 40.5421 52.8883 39.4874C49.9492 37.2514 45.5336 37.5327 42.6367 40.1624C41.9055 40.8092 40.9211 42.0889 40.9211 42.3702C40.9211 42.4264 42.5102 42.4686 44.4648 42.4686C47.7133 42.4686 48.0508 42.4967 48.5852 42.7499C49.7242 43.2983 50.0898 44.6764 49.3727 45.6749C48.782 46.5186 48.557 46.5467 43.7477 46.5467H39.3742V48.1639V49.7811H43.143C47.4602 49.7811 47.5867 49.8092 48.107 50.9764C48.4586 51.778 48.3602 52.453 47.7555 53.0717C47.1227 53.7467 46.5461 53.8592 43.4945 53.8592H40.7945L41.0898 54.3796C41.6523 55.3639 43.3258 56.8686 44.4508 57.4311C45.9836 58.1764 47.0383 58.4014 48.6414 58.3311C50.1883 58.2608 51.2289 57.9374 52.5227 57.1217C53.9148 56.2639 55.0961 56.4608 55.7289 57.6702C56.5023 59.1186 55.0539 60.8764 52.3398 61.7764C47.6852 63.3092 42.1164 61.8327 38.9242 58.2046C38.0523 57.2342 36.9555 55.4764 36.6039 54.5202L36.3648 53.8592H35.4508C34.2133 53.8592 33.5383 53.6483 32.9336 53.0858C32.4555 52.6499 32.4133 52.5514 32.4133 51.8483C32.4133 50.5827 33.2711 49.753 34.607 49.7249L35.2961 49.7108V48.1217V46.5467H34.607C34.1711 46.5467 33.5664 46.7014 32.8914 46.9827C31.5695 47.5311 28.9258 48.2905 27.5758 48.5155L26.5352 48.6842L26.6336 49.7952C26.957 53.7327 28.3773 57.6421 30.6133 60.7921C31.5977 62.1702 33.8758 64.5046 35.2117 65.4889C38.0664 67.5983 41.4414 69.0186 44.8586 69.553C46.757 69.8342 50.4977 69.8342 52.2414 69.5389C56.3758 68.8358 59.9055 66.9655 63.0695 63.7874C67.2039 59.6389 69.4961 54.3796 69.707 48.5717C69.8336 45.0421 69.4258 42.6233 68.1883 39.6561C67.2461 37.3639 65.9383 35.5077 63.8008 33.3983C59.7367 29.3905 55.5039 27.4077 49.4289 26.6483L48.7117 26.5639L48.4586 27.9421Z" fill="#151515"/>
</svg>
